<?xml version="1.0" encoding="utf-8" standalone="no"?>
<!DOCTYPE svg PUBLIC "-//W3C//DTD SVG 1.1//EN"
  "http://www.w3.org/Graphics/SVG/1.1/DTD/svg11.dtd">
<svg xmlns:xlink="http://www.w3.org/1999/xlink" width="864pt" height="432pt" viewBox="0 0 864 432" xmlns="http://www.w3.org/2000/svg" version="1.1">
 <metadata>
  <rdf:RDF xmlns:dc="http://purl.org/dc/elements/1.1/" xmlns:cc="http://creativecommons.org/ns#" xmlns:rdf="http://www.w3.org/1999/02/22-rdf-syntax-ns#">
   <cc:Work>
    <dc:type rdf:resource="http://purl.org/dc/dcmitype/StillImage"/>
    <dc:date>2022-05-08T16:32:29.197936</dc:date>
    <dc:format>image/svg+xml</dc:format>
    <dc:creator>
     <cc:Agent>
      <dc:title>Matplotlib v3.5.1, https://matplotlib.org/</dc:title>
     </cc:Agent>
    </dc:creator>
   </cc:Work>
  </rdf:RDF>
 </metadata>
 <defs>
  <style type="text/css">*{stroke-linejoin: round; stroke-linecap: butt}</style>
 </defs>
 <g id="figure_1">
  <g id="patch_1">
   <path d="M 0 432 
L 864 432 
L 864 0 
L 0 0 
z
" style="fill: #ffffff"/>
  </g>
  <g id="axes_1">
   <g id="patch_2">
    <path d="M 108 384.48 
L 777.6 384.48 
L 777.6 51.84 
L 108 51.84 
z
" style="fill: #ffffff"/>
   </g>
   <g id="matplotlib.axis_1">
    <g id="xtick_1">
     <g id="line2d_1">
      <path d="M 108 384.48 
L 108 51.84 
" clip-path="url(#p9134c2b3bb)" style="fill: none; stroke: #b0b0b0; stroke-width: 0.8; stroke-linecap: square"/>
     </g>
     <g id="line2d_2">
      <defs>
       <path id="mf0f420615c" d="M 0 0 
L 0 3.5 
" style="stroke: #000000; stroke-width: 0.8"/>
      </defs>
      <g>
       <use xlink:href="#mf0f420615c" x="108" y="384.48" style="stroke: #000000; stroke-width: 0.8"/>
      </g>
     </g>
     <g id="text_1">
      <!-- $\mathdefault{10^{0}}$ -->
      <g transform="translate(99.2 399.078438)scale(0.1 -0.1)">
       <defs>
        <path id="DejaVuSans-31" d="M 794 531 
L 1825 531 
L 1825 4091 
L 703 3866 
L 703 4441 
L 1819 4666 
L 2450 4666 
L 2450 531 
L 3481 531 
L 3481 0 
L 794 0 
L 794 531 
z
" transform="scale(0.015625)"/>
        <path id="DejaVuSans-30" d="M 2034 4250 
Q 1547 4250 1301 3770 
Q 1056 3291 1056 2328 
Q 1056 1369 1301 889 
Q 1547 409 2034 409 
Q 2525 409 2770 889 
Q 3016 1369 3016 2328 
Q 3016 3291 2770 3770 
Q 2525 4250 2034 4250 
z
M 2034 4750 
Q 2819 4750 3233 4129 
Q 3647 3509 3647 2328 
Q 3647 1150 3233 529 
Q 2819 -91 2034 -91 
Q 1250 -91 836 529 
Q 422 1150 422 2328 
Q 422 3509 836 4129 
Q 1250 4750 2034 4750 
z
" transform="scale(0.015625)"/>
       </defs>
       <use xlink:href="#DejaVuSans-31" transform="translate(0 0.765625)"/>
       <use xlink:href="#DejaVuSans-30" transform="translate(63.623047 0.765625)"/>
       <use xlink:href="#DejaVuSans-30" transform="translate(128.203125 39.046875)scale(0.7)"/>
      </g>
     </g>
    </g>
    <g id="xtick_2">
     <g id="line2d_3">
      <path d="M 331.2 384.48 
L 331.2 51.84 
" clip-path="url(#p9134c2b3bb)" style="fill: none; stroke: #b0b0b0; stroke-width: 0.8; stroke-linecap: square"/>
     </g>
     <g id="line2d_4">
      <g>
       <use xlink:href="#mf0f420615c" x="331.2" y="384.48" style="stroke: #000000; stroke-width: 0.8"/>
      </g>
     </g>
     <g id="text_2">
      <!-- $\mathdefault{10^{1}}$ -->
      <g transform="translate(322.4 399.078438)scale(0.1 -0.1)">
       <use xlink:href="#DejaVuSans-31" transform="translate(0 0.684375)"/>
       <use xlink:href="#DejaVuSans-30" transform="translate(63.623047 0.684375)"/>
       <use xlink:href="#DejaVuSans-31" transform="translate(128.203125 38.965625)scale(0.7)"/>
      </g>
     </g>
    </g>
    <g id="xtick_3">
     <g id="line2d_5">
      <path d="M 554.4 384.48 
L 554.4 51.84 
" clip-path="url(#p9134c2b3bb)" style="fill: none; stroke: #b0b0b0; stroke-width: 0.8; stroke-linecap: square"/>
     </g>
     <g id="line2d_6">
      <g>
       <use xlink:href="#mf0f420615c" x="554.4" y="384.48" style="stroke: #000000; stroke-width: 0.8"/>
      </g>
     </g>
     <g id="text_3">
      <!-- $\mathdefault{10^{2}}$ -->
      <g transform="translate(545.6 399.078438)scale(0.1 -0.1)">
       <defs>
        <path id="DejaVuSans-32" d="M 1228 531 
L 3431 531 
L 3431 0 
L 469 0 
L 469 531 
Q 828 903 1448 1529 
Q 2069 2156 2228 2338 
Q 2531 2678 2651 2914 
Q 2772 3150 2772 3378 
Q 2772 3750 2511 3984 
Q 2250 4219 1831 4219 
Q 1534 4219 1204 4116 
Q 875 4013 500 3803 
L 500 4441 
Q 881 4594 1212 4672 
Q 1544 4750 1819 4750 
Q 2544 4750 2975 4387 
Q 3406 4025 3406 3419 
Q 3406 3131 3298 2873 
Q 3191 2616 2906 2266 
Q 2828 2175 2409 1742 
Q 1991 1309 1228 531 
z
" transform="scale(0.015625)"/>
       </defs>
       <use xlink:href="#DejaVuSans-31" transform="translate(0 0.765625)"/>
       <use xlink:href="#DejaVuSans-30" transform="translate(63.623047 0.765625)"/>
       <use xlink:href="#DejaVuSans-32" transform="translate(128.203125 39.046875)scale(0.7)"/>
      </g>
     </g>
    </g>
    <g id="xtick_4">
     <g id="line2d_7">
      <path d="M 777.6 384.48 
L 777.6 51.84 
" clip-path="url(#p9134c2b3bb)" style="fill: none; stroke: #b0b0b0; stroke-width: 0.8; stroke-linecap: square"/>
     </g>
     <g id="line2d_8">
      <g>
       <use xlink:href="#mf0f420615c" x="777.6" y="384.48" style="stroke: #000000; stroke-width: 0.8"/>
      </g>
     </g>
     <g id="text_4">
      <!-- $\mathdefault{10^{3}}$ -->
      <g transform="translate(768.8 399.078438)scale(0.1 -0.1)">
       <defs>
        <path id="DejaVuSans-33" d="M 2597 2516 
Q 3050 2419 3304 2112 
Q 3559 1806 3559 1356 
Q 3559 666 3084 287 
Q 2609 -91 1734 -91 
Q 1441 -91 1130 -33 
Q 819 25 488 141 
L 488 750 
Q 750 597 1062 519 
Q 1375 441 1716 441 
Q 2309 441 2620 675 
Q 2931 909 2931 1356 
Q 2931 1769 2642 2001 
Q 2353 2234 1838 2234 
L 1294 2234 
L 1294 2753 
L 1863 2753 
Q 2328 2753 2575 2939 
Q 2822 3125 2822 3475 
Q 2822 3834 2567 4026 
Q 2313 4219 1838 4219 
Q 1578 4219 1281 4162 
Q 984 4106 628 3988 
L 628 4550 
Q 988 4650 1302 4700 
Q 1616 4750 1894 4750 
Q 2613 4750 3031 4423 
Q 3450 4097 3450 3541 
Q 3450 3153 3228 2886 
Q 3006 2619 2597 2516 
z
" transform="scale(0.015625)"/>
       </defs>
       <use xlink:href="#DejaVuSans-31" transform="translate(0 0.765625)"/>
       <use xlink:href="#DejaVuSans-30" transform="translate(63.623047 0.765625)"/>
       <use xlink:href="#DejaVuSans-33" transform="translate(128.203125 39.046875)scale(0.7)"/>
      </g>
     </g>
    </g>
    <g id="xtick_5">
     <g id="line2d_9">
      <defs>
       <path id="m46300a7d95" d="M 0 0 
L 0 2 
" style="stroke: #000000; stroke-width: 0.6"/>
      </defs>
      <g>
       <use xlink:href="#m46300a7d95" x="175.189895" y="384.48" style="stroke: #000000; stroke-width: 0.6"/>
      </g>
     </g>
    </g>
    <g id="xtick_6">
     <g id="line2d_10">
      <g>
       <use xlink:href="#m46300a7d95" x="214.493464" y="384.48" style="stroke: #000000; stroke-width: 0.6"/>
      </g>
     </g>
    </g>
    <g id="xtick_7">
     <g id="line2d_11">
      <g>
       <use xlink:href="#m46300a7d95" x="242.37979" y="384.48" style="stroke: #000000; stroke-width: 0.6"/>
      </g>
     </g>
    </g>
    <g id="xtick_8">
     <g id="line2d_12">
      <g>
       <use xlink:href="#m46300a7d95" x="264.010105" y="384.48" style="stroke: #000000; stroke-width: 0.6"/>
      </g>
     </g>
    </g>
    <g id="xtick_9">
     <g id="line2d_13">
      <g>
       <use xlink:href="#m46300a7d95" x="281.683359" y="384.48" style="stroke: #000000; stroke-width: 0.6"/>
      </g>
     </g>
    </g>
    <g id="xtick_10">
     <g id="line2d_14">
      <g>
       <use xlink:href="#m46300a7d95" x="296.625883" y="384.48" style="stroke: #000000; stroke-width: 0.6"/>
      </g>
     </g>
    </g>
    <g id="xtick_11">
     <g id="line2d_15">
      <g>
       <use xlink:href="#m46300a7d95" x="309.569685" y="384.48" style="stroke: #000000; stroke-width: 0.6"/>
      </g>
     </g>
    </g>
    <g id="xtick_12">
     <g id="line2d_16">
      <g>
       <use xlink:href="#m46300a7d95" x="320.986928" y="384.48" style="stroke: #000000; stroke-width: 0.6"/>
      </g>
     </g>
    </g>
    <g id="xtick_13">
     <g id="line2d_17">
      <g>
       <use xlink:href="#m46300a7d95" x="398.389895" y="384.48" style="stroke: #000000; stroke-width: 0.6"/>
      </g>
     </g>
    </g>
    <g id="xtick_14">
     <g id="line2d_18">
      <g>
       <use xlink:href="#m46300a7d95" x="437.693464" y="384.48" style="stroke: #000000; stroke-width: 0.6"/>
      </g>
     </g>
    </g>
    <g id="xtick_15">
     <g id="line2d_19">
      <g>
       <use xlink:href="#m46300a7d95" x="465.57979" y="384.48" style="stroke: #000000; stroke-width: 0.6"/>
      </g>
     </g>
    </g>
    <g id="xtick_16">
     <g id="line2d_20">
      <g>
       <use xlink:href="#m46300a7d95" x="487.210105" y="384.48" style="stroke: #000000; stroke-width: 0.6"/>
      </g>
     </g>
    </g>
    <g id="xtick_17">
     <g id="line2d_21">
      <g>
       <use xlink:href="#m46300a7d95" x="504.883359" y="384.48" style="stroke: #000000; stroke-width: 0.6"/>
      </g>
     </g>
    </g>
    <g id="xtick_18">
     <g id="line2d_22">
      <g>
       <use xlink:href="#m46300a7d95" x="519.825883" y="384.48" style="stroke: #000000; stroke-width: 0.6"/>
      </g>
     </g>
    </g>
    <g id="xtick_19">
     <g id="line2d_23">
      <g>
       <use xlink:href="#m46300a7d95" x="532.769685" y="384.48" style="stroke: #000000; stroke-width: 0.6"/>
      </g>
     </g>
    </g>
    <g id="xtick_20">
     <g id="line2d_24">
      <g>
       <use xlink:href="#m46300a7d95" x="544.186928" y="384.48" style="stroke: #000000; stroke-width: 0.6"/>
      </g>
     </g>
    </g>
    <g id="xtick_21">
     <g id="line2d_25">
      <g>
       <use xlink:href="#m46300a7d95" x="621.589895" y="384.48" style="stroke: #000000; stroke-width: 0.6"/>
      </g>
     </g>
    </g>
    <g id="xtick_22">
     <g id="line2d_26">
      <g>
       <use xlink:href="#m46300a7d95" x="660.893464" y="384.48" style="stroke: #000000; stroke-width: 0.6"/>
      </g>
     </g>
    </g>
    <g id="xtick_23">
     <g id="line2d_27">
      <g>
       <use xlink:href="#m46300a7d95" x="688.77979" y="384.48" style="stroke: #000000; stroke-width: 0.6"/>
      </g>
     </g>
    </g>
    <g id="xtick_24">
     <g id="line2d_28">
      <g>
       <use xlink:href="#m46300a7d95" x="710.410105" y="384.48" style="stroke: #000000; stroke-width: 0.6"/>
      </g>
     </g>
    </g>
    <g id="xtick_25">
     <g id="line2d_29">
      <g>
       <use xlink:href="#m46300a7d95" x="728.083359" y="384.48" style="stroke: #000000; stroke-width: 0.6"/>
      </g>
     </g>
    </g>
    <g id="xtick_26">
     <g id="line2d_30">
      <g>
       <use xlink:href="#m46300a7d95" x="743.025883" y="384.48" style="stroke: #000000; stroke-width: 0.6"/>
      </g>
     </g>
    </g>
    <g id="xtick_27">
     <g id="line2d_31">
      <g>
       <use xlink:href="#m46300a7d95" x="755.969685" y="384.48" style="stroke: #000000; stroke-width: 0.6"/>
      </g>
     </g>
    </g>
    <g id="xtick_28">
     <g id="line2d_32">
      <g>
       <use xlink:href="#m46300a7d95" x="767.386928" y="384.48" style="stroke: #000000; stroke-width: 0.6"/>
      </g>
     </g>
    </g>
    <g id="text_5">
     <!-- N -->
     <g transform="translate(439.059375 412.756563)scale(0.1 -0.1)">
      <defs>
       <path id="DejaVuSans-4e" d="M 628 4666 
L 1478 4666 
L 3547 763 
L 3547 4666 
L 4159 4666 
L 4159 0 
L 3309 0 
L 1241 3903 
L 1241 0 
L 628 0 
L 628 4666 
z
" transform="scale(0.015625)"/>
      </defs>
      <use xlink:href="#DejaVuSans-4e"/>
     </g>
    </g>
   </g>
   <g id="matplotlib.axis_2">
    <g id="ytick_1">
     <g id="line2d_33">
      <path d="M 108 353.817842 
L 777.6 353.817842 
" clip-path="url(#p9134c2b3bb)" style="fill: none; stroke: #b0b0b0; stroke-width: 0.8; stroke-linecap: square"/>
     </g>
     <g id="line2d_34">
      <defs>
       <path id="m032af978fa" d="M 0 0 
L -3.5 0 
" style="stroke: #000000; stroke-width: 0.8"/>
      </defs>
      <g>
       <use xlink:href="#m032af978fa" x="108" y="353.817842" style="stroke: #000000; stroke-width: 0.8"/>
      </g>
     </g>
     <g id="text_6">
      <!-- $\mathdefault{10^{-3}}$ -->
      <g transform="translate(77.5 357.617061)scale(0.1 -0.1)">
       <defs>
        <path id="DejaVuSans-2212" d="M 678 2272 
L 4684 2272 
L 4684 1741 
L 678 1741 
L 678 2272 
z
" transform="scale(0.015625)"/>
       </defs>
       <use xlink:href="#DejaVuSans-31" transform="translate(0 0.765625)"/>
       <use xlink:href="#DejaVuSans-30" transform="translate(63.623047 0.765625)"/>
       <use xlink:href="#DejaVuSans-2212" transform="translate(128.203125 39.046875)scale(0.7)"/>
       <use xlink:href="#DejaVuSans-33" transform="translate(186.855469 39.046875)scale(0.7)"/>
      </g>
     </g>
    </g>
    <g id="ytick_2">
     <g id="line2d_35">
      <path d="M 108 281.374768 
L 777.6 281.374768 
" clip-path="url(#p9134c2b3bb)" style="fill: none; stroke: #b0b0b0; stroke-width: 0.8; stroke-linecap: square"/>
     </g>
     <g id="line2d_36">
      <g>
       <use xlink:href="#m032af978fa" x="108" y="281.374768" style="stroke: #000000; stroke-width: 0.8"/>
      </g>
     </g>
     <g id="text_7">
      <!-- $\mathdefault{10^{-2}}$ -->
      <g transform="translate(77.5 285.173986)scale(0.1 -0.1)">
       <use xlink:href="#DejaVuSans-31" transform="translate(0 0.765625)"/>
       <use xlink:href="#DejaVuSans-30" transform="translate(63.623047 0.765625)"/>
       <use xlink:href="#DejaVuSans-2212" transform="translate(128.203125 39.046875)scale(0.7)"/>
       <use xlink:href="#DejaVuSans-32" transform="translate(186.855469 39.046875)scale(0.7)"/>
      </g>
     </g>
    </g>
    <g id="ytick_3">
     <g id="line2d_37">
      <path d="M 108 208.931693 
L 777.6 208.931693 
" clip-path="url(#p9134c2b3bb)" style="fill: none; stroke: #b0b0b0; stroke-width: 0.8; stroke-linecap: square"/>
     </g>
     <g id="line2d_38">
      <g>
       <use xlink:href="#m032af978fa" x="108" y="208.931693" style="stroke: #000000; stroke-width: 0.8"/>
      </g>
     </g>
     <g id="text_8">
      <!-- $\mathdefault{10^{-1}}$ -->
      <g transform="translate(77.5 212.730912)scale(0.1 -0.1)">
       <use xlink:href="#DejaVuSans-31" transform="translate(0 0.684375)"/>
       <use xlink:href="#DejaVuSans-30" transform="translate(63.623047 0.684375)"/>
       <use xlink:href="#DejaVuSans-2212" transform="translate(128.203125 38.965625)scale(0.7)"/>
       <use xlink:href="#DejaVuSans-31" transform="translate(186.855469 38.965625)scale(0.7)"/>
      </g>
     </g>
    </g>
    <g id="ytick_4">
     <g id="line2d_39">
      <path d="M 108 136.488619 
L 777.6 136.488619 
" clip-path="url(#p9134c2b3bb)" style="fill: none; stroke: #b0b0b0; stroke-width: 0.8; stroke-linecap: square"/>
     </g>
     <g id="line2d_40">
      <g>
       <use xlink:href="#m032af978fa" x="108" y="136.488619" style="stroke: #000000; stroke-width: 0.8"/>
      </g>
     </g>
     <g id="text_9">
      <!-- $\mathdefault{10^{0}}$ -->
      <g transform="translate(83.4 140.287838)scale(0.1 -0.1)">
       <use xlink:href="#DejaVuSans-31" transform="translate(0 0.765625)"/>
       <use xlink:href="#DejaVuSans-30" transform="translate(63.623047 0.765625)"/>
       <use xlink:href="#DejaVuSans-30" transform="translate(128.203125 39.046875)scale(0.7)"/>
      </g>
     </g>
    </g>
    <g id="ytick_5">
     <g id="line2d_41">
      <path d="M 108 64.045545 
L 777.6 64.045545 
" clip-path="url(#p9134c2b3bb)" style="fill: none; stroke: #b0b0b0; stroke-width: 0.8; stroke-linecap: square"/>
     </g>
     <g id="line2d_42">
      <g>
       <use xlink:href="#m032af978fa" x="108" y="64.045545" style="stroke: #000000; stroke-width: 0.8"/>
      </g>
     </g>
     <g id="text_10">
      <!-- $\mathdefault{10^{1}}$ -->
      <g transform="translate(83.4 67.844763)scale(0.1 -0.1)">
       <use xlink:href="#DejaVuSans-31" transform="translate(0 0.684375)"/>
       <use xlink:href="#DejaVuSans-30" transform="translate(63.623047 0.684375)"/>
       <use xlink:href="#DejaVuSans-31" transform="translate(128.203125 38.965625)scale(0.7)"/>
      </g>
     </g>
    </g>
    <g id="ytick_6">
     <g id="line2d_43">
      <defs>
       <path id="ma9b24d39c0" d="M 0 0 
L -2 0 
" style="stroke: #000000; stroke-width: 0.6"/>
      </defs>
      <g>
       <use xlink:href="#ma9b24d39c0" x="108" y="382.64584" style="stroke: #000000; stroke-width: 0.6"/>
      </g>
     </g>
    </g>
    <g id="ytick_7">
     <g id="line2d_44">
      <g>
       <use xlink:href="#ma9b24d39c0" x="108" y="375.62538" style="stroke: #000000; stroke-width: 0.6"/>
      </g>
     </g>
    </g>
    <g id="ytick_8">
     <g id="line2d_45">
      <g>
       <use xlink:href="#ma9b24d39c0" x="108" y="369.889247" style="stroke: #000000; stroke-width: 0.6"/>
      </g>
     </g>
    </g>
    <g id="ytick_9">
     <g id="line2d_46">
      <g>
       <use xlink:href="#ma9b24d39c0" x="108" y="365.039416" style="stroke: #000000; stroke-width: 0.6"/>
      </g>
     </g>
    </g>
    <g id="ytick_10">
     <g id="line2d_47">
      <g>
       <use xlink:href="#ma9b24d39c0" x="108" y="360.838301" style="stroke: #000000; stroke-width: 0.6"/>
      </g>
     </g>
    </g>
    <g id="ytick_11">
     <g id="line2d_48">
      <g>
       <use xlink:href="#ma9b24d39c0" x="108" y="357.132655" style="stroke: #000000; stroke-width: 0.6"/>
      </g>
     </g>
    </g>
    <g id="ytick_12">
     <g id="line2d_49">
      <g>
       <use xlink:href="#ma9b24d39c0" x="108" y="332.010304" style="stroke: #000000; stroke-width: 0.6"/>
      </g>
     </g>
    </g>
    <g id="ytick_13">
     <g id="line2d_50">
      <g>
       <use xlink:href="#ma9b24d39c0" x="108" y="319.253711" style="stroke: #000000; stroke-width: 0.6"/>
      </g>
     </g>
    </g>
    <g id="ytick_14">
     <g id="line2d_51">
      <g>
       <use xlink:href="#ma9b24d39c0" x="108" y="310.202765" style="stroke: #000000; stroke-width: 0.6"/>
      </g>
     </g>
    </g>
    <g id="ytick_15">
     <g id="line2d_52">
      <g>
       <use xlink:href="#ma9b24d39c0" x="108" y="303.182306" style="stroke: #000000; stroke-width: 0.6"/>
      </g>
     </g>
    </g>
    <g id="ytick_16">
     <g id="line2d_53">
      <g>
       <use xlink:href="#ma9b24d39c0" x="108" y="297.446173" style="stroke: #000000; stroke-width: 0.6"/>
      </g>
     </g>
    </g>
    <g id="ytick_17">
     <g id="line2d_54">
      <g>
       <use xlink:href="#ma9b24d39c0" x="108" y="292.596342" style="stroke: #000000; stroke-width: 0.6"/>
      </g>
     </g>
    </g>
    <g id="ytick_18">
     <g id="line2d_55">
      <g>
       <use xlink:href="#ma9b24d39c0" x="108" y="288.395227" style="stroke: #000000; stroke-width: 0.6"/>
      </g>
     </g>
    </g>
    <g id="ytick_19">
     <g id="line2d_56">
      <g>
       <use xlink:href="#ma9b24d39c0" x="108" y="284.689581" style="stroke: #000000; stroke-width: 0.6"/>
      </g>
     </g>
    </g>
    <g id="ytick_20">
     <g id="line2d_57">
      <g>
       <use xlink:href="#ma9b24d39c0" x="108" y="259.567229" style="stroke: #000000; stroke-width: 0.6"/>
      </g>
     </g>
    </g>
    <g id="ytick_21">
     <g id="line2d_58">
      <g>
       <use xlink:href="#ma9b24d39c0" x="108" y="246.810637" style="stroke: #000000; stroke-width: 0.6"/>
      </g>
     </g>
    </g>
    <g id="ytick_22">
     <g id="line2d_59">
      <g>
       <use xlink:href="#ma9b24d39c0" x="108" y="237.759691" style="stroke: #000000; stroke-width: 0.6"/>
      </g>
     </g>
    </g>
    <g id="ytick_23">
     <g id="line2d_60">
      <g>
       <use xlink:href="#ma9b24d39c0" x="108" y="230.739232" style="stroke: #000000; stroke-width: 0.6"/>
      </g>
     </g>
    </g>
    <g id="ytick_24">
     <g id="line2d_61">
      <g>
       <use xlink:href="#ma9b24d39c0" x="108" y="225.003099" style="stroke: #000000; stroke-width: 0.6"/>
      </g>
     </g>
    </g>
    <g id="ytick_25">
     <g id="line2d_62">
      <g>
       <use xlink:href="#ma9b24d39c0" x="108" y="220.153268" style="stroke: #000000; stroke-width: 0.6"/>
      </g>
     </g>
    </g>
    <g id="ytick_26">
     <g id="line2d_63">
      <g>
       <use xlink:href="#ma9b24d39c0" x="108" y="215.952153" style="stroke: #000000; stroke-width: 0.6"/>
      </g>
     </g>
    </g>
    <g id="ytick_27">
     <g id="line2d_64">
      <g>
       <use xlink:href="#ma9b24d39c0" x="108" y="212.246507" style="stroke: #000000; stroke-width: 0.6"/>
      </g>
     </g>
    </g>
    <g id="ytick_28">
     <g id="line2d_65">
      <g>
       <use xlink:href="#ma9b24d39c0" x="108" y="187.124155" style="stroke: #000000; stroke-width: 0.6"/>
      </g>
     </g>
    </g>
    <g id="ytick_29">
     <g id="line2d_66">
      <g>
       <use xlink:href="#ma9b24d39c0" x="108" y="174.367563" style="stroke: #000000; stroke-width: 0.6"/>
      </g>
     </g>
    </g>
    <g id="ytick_30">
     <g id="line2d_67">
      <g>
       <use xlink:href="#ma9b24d39c0" x="108" y="165.316617" style="stroke: #000000; stroke-width: 0.6"/>
      </g>
     </g>
    </g>
    <g id="ytick_31">
     <g id="line2d_68">
      <g>
       <use xlink:href="#ma9b24d39c0" x="108" y="158.296157" style="stroke: #000000; stroke-width: 0.6"/>
      </g>
     </g>
    </g>
    <g id="ytick_32">
     <g id="line2d_69">
      <g>
       <use xlink:href="#ma9b24d39c0" x="108" y="152.560024" style="stroke: #000000; stroke-width: 0.6"/>
      </g>
     </g>
    </g>
    <g id="ytick_33">
     <g id="line2d_70">
      <g>
       <use xlink:href="#ma9b24d39c0" x="108" y="147.710193" style="stroke: #000000; stroke-width: 0.6"/>
      </g>
     </g>
    </g>
    <g id="ytick_34">
     <g id="line2d_71">
      <g>
       <use xlink:href="#ma9b24d39c0" x="108" y="143.509078" style="stroke: #000000; stroke-width: 0.6"/>
      </g>
     </g>
    </g>
    <g id="ytick_35">
     <g id="line2d_72">
      <g>
       <use xlink:href="#ma9b24d39c0" x="108" y="139.803432" style="stroke: #000000; stroke-width: 0.6"/>
      </g>
     </g>
    </g>
    <g id="ytick_36">
     <g id="line2d_73">
      <g>
       <use xlink:href="#ma9b24d39c0" x="108" y="114.681081" style="stroke: #000000; stroke-width: 0.6"/>
      </g>
     </g>
    </g>
    <g id="ytick_37">
     <g id="line2d_74">
      <g>
       <use xlink:href="#ma9b24d39c0" x="108" y="101.924488" style="stroke: #000000; stroke-width: 0.6"/>
      </g>
     </g>
    </g>
    <g id="ytick_38">
     <g id="line2d_75">
      <g>
       <use xlink:href="#ma9b24d39c0" x="108" y="92.873542" style="stroke: #000000; stroke-width: 0.6"/>
      </g>
     </g>
    </g>
    <g id="ytick_39">
     <g id="line2d_76">
      <g>
       <use xlink:href="#ma9b24d39c0" x="108" y="85.853083" style="stroke: #000000; stroke-width: 0.6"/>
      </g>
     </g>
    </g>
    <g id="ytick_40">
     <g id="line2d_77">
      <g>
       <use xlink:href="#ma9b24d39c0" x="108" y="80.11695" style="stroke: #000000; stroke-width: 0.6"/>
      </g>
     </g>
    </g>
    <g id="ytick_41">
     <g id="line2d_78">
      <g>
       <use xlink:href="#ma9b24d39c0" x="108" y="75.267119" style="stroke: #000000; stroke-width: 0.6"/>
      </g>
     </g>
    </g>
    <g id="ytick_42">
     <g id="line2d_79">
      <g>
       <use xlink:href="#ma9b24d39c0" x="108" y="71.066004" style="stroke: #000000; stroke-width: 0.6"/>
      </g>
     </g>
    </g>
    <g id="ytick_43">
     <g id="line2d_80">
      <g>
       <use xlink:href="#ma9b24d39c0" x="108" y="67.360358" style="stroke: #000000; stroke-width: 0.6"/>
      </g>
     </g>
    </g>
    <g id="text_11">
     <!-- time[usec] -->
     <g transform="translate(71.420312 244.956875)rotate(-90)scale(0.1 -0.1)">
      <defs>
       <path id="DejaVuSans-74" d="M 1172 4494 
L 1172 3500 
L 2356 3500 
L 2356 3053 
L 1172 3053 
L 1172 1153 
Q 1172 725 1289 603 
Q 1406 481 1766 481 
L 2356 481 
L 2356 0 
L 1766 0 
Q 1100 0 847 248 
Q 594 497 594 1153 
L 594 3053 
L 172 3053 
L 172 3500 
L 594 3500 
L 594 4494 
L 1172 4494 
z
" transform="scale(0.015625)"/>
       <path id="DejaVuSans-69" d="M 603 3500 
L 1178 3500 
L 1178 0 
L 603 0 
L 603 3500 
z
M 603 4863 
L 1178 4863 
L 1178 4134 
L 603 4134 
L 603 4863 
z
" transform="scale(0.015625)"/>
       <path id="DejaVuSans-6d" d="M 3328 2828 
Q 3544 3216 3844 3400 
Q 4144 3584 4550 3584 
Q 5097 3584 5394 3201 
Q 5691 2819 5691 2113 
L 5691 0 
L 5113 0 
L 5113 2094 
Q 5113 2597 4934 2840 
Q 4756 3084 4391 3084 
Q 3944 3084 3684 2787 
Q 3425 2491 3425 1978 
L 3425 0 
L 2847 0 
L 2847 2094 
Q 2847 2600 2669 2842 
Q 2491 3084 2119 3084 
Q 1678 3084 1418 2786 
Q 1159 2488 1159 1978 
L 1159 0 
L 581 0 
L 581 3500 
L 1159 3500 
L 1159 2956 
Q 1356 3278 1631 3431 
Q 1906 3584 2284 3584 
Q 2666 3584 2933 3390 
Q 3200 3197 3328 2828 
z
" transform="scale(0.015625)"/>
       <path id="DejaVuSans-65" d="M 3597 1894 
L 3597 1613 
L 953 1613 
Q 991 1019 1311 708 
Q 1631 397 2203 397 
Q 2534 397 2845 478 
Q 3156 559 3463 722 
L 3463 178 
Q 3153 47 2828 -22 
Q 2503 -91 2169 -91 
Q 1331 -91 842 396 
Q 353 884 353 1716 
Q 353 2575 817 3079 
Q 1281 3584 2069 3584 
Q 2775 3584 3186 3129 
Q 3597 2675 3597 1894 
z
M 3022 2063 
Q 3016 2534 2758 2815 
Q 2500 3097 2075 3097 
Q 1594 3097 1305 2825 
Q 1016 2553 972 2059 
L 3022 2063 
z
" transform="scale(0.015625)"/>
       <path id="DejaVuSans-5b" d="M 550 4863 
L 1875 4863 
L 1875 4416 
L 1125 4416 
L 1125 -397 
L 1875 -397 
L 1875 -844 
L 550 -844 
L 550 4863 
z
" transform="scale(0.015625)"/>
       <path id="DejaVuSans-75" d="M 544 1381 
L 544 3500 
L 1119 3500 
L 1119 1403 
Q 1119 906 1312 657 
Q 1506 409 1894 409 
Q 2359 409 2629 706 
Q 2900 1003 2900 1516 
L 2900 3500 
L 3475 3500 
L 3475 0 
L 2900 0 
L 2900 538 
Q 2691 219 2414 64 
Q 2138 -91 1772 -91 
Q 1169 -91 856 284 
Q 544 659 544 1381 
z
M 1991 3584 
L 1991 3584 
z
" transform="scale(0.015625)"/>
       <path id="DejaVuSans-73" d="M 2834 3397 
L 2834 2853 
Q 2591 2978 2328 3040 
Q 2066 3103 1784 3103 
Q 1356 3103 1142 2972 
Q 928 2841 928 2578 
Q 928 2378 1081 2264 
Q 1234 2150 1697 2047 
L 1894 2003 
Q 2506 1872 2764 1633 
Q 3022 1394 3022 966 
Q 3022 478 2636 193 
Q 2250 -91 1575 -91 
Q 1294 -91 989 -36 
Q 684 19 347 128 
L 347 722 
Q 666 556 975 473 
Q 1284 391 1588 391 
Q 1994 391 2212 530 
Q 2431 669 2431 922 
Q 2431 1156 2273 1281 
Q 2116 1406 1581 1522 
L 1381 1569 
Q 847 1681 609 1914 
Q 372 2147 372 2553 
Q 372 3047 722 3315 
Q 1072 3584 1716 3584 
Q 2034 3584 2315 3537 
Q 2597 3491 2834 3397 
z
" transform="scale(0.015625)"/>
       <path id="DejaVuSans-63" d="M 3122 3366 
L 3122 2828 
Q 2878 2963 2633 3030 
Q 2388 3097 2138 3097 
Q 1578 3097 1268 2742 
Q 959 2388 959 1747 
Q 959 1106 1268 751 
Q 1578 397 2138 397 
Q 2388 397 2633 464 
Q 2878 531 3122 666 
L 3122 134 
Q 2881 22 2623 -34 
Q 2366 -91 2075 -91 
Q 1284 -91 818 406 
Q 353 903 353 1747 
Q 353 2603 823 3093 
Q 1294 3584 2113 3584 
Q 2378 3584 2631 3529 
Q 2884 3475 3122 3366 
z
" transform="scale(0.015625)"/>
       <path id="DejaVuSans-5d" d="M 1947 4863 
L 1947 -844 
L 622 -844 
L 622 -397 
L 1369 -397 
L 1369 4416 
L 622 4416 
L 622 4863 
L 1947 4863 
z
" transform="scale(0.015625)"/>
      </defs>
      <use xlink:href="#DejaVuSans-74"/>
      <use xlink:href="#DejaVuSans-69" x="39.208984"/>
      <use xlink:href="#DejaVuSans-6d" x="66.992188"/>
      <use xlink:href="#DejaVuSans-65" x="164.404297"/>
      <use xlink:href="#DejaVuSans-5b" x="225.927734"/>
      <use xlink:href="#DejaVuSans-75" x="264.941406"/>
      <use xlink:href="#DejaVuSans-73" x="328.320312"/>
      <use xlink:href="#DejaVuSans-65" x="380.419922"/>
      <use xlink:href="#DejaVuSans-63" x="441.943359"/>
      <use xlink:href="#DejaVuSans-5d" x="496.923828"/>
     </g>
    </g>
   </g>
   <g id="line2d_81">
    <path d="M 175.189895 368.336399 
L 214.493464 332.475806 
L 242.37979 342.619873 
L 264.010105 296.728738 
L 281.683359 296.668996 
L 296.625883 286.492023 
L 309.569685 305.893686 
L 320.986928 275.791134 
L 340.438847 265.705252 
L 348.873254 269.720215 
L 356.632156 246.645501 
L 363.815778 245.078479 
L 370.503569 240.446809 
L 376.75958 258.105064 
L 382.636199 212.515643 
L 388.176823 209.16087 
L 393.417804 203.260855 
L 398.389895 198.820007 
L 403.119347 196.090456 
L 407.628742 193.833292 
L 411.937653 193.344718 
L 416.063149 205.411839 
L 420.02021 193.921559 
L 423.822051 192.990205 
L 427.480392 193.063402 
L 431.005673 195.298531 
L 434.407233 191.931437 
L 437.693464 189.898735 
L 440.87193 188.842597 
L 443.949475 205.053929 
L 449.826094 189.386283 
L 455.366718 195.67219 
L 460.607699 185.143957 
L 465.57979 192.761788 
L 470.309242 184.614572 
L 474.818637 183.603145 
L 479.127548 180.43941 
L 483.253044 187.549587 
L 487.210105 177.867068 
L 491.011946 174.973124 
L 494.670287 172.794913 
L 498.195568 178.807962 
L 501.597128 170.002711 
L 504.883359 166.899904 
L 508.061825 165.034503 
L 511.13937 182.081778 
L 515.579896 169.155766 
L 519.825883 167.00445 
L 523.893662 173.145138 
L 527.797594 163.145978 
L 531.550367 166.405266 
L 535.163252 167.663782 
L 538.646304 154.082922 
L 542.008532 170.486051 
L 545.258039 160.507898 
L 548.402137 155.751636 
L 551.447451 165.340199 
L 555.364531 151.841435 
L 559.129452 162.90532 
L 562.753594 148.983999 
L 566.247109 159.083158 
L 569.619084 149.387874 
L 572.877695 158.461829 
L 576.030315 145.660117 
L 579.083623 157.515045 
L 582.769791 144.126778 
L 586.320903 144.033751 
L 589.746508 156.051595 
L 593.055175 132.926937 
L 596.254625 149.293492 
L 599.351838 142.733516 
L 602.353147 135.340595 
L 605.836199 146.018376 
L 609.198427 148.819816 
L 612.447934 132.765928 
L 615.592032 121.705662 
L 618.637346 136.440677 
L 622.07336 143.006356 
L 625.391736 144.804192 
L 628.600264 133.272185 
L 631.705984 127.184289 
L 634.71528 123.044143 
L 638.043831 121.486456 
L 641.26187 114.168201 
L 644.3765 114.251541 
L 647.394161 121.147028 
L 650.680392 119.266477 
L 653.858858 124.311849 
L 656.936403 134.435278 
L 660.24507 125.115028 
L 663.44452 110.679429 
L 666.541733 108.313086 
L 669.543042 128.664404 
L 672.740573 116.023052 
L 675.835987 110.345955 
L 678.835607 123.482836 
L 682.005411 107.292569 
L 685.074835 119.952378 
L 688.293902 105.407446 
L 691.409495 100.023023 
L 694.428059 119.408835 
L 697.577021 105.122275 
L 700.626899 101.080069 
L 703.791528 104.055481 
L 706.856099 109.748475 
L 710.021589 107.245814 
L 713.086968 106.086577 
L 716.241097 97.976383 
L 719.295821 84.303391 
L 722.428627 95.234251 
L 725.463347 109.743355 
L 728.566824 93.989611 
L 731.574014 91.82144 
L 734.641818 100.282924 
L 737.76182 93.459402 
L 740.784522 83.649431 
L 743.853209 92.230507 
L 746.960784 95.574915 
L 749.971822 101.405422 
L 753.017136 99.449212 
L 756.090778 96.699254 
L 759.18723 84.602046 
L 762.187824 78.012494 
L 765.208532 95.230439 
L 768.244761 67.04416 
L 771.292277 87.427449 
L 774.347189 82.883669 
L 777.405937 77.212112 
L 777.405937 77.212112 
" clip-path="url(#p9134c2b3bb)" style="fill: none; stroke: #1f77b4; stroke-width: 1.5; stroke-linecap: square"/>
   </g>
   <g id="line2d_82">
    <path d="M 175.189895 369.36 
L 214.493464 332.746387 
L 242.37979 343.392807 
L 264.010105 296.735603 
L 281.683359 296.652557 
L 296.625883 286.457342 
L 309.569685 306.762916 
L 320.986928 275.414447 
L 331.2 270.425727 
L 340.438847 265.518027 
L 348.873254 270.040699 
L 356.632156 246.928911 
L 363.815778 245.119448 
L 370.503569 240.867233 
L 376.75958 258.173786 
L 382.636199 212.544555 
L 388.176823 209.236852 
L 393.417804 203.3729 
L 398.389895 199.003459 
L 403.119347 196.150915 
L 407.628742 193.60198 
L 411.937653 193.530281 
L 416.063149 205.431728 
L 420.02021 193.940308 
L 423.822051 193.008712 
L 427.480392 193.195636 
L 431.005673 195.364895 
L 434.407233 191.895385 
L 437.693464 189.984481 
L 440.87193 188.885841 
L 443.949475 205.116771 
L 449.826094 189.489594 
L 455.366718 195.857249 
L 460.607699 185.158494 
L 465.57979 192.77187 
L 470.309242 184.5906 
L 474.818637 183.615299 
L 479.127548 180.473358 
L 483.253044 187.927702 
L 487.210105 177.993427 
L 491.011946 175.002924 
L 494.670287 172.776161 
L 498.195568 178.881099 
L 501.597128 170.094578 
L 504.883359 166.907881 
L 508.061825 165.183319 
L 511.13937 182.277663 
L 515.579896 169.183436 
L 519.825883 167.117218 
L 523.893662 173.374143 
L 527.797594 163.26026 
L 531.550367 166.411588 
L 535.163252 167.852346 
L 538.646304 154.276944 
L 542.008532 170.530516 
L 545.258039 160.468434 
L 548.402137 155.741896 
L 551.447451 165.329974 
L 555.364531 151.82803 
L 559.129452 162.869126 
L 562.753594 149.00359 
L 566.247109 159.093577 
L 569.619084 149.60609 
L 572.877695 158.424941 
L 576.030315 145.614562 
L 579.083623 157.460639 
L 582.769791 144.205582 
L 586.320903 144.110284 
L 589.746508 156.143663 
L 593.055175 132.91872 
L 596.254625 149.438122 
L 599.351838 142.58349 
L 602.353147 135.41219 
L 605.836199 145.99898 
L 609.198427 148.824941 
L 612.447934 132.829581 
L 615.592032 121.679609 
L 618.637346 136.336885 
L 622.07336 143.096085 
L 625.391736 145.135485 
L 628.600264 133.109001 
L 631.705984 127.194515 
L 634.71528 123.009313 
L 638.043831 121.636093 
L 641.26187 114.247246 
L 644.3765 114.268377 
L 647.394161 121.137128 
L 650.680392 119.404128 
L 653.858858 124.394998 
L 656.936403 134.935211 
L 660.24507 125.096373 
L 663.44452 110.81119 
L 666.541733 108.411456 
L 669.543042 128.636369 
L 672.740573 115.968895 
L 675.835987 110.471777 
L 678.835607 123.554717 
L 682.005411 107.473345 
L 685.074835 120.008102 
L 688.293902 105.501678 
L 691.409495 99.747394 
L 694.428059 119.582394 
L 697.577021 105.120011 
L 700.626899 101.366372 
L 703.791528 103.866428 
L 706.856099 109.808799 
L 710.021589 107.421409 
L 713.086968 106.302172 
L 716.241097 97.888327 
L 719.295821 84.27259 
L 722.428627 95.333477 
L 725.463347 109.786912 
L 728.566824 93.617373 
L 731.574014 91.960324 
L 734.641818 100.316612 
L 737.76182 93.634549 
L 740.784522 83.781741 
L 743.853209 92.098999 
L 746.960784 95.679552 
L 749.971822 100.954927 
L 753.017136 99.444507 
L 756.090778 96.81645 
L 759.18723 84.640978 
L 762.187824 78.071691 
L 765.208532 95.383517 
L 768.244761 67.076478 
L 771.292277 87.322259 
L 774.347189 82.95852 
L 777.405937 77.3696 
L 777.405937 77.3696 
" clip-path="url(#p9134c2b3bb)" style="fill: none; stroke: #ff7f0e; stroke-width: 1.5; stroke-linecap: square"/>
   </g>
   <g id="line2d_83">
    <path d="M 175.189895 368.443533 
L 214.493464 332.118589 
L 242.37979 342.447179 
L 264.010105 296.724162 
L 281.683359 296.77056 
L 296.625883 286.2156 
L 309.569685 305.712942 
L 320.986928 275.353842 
L 340.438847 265.624609 
L 348.873254 269.843816 
L 356.632156 246.669728 
L 363.815778 245.323847 
L 370.503569 240.778987 
L 376.75958 258.169486 
L 382.636199 212.479807 
L 388.176823 209.22307 
L 393.417804 203.254606 
L 398.389895 198.921202 
L 403.119347 196.148176 
L 407.628742 193.743546 
L 411.937653 193.352216 
L 416.063149 205.256605 
L 420.02021 194.068335 
L 423.822051 192.936567 
L 427.480392 193.188734 
L 431.005673 195.446766 
L 434.407233 192.084144 
L 437.693464 189.635222 
L 440.87193 188.821445 
L 443.949475 205.073007 
L 449.826094 189.436611 
L 455.366718 195.651629 
L 460.607699 185.124919 
L 465.57979 192.858715 
L 470.309242 184.60422 
L 474.818637 183.661193 
L 479.127548 180.448269 
L 483.253044 187.682444 
L 487.210105 177.99763 
L 491.011946 174.99994 
L 494.670287 172.731481 
L 498.195568 178.786834 
L 501.597128 169.961121 
L 504.883359 166.944243 
L 508.061825 165.106228 
L 511.13937 182.123925 
L 515.579896 169.163215 
L 519.825883 167.031439 
L 523.893662 173.101119 
L 527.797594 163.126557 
L 531.550367 166.517469 
L 535.163252 167.630914 
L 538.646304 154.026158 
L 542.008532 170.466392 
L 545.258039 160.358501 
L 548.402137 155.763334 
L 551.447451 165.229255 
L 555.364531 151.852527 
L 559.129452 162.714624 
L 562.753594 148.939378 
L 566.247109 159.062982 
L 569.619084 149.390357 
L 572.877695 158.467972 
L 576.030315 145.650716 
L 579.083623 157.669585 
L 582.769791 144.175285 
L 586.320903 144.071503 
L 589.746508 155.894505 
L 593.055175 132.926575 
L 596.254625 149.297386 
L 599.351838 142.865104 
L 602.353147 135.178444 
L 605.836199 146.065625 
L 609.198427 148.776669 
L 612.447934 132.858752 
L 615.592032 121.697095 
L 618.637346 136.471168 
L 622.07336 143.102358 
L 625.391736 144.778328 
L 628.600264 133.296165 
L 631.705984 127.155545 
L 634.71528 123.004701 
L 638.043831 121.461684 
L 641.26187 114.279513 
L 644.3765 114.488703 
L 647.394161 121.121364 
L 650.680392 119.270436 
L 653.858858 124.32464 
L 656.936403 134.716374 
L 660.24507 125.000899 
L 663.44452 110.671411 
L 666.541733 108.323316 
L 669.543042 128.460929 
L 672.740573 115.909381 
L 675.835987 110.40216 
L 678.835607 123.585652 
L 682.005411 107.339843 
L 685.074835 119.896753 
L 688.293902 105.518796 
L 691.409495 100.005998 
L 694.428059 119.34728 
L 697.577021 105.116388 
L 700.626899 101.088314 
L 703.791528 104.02086 
L 706.856099 109.746736 
L 710.021589 107.250236 
L 713.086968 106.07778 
L 716.241097 97.851164 
L 719.295821 84.372427 
L 722.428627 95.230827 
L 725.463347 109.746875 
L 728.566824 93.90107 
L 731.574014 91.854832 
L 734.641818 100.18039 
L 737.76182 93.438535 
L 740.784522 83.704014 
L 743.853209 92.064641 
L 746.960784 95.517447 
L 749.971822 101.390855 
L 753.017136 99.594078 
L 756.090778 96.654148 
L 759.18723 84.635603 
L 762.187824 77.937739 
L 765.208532 95.197102 
L 768.244761 66.96 
L 771.292277 87.479081 
L 774.347189 82.801093 
L 777.405937 77.122593 
L 777.405937 77.122593 
" clip-path="url(#p9134c2b3bb)" style="fill: none; stroke: #2ca02c; stroke-width: 1.5; stroke-linecap: square"/>
   </g>
   <g id="line2d_84">
    <path d="M 175.189895 369.203863 
L 214.493464 332.58291 
L 242.37979 343.757937 
L 264.010105 296.857135 
L 281.683359 296.765062 
L 296.625883 286.508223 
L 309.569685 306.154413 
L 320.986928 275.362195 
L 331.2 270.455493 
L 340.438847 265.525495 
L 348.873254 269.869528 
L 356.632156 246.697612 
L 363.815778 245.121933 
L 370.503569 240.802185 
L 376.75958 258.251277 
L 382.636199 219.735037 
L 388.176823 232.308585 
L 393.417804 218.496505 
L 398.389895 230.971555 
L 403.119347 196.471233 
L 407.628742 196.513547 
L 411.937653 196.392132 
L 416.063149 205.553831 
L 420.02021 194.43387 
L 423.822051 194.461396 
L 427.480392 194.342298 
L 431.005673 197.372809 
L 434.407233 193.935843 
L 437.693464 194.065099 
L 440.87193 193.894968 
L 443.949475 205.890615 
L 449.826094 191.152469 
L 455.366718 200.010078 
L 460.607699 190.765732 
L 465.57979 196.063685 
L 470.309242 189.260363 
L 474.818637 192.775057 
L 479.127548 189.40217 
L 483.253044 195.298939 
L 487.210105 187.827198 
L 491.011946 190.079681 
L 494.670287 186.800601 
L 498.195568 193.019572 
L 501.597128 185.801221 
L 504.883359 188.26086 
L 508.061825 184.433524 
L 511.13937 182.935627 
L 515.579896 174.806025 
L 519.825883 170.559705 
L 523.893662 174.288106 
L 527.797594 171.596265 
L 531.550367 172.133474 
L 535.163252 170.682502 
L 538.646304 168.975872 
L 542.008532 170.534905 
L 545.258039 162.327543 
L 548.402137 162.145403 
L 551.447451 167.102786 
L 555.364531 157.218438 
L 559.129452 164.852357 
L 562.753594 159.012932 
L 566.247109 164.200631 
L 569.619084 157.671233 
L 572.877695 160.526086 
L 576.030315 153.339151 
L 579.083623 159.385507 
L 582.769791 151.018658 
L 586.320903 155.174085 
L 589.746508 157.542953 
L 593.055175 150.941233 
L 596.254625 153.497307 
L 599.351838 146.086376 
L 602.353147 143.651985 
L 605.836199 150.947963 
L 609.198427 148.672324 
L 612.447934 145.191 
L 615.592032 146.132558 
L 618.637346 147.967161 
L 622.07336 143.448441 
L 625.391736 144.597864 
L 628.600264 143.279605 
L 631.705984 139.760619 
L 634.71528 138.648766 
L 638.043831 136.3365 
L 641.26187 135.130367 
L 644.3765 134.335887 
L 650.680392 127.45569 
L 653.858858 131.283484 
L 656.936403 134.756259 
L 660.24507 131.114753 
L 663.44452 124.630584 
L 666.541733 126.922322 
L 669.543042 129.915199 
L 672.740573 126.009581 
L 675.835987 120.156404 
L 678.835607 125.705962 
L 682.005411 118.582946 
L 685.074835 122.735504 
L 688.293902 116.74587 
L 691.409495 120.847413 
L 694.428059 120.870632 
L 697.577021 113.886304 
L 700.626899 107.476088 
L 703.791528 115.502269 
L 706.856099 115.417468 
L 710.021589 113.60678 
L 716.241097 111.375219 
L 719.295821 107.599654 
L 722.428627 105.126679 
L 725.463347 109.683736 
L 728.566824 104.078303 
L 731.574014 102.466773 
L 734.641818 105.702125 
L 737.76182 101.927597 
L 740.784522 99.581348 
L 743.853209 102.706365 
L 746.960784 102.273635 
L 749.971822 101.454035 
L 753.017136 99.54683 
L 756.090778 99.344614 
L 759.18723 94.345732 
L 762.187824 91.5098 
L 765.208532 95.289833 
L 768.244761 89.705912 
L 771.292277 94.018412 
L 774.347189 89.230227 
L 777.405937 87.228837 
L 777.405937 87.228837 
" clip-path="url(#p9134c2b3bb)" style="fill: none; stroke: #d62728; stroke-width: 1.5; stroke-linecap: square"/>
   </g>
   <g id="patch_3">
    <path d="M 108 384.48 
L 108 51.84 
" style="fill: none; stroke: #000000; stroke-width: 0.8; stroke-linejoin: miter; stroke-linecap: square"/>
   </g>
   <g id="patch_4">
    <path d="M 777.6 384.48 
L 777.6 51.84 
" style="fill: none; stroke: #000000; stroke-width: 0.8; stroke-linejoin: miter; stroke-linecap: square"/>
   </g>
   <g id="patch_5">
    <path d="M 108 384.48 
L 777.6 384.48 
" style="fill: none; stroke: #000000; stroke-width: 0.8; stroke-linejoin: miter; stroke-linecap: square"/>
   </g>
   <g id="patch_6">
    <path d="M 108 51.84 
L 777.6 51.84 
" style="fill: none; stroke: #000000; stroke-width: 0.8; stroke-linejoin: miter; stroke-linecap: square"/>
   </g>
   <g id="legend_1">
    <g id="patch_7">
     <path d="M 690.1125 379.48 
L 770.6 379.48 
Q 772.6 379.48 772.6 377.48 
L 772.6 319.7675 
Q 772.6 317.7675 770.6 317.7675 
L 690.1125 317.7675 
Q 688.1125 317.7675 688.1125 319.7675 
L 688.1125 377.48 
Q 688.1125 379.48 690.1125 379.48 
z
" style="fill: #ffffff; opacity: 0.8; stroke: #cccccc; stroke-linejoin: miter"/>
    </g>
    <g id="line2d_85">
     <path d="M 692.1125 325.865937 
L 702.1125 325.865937 
L 712.1125 325.865937 
" style="fill: none; stroke: #1f77b4; stroke-width: 1.5; stroke-linecap: square"/>
    </g>
    <g id="text_12">
     <!-- inbalance -->
     <g transform="translate(720.1125 329.365937)scale(0.1 -0.1)">
      <defs>
       <path id="DejaVuSans-6e" d="M 3513 2113 
L 3513 0 
L 2938 0 
L 2938 2094 
Q 2938 2591 2744 2837 
Q 2550 3084 2163 3084 
Q 1697 3084 1428 2787 
Q 1159 2491 1159 1978 
L 1159 0 
L 581 0 
L 581 3500 
L 1159 3500 
L 1159 2956 
Q 1366 3272 1645 3428 
Q 1925 3584 2291 3584 
Q 2894 3584 3203 3211 
Q 3513 2838 3513 2113 
z
" transform="scale(0.015625)"/>
       <path id="DejaVuSans-62" d="M 3116 1747 
Q 3116 2381 2855 2742 
Q 2594 3103 2138 3103 
Q 1681 3103 1420 2742 
Q 1159 2381 1159 1747 
Q 1159 1113 1420 752 
Q 1681 391 2138 391 
Q 2594 391 2855 752 
Q 3116 1113 3116 1747 
z
M 1159 2969 
Q 1341 3281 1617 3432 
Q 1894 3584 2278 3584 
Q 2916 3584 3314 3078 
Q 3713 2572 3713 1747 
Q 3713 922 3314 415 
Q 2916 -91 2278 -91 
Q 1894 -91 1617 61 
Q 1341 213 1159 525 
L 1159 0 
L 581 0 
L 581 4863 
L 1159 4863 
L 1159 2969 
z
" transform="scale(0.015625)"/>
       <path id="DejaVuSans-61" d="M 2194 1759 
Q 1497 1759 1228 1600 
Q 959 1441 959 1056 
Q 959 750 1161 570 
Q 1363 391 1709 391 
Q 2188 391 2477 730 
Q 2766 1069 2766 1631 
L 2766 1759 
L 2194 1759 
z
M 3341 1997 
L 3341 0 
L 2766 0 
L 2766 531 
Q 2569 213 2275 61 
Q 1981 -91 1556 -91 
Q 1019 -91 701 211 
Q 384 513 384 1019 
Q 384 1609 779 1909 
Q 1175 2209 1959 2209 
L 2766 2209 
L 2766 2266 
Q 2766 2663 2505 2880 
Q 2244 3097 1772 3097 
Q 1472 3097 1187 3025 
Q 903 2953 641 2809 
L 641 3341 
Q 956 3463 1253 3523 
Q 1550 3584 1831 3584 
Q 2591 3584 2966 3190 
Q 3341 2797 3341 1997 
z
" transform="scale(0.015625)"/>
       <path id="DejaVuSans-6c" d="M 603 4863 
L 1178 4863 
L 1178 0 
L 603 0 
L 603 4863 
z
" transform="scale(0.015625)"/>
      </defs>
      <use xlink:href="#DejaVuSans-69"/>
      <use xlink:href="#DejaVuSans-6e" x="27.783203"/>
      <use xlink:href="#DejaVuSans-62" x="91.162109"/>
      <use xlink:href="#DejaVuSans-61" x="154.638672"/>
      <use xlink:href="#DejaVuSans-6c" x="215.917969"/>
      <use xlink:href="#DejaVuSans-61" x="243.701172"/>
      <use xlink:href="#DejaVuSans-6e" x="304.980469"/>
      <use xlink:href="#DejaVuSans-63" x="368.359375"/>
      <use xlink:href="#DejaVuSans-65" x="423.339844"/>
     </g>
    </g>
    <g id="line2d_86">
     <path d="M 692.1125 340.544062 
L 702.1125 340.544062 
L 712.1125 340.544062 
" style="fill: none; stroke: #ff7f0e; stroke-width: 1.5; stroke-linecap: square"/>
    </g>
    <g id="text_13">
     <!-- ndist -->
     <g transform="translate(720.1125 344.044062)scale(0.1 -0.1)">
      <defs>
       <path id="DejaVuSans-64" d="M 2906 2969 
L 2906 4863 
L 3481 4863 
L 3481 0 
L 2906 0 
L 2906 525 
Q 2725 213 2448 61 
Q 2172 -91 1784 -91 
Q 1150 -91 751 415 
Q 353 922 353 1747 
Q 353 2572 751 3078 
Q 1150 3584 1784 3584 
Q 2172 3584 2448 3432 
Q 2725 3281 2906 2969 
z
M 947 1747 
Q 947 1113 1208 752 
Q 1469 391 1925 391 
Q 2381 391 2643 752 
Q 2906 1113 2906 1747 
Q 2906 2381 2643 2742 
Q 2381 3103 1925 3103 
Q 1469 3103 1208 2742 
Q 947 2381 947 1747 
z
" transform="scale(0.015625)"/>
      </defs>
      <use xlink:href="#DejaVuSans-6e"/>
      <use xlink:href="#DejaVuSans-64" x="63.378906"/>
      <use xlink:href="#DejaVuSans-69" x="126.855469"/>
      <use xlink:href="#DejaVuSans-73" x="154.638672"/>
      <use xlink:href="#DejaVuSans-74" x="206.738281"/>
     </g>
    </g>
    <g id="line2d_87">
     <path d="M 692.1125 355.222188 
L 702.1125 355.222188 
L 712.1125 355.222188 
" style="fill: none; stroke: #2ca02c; stroke-width: 1.5; stroke-linecap: square"/>
    </g>
    <g id="text_14">
     <!-- random -->
     <g transform="translate(720.1125 358.722188)scale(0.1 -0.1)">
      <defs>
       <path id="DejaVuSans-72" d="M 2631 2963 
Q 2534 3019 2420 3045 
Q 2306 3072 2169 3072 
Q 1681 3072 1420 2755 
Q 1159 2438 1159 1844 
L 1159 0 
L 581 0 
L 581 3500 
L 1159 3500 
L 1159 2956 
Q 1341 3275 1631 3429 
Q 1922 3584 2338 3584 
Q 2397 3584 2469 3576 
Q 2541 3569 2628 3553 
L 2631 2963 
z
" transform="scale(0.015625)"/>
       <path id="DejaVuSans-6f" d="M 1959 3097 
Q 1497 3097 1228 2736 
Q 959 2375 959 1747 
Q 959 1119 1226 758 
Q 1494 397 1959 397 
Q 2419 397 2687 759 
Q 2956 1122 2956 1747 
Q 2956 2369 2687 2733 
Q 2419 3097 1959 3097 
z
M 1959 3584 
Q 2709 3584 3137 3096 
Q 3566 2609 3566 1747 
Q 3566 888 3137 398 
Q 2709 -91 1959 -91 
Q 1206 -91 779 398 
Q 353 888 353 1747 
Q 353 2609 779 3096 
Q 1206 3584 1959 3584 
z
" transform="scale(0.015625)"/>
      </defs>
      <use xlink:href="#DejaVuSans-72"/>
      <use xlink:href="#DejaVuSans-61" x="41.113281"/>
      <use xlink:href="#DejaVuSans-6e" x="102.392578"/>
      <use xlink:href="#DejaVuSans-64" x="165.771484"/>
      <use xlink:href="#DejaVuSans-6f" x="229.248047"/>
      <use xlink:href="#DejaVuSans-6d" x="290.429688"/>
     </g>
    </g>
    <g id="line2d_88">
     <path d="M 692.1125 369.900312 
L 702.1125 369.900312 
L 712.1125 369.900312 
" style="fill: none; stroke: #d62728; stroke-width: 1.5; stroke-linecap: square"/>
    </g>
    <g id="text_15">
     <!-- reverse -->
     <g transform="translate(720.1125 373.400312)scale(0.1 -0.1)">
      <defs>
       <path id="DejaVuSans-76" d="M 191 3500 
L 800 3500 
L 1894 563 
L 2988 3500 
L 3597 3500 
L 2284 0 
L 1503 0 
L 191 3500 
z
" transform="scale(0.015625)"/>
      </defs>
      <use xlink:href="#DejaVuSans-72"/>
      <use xlink:href="#DejaVuSans-65" x="38.863281"/>
      <use xlink:href="#DejaVuSans-76" x="100.386719"/>
      <use xlink:href="#DejaVuSans-65" x="159.566406"/>
      <use xlink:href="#DejaVuSans-72" x="221.089844"/>
      <use xlink:href="#DejaVuSans-73" x="262.203125"/>
      <use xlink:href="#DejaVuSans-65" x="314.302734"/>
     </g>
    </g>
   </g>
  </g>
 </g>
 <defs>
  <clipPath id="p9134c2b3bb">
   <rect x="108" y="51.84" width="669.6" height="332.64"/>
  </clipPath>
 </defs>
</svg>
