<?xml version="1.0" encoding="utf-8" standalone="no"?>
<!DOCTYPE svg PUBLIC "-//W3C//DTD SVG 1.1//EN"
  "http://www.w3.org/Graphics/SVG/1.1/DTD/svg11.dtd">
<svg xmlns:xlink="http://www.w3.org/1999/xlink" width="864pt" height="432pt" viewBox="0 0 864 432" xmlns="http://www.w3.org/2000/svg" version="1.1">
 <metadata>
  <rdf:RDF xmlns:dc="http://purl.org/dc/elements/1.1/" xmlns:cc="http://creativecommons.org/ns#" xmlns:rdf="http://www.w3.org/1999/02/22-rdf-syntax-ns#">
   <cc:Work>
    <dc:type rdf:resource="http://purl.org/dc/dcmitype/StillImage"/>
    <dc:date>2022-05-08T16:31:21.889351</dc:date>
    <dc:format>image/svg+xml</dc:format>
    <dc:creator>
     <cc:Agent>
      <dc:title>Matplotlib v3.5.1, https://matplotlib.org/</dc:title>
     </cc:Agent>
    </dc:creator>
   </cc:Work>
  </rdf:RDF>
 </metadata>
 <defs>
  <style type="text/css">*{stroke-linejoin: round; stroke-linecap: butt}</style>
 </defs>
 <g id="figure_1">
  <g id="patch_1">
   <path d="M 0 432 
L 864 432 
L 864 0 
L 0 0 
z
" style="fill: #ffffff"/>
  </g>
  <g id="axes_1">
   <g id="patch_2">
    <path d="M 108 384.48 
L 777.6 384.48 
L 777.6 51.84 
L 108 51.84 
z
" style="fill: #ffffff"/>
   </g>
   <g id="matplotlib.axis_1">
    <g id="xtick_1">
     <g id="line2d_1">
      <path d="M 108 384.48 
L 108 51.84 
" clip-path="url(#p5a6c7e1dfc)" style="fill: none; stroke: #b0b0b0; stroke-width: 0.8; stroke-linecap: square"/>
     </g>
     <g id="line2d_2">
      <defs>
       <path id="m0a99587bb8" d="M 0 0 
L 0 3.5 
" style="stroke: #000000; stroke-width: 0.8"/>
      </defs>
      <g>
       <use xlink:href="#m0a99587bb8" x="108" y="384.48" style="stroke: #000000; stroke-width: 0.8"/>
      </g>
     </g>
     <g id="text_1">
      <!-- $\mathdefault{10^{0}}$ -->
      <g transform="translate(99.2 399.078438)scale(0.1 -0.1)">
       <defs>
        <path id="DejaVuSans-31" d="M 794 531 
L 1825 531 
L 1825 4091 
L 703 3866 
L 703 4441 
L 1819 4666 
L 2450 4666 
L 2450 531 
L 3481 531 
L 3481 0 
L 794 0 
L 794 531 
z
" transform="scale(0.015625)"/>
        <path id="DejaVuSans-30" d="M 2034 4250 
Q 1547 4250 1301 3770 
Q 1056 3291 1056 2328 
Q 1056 1369 1301 889 
Q 1547 409 2034 409 
Q 2525 409 2770 889 
Q 3016 1369 3016 2328 
Q 3016 3291 2770 3770 
Q 2525 4250 2034 4250 
z
M 2034 4750 
Q 2819 4750 3233 4129 
Q 3647 3509 3647 2328 
Q 3647 1150 3233 529 
Q 2819 -91 2034 -91 
Q 1250 -91 836 529 
Q 422 1150 422 2328 
Q 422 3509 836 4129 
Q 1250 4750 2034 4750 
z
" transform="scale(0.015625)"/>
       </defs>
       <use xlink:href="#DejaVuSans-31" transform="translate(0 0.765625)"/>
       <use xlink:href="#DejaVuSans-30" transform="translate(63.623047 0.765625)"/>
       <use xlink:href="#DejaVuSans-30" transform="translate(128.203125 39.046875)scale(0.7)"/>
      </g>
     </g>
    </g>
    <g id="xtick_2">
     <g id="line2d_3">
      <path d="M 331.2 384.48 
L 331.2 51.84 
" clip-path="url(#p5a6c7e1dfc)" style="fill: none; stroke: #b0b0b0; stroke-width: 0.8; stroke-linecap: square"/>
     </g>
     <g id="line2d_4">
      <g>
       <use xlink:href="#m0a99587bb8" x="331.2" y="384.48" style="stroke: #000000; stroke-width: 0.8"/>
      </g>
     </g>
     <g id="text_2">
      <!-- $\mathdefault{10^{1}}$ -->
      <g transform="translate(322.4 399.078438)scale(0.1 -0.1)">
       <use xlink:href="#DejaVuSans-31" transform="translate(0 0.684375)"/>
       <use xlink:href="#DejaVuSans-30" transform="translate(63.623047 0.684375)"/>
       <use xlink:href="#DejaVuSans-31" transform="translate(128.203125 38.965625)scale(0.7)"/>
      </g>
     </g>
    </g>
    <g id="xtick_3">
     <g id="line2d_5">
      <path d="M 554.4 384.48 
L 554.4 51.84 
" clip-path="url(#p5a6c7e1dfc)" style="fill: none; stroke: #b0b0b0; stroke-width: 0.8; stroke-linecap: square"/>
     </g>
     <g id="line2d_6">
      <g>
       <use xlink:href="#m0a99587bb8" x="554.4" y="384.48" style="stroke: #000000; stroke-width: 0.8"/>
      </g>
     </g>
     <g id="text_3">
      <!-- $\mathdefault{10^{2}}$ -->
      <g transform="translate(545.6 399.078438)scale(0.1 -0.1)">
       <defs>
        <path id="DejaVuSans-32" d="M 1228 531 
L 3431 531 
L 3431 0 
L 469 0 
L 469 531 
Q 828 903 1448 1529 
Q 2069 2156 2228 2338 
Q 2531 2678 2651 2914 
Q 2772 3150 2772 3378 
Q 2772 3750 2511 3984 
Q 2250 4219 1831 4219 
Q 1534 4219 1204 4116 
Q 875 4013 500 3803 
L 500 4441 
Q 881 4594 1212 4672 
Q 1544 4750 1819 4750 
Q 2544 4750 2975 4387 
Q 3406 4025 3406 3419 
Q 3406 3131 3298 2873 
Q 3191 2616 2906 2266 
Q 2828 2175 2409 1742 
Q 1991 1309 1228 531 
z
" transform="scale(0.015625)"/>
       </defs>
       <use xlink:href="#DejaVuSans-31" transform="translate(0 0.765625)"/>
       <use xlink:href="#DejaVuSans-30" transform="translate(63.623047 0.765625)"/>
       <use xlink:href="#DejaVuSans-32" transform="translate(128.203125 39.046875)scale(0.7)"/>
      </g>
     </g>
    </g>
    <g id="xtick_4">
     <g id="line2d_7">
      <path d="M 777.6 384.48 
L 777.6 51.84 
" clip-path="url(#p5a6c7e1dfc)" style="fill: none; stroke: #b0b0b0; stroke-width: 0.8; stroke-linecap: square"/>
     </g>
     <g id="line2d_8">
      <g>
       <use xlink:href="#m0a99587bb8" x="777.6" y="384.48" style="stroke: #000000; stroke-width: 0.8"/>
      </g>
     </g>
     <g id="text_4">
      <!-- $\mathdefault{10^{3}}$ -->
      <g transform="translate(768.8 399.078438)scale(0.1 -0.1)">
       <defs>
        <path id="DejaVuSans-33" d="M 2597 2516 
Q 3050 2419 3304 2112 
Q 3559 1806 3559 1356 
Q 3559 666 3084 287 
Q 2609 -91 1734 -91 
Q 1441 -91 1130 -33 
Q 819 25 488 141 
L 488 750 
Q 750 597 1062 519 
Q 1375 441 1716 441 
Q 2309 441 2620 675 
Q 2931 909 2931 1356 
Q 2931 1769 2642 2001 
Q 2353 2234 1838 2234 
L 1294 2234 
L 1294 2753 
L 1863 2753 
Q 2328 2753 2575 2939 
Q 2822 3125 2822 3475 
Q 2822 3834 2567 4026 
Q 2313 4219 1838 4219 
Q 1578 4219 1281 4162 
Q 984 4106 628 3988 
L 628 4550 
Q 988 4650 1302 4700 
Q 1616 4750 1894 4750 
Q 2613 4750 3031 4423 
Q 3450 4097 3450 3541 
Q 3450 3153 3228 2886 
Q 3006 2619 2597 2516 
z
" transform="scale(0.015625)"/>
       </defs>
       <use xlink:href="#DejaVuSans-31" transform="translate(0 0.765625)"/>
       <use xlink:href="#DejaVuSans-30" transform="translate(63.623047 0.765625)"/>
       <use xlink:href="#DejaVuSans-33" transform="translate(128.203125 39.046875)scale(0.7)"/>
      </g>
     </g>
    </g>
    <g id="xtick_5">
     <g id="line2d_9">
      <defs>
       <path id="m7b36bd7565" d="M 0 0 
L 0 2 
" style="stroke: #000000; stroke-width: 0.6"/>
      </defs>
      <g>
       <use xlink:href="#m7b36bd7565" x="175.189895" y="384.48" style="stroke: #000000; stroke-width: 0.6"/>
      </g>
     </g>
    </g>
    <g id="xtick_6">
     <g id="line2d_10">
      <g>
       <use xlink:href="#m7b36bd7565" x="214.493464" y="384.48" style="stroke: #000000; stroke-width: 0.6"/>
      </g>
     </g>
    </g>
    <g id="xtick_7">
     <g id="line2d_11">
      <g>
       <use xlink:href="#m7b36bd7565" x="242.37979" y="384.48" style="stroke: #000000; stroke-width: 0.6"/>
      </g>
     </g>
    </g>
    <g id="xtick_8">
     <g id="line2d_12">
      <g>
       <use xlink:href="#m7b36bd7565" x="264.010105" y="384.48" style="stroke: #000000; stroke-width: 0.6"/>
      </g>
     </g>
    </g>
    <g id="xtick_9">
     <g id="line2d_13">
      <g>
       <use xlink:href="#m7b36bd7565" x="281.683359" y="384.48" style="stroke: #000000; stroke-width: 0.6"/>
      </g>
     </g>
    </g>
    <g id="xtick_10">
     <g id="line2d_14">
      <g>
       <use xlink:href="#m7b36bd7565" x="296.625883" y="384.48" style="stroke: #000000; stroke-width: 0.6"/>
      </g>
     </g>
    </g>
    <g id="xtick_11">
     <g id="line2d_15">
      <g>
       <use xlink:href="#m7b36bd7565" x="309.569685" y="384.48" style="stroke: #000000; stroke-width: 0.6"/>
      </g>
     </g>
    </g>
    <g id="xtick_12">
     <g id="line2d_16">
      <g>
       <use xlink:href="#m7b36bd7565" x="320.986928" y="384.48" style="stroke: #000000; stroke-width: 0.6"/>
      </g>
     </g>
    </g>
    <g id="xtick_13">
     <g id="line2d_17">
      <g>
       <use xlink:href="#m7b36bd7565" x="398.389895" y="384.48" style="stroke: #000000; stroke-width: 0.6"/>
      </g>
     </g>
    </g>
    <g id="xtick_14">
     <g id="line2d_18">
      <g>
       <use xlink:href="#m7b36bd7565" x="437.693464" y="384.48" style="stroke: #000000; stroke-width: 0.6"/>
      </g>
     </g>
    </g>
    <g id="xtick_15">
     <g id="line2d_19">
      <g>
       <use xlink:href="#m7b36bd7565" x="465.57979" y="384.48" style="stroke: #000000; stroke-width: 0.6"/>
      </g>
     </g>
    </g>
    <g id="xtick_16">
     <g id="line2d_20">
      <g>
       <use xlink:href="#m7b36bd7565" x="487.210105" y="384.48" style="stroke: #000000; stroke-width: 0.6"/>
      </g>
     </g>
    </g>
    <g id="xtick_17">
     <g id="line2d_21">
      <g>
       <use xlink:href="#m7b36bd7565" x="504.883359" y="384.48" style="stroke: #000000; stroke-width: 0.6"/>
      </g>
     </g>
    </g>
    <g id="xtick_18">
     <g id="line2d_22">
      <g>
       <use xlink:href="#m7b36bd7565" x="519.825883" y="384.48" style="stroke: #000000; stroke-width: 0.6"/>
      </g>
     </g>
    </g>
    <g id="xtick_19">
     <g id="line2d_23">
      <g>
       <use xlink:href="#m7b36bd7565" x="532.769685" y="384.48" style="stroke: #000000; stroke-width: 0.6"/>
      </g>
     </g>
    </g>
    <g id="xtick_20">
     <g id="line2d_24">
      <g>
       <use xlink:href="#m7b36bd7565" x="544.186928" y="384.48" style="stroke: #000000; stroke-width: 0.6"/>
      </g>
     </g>
    </g>
    <g id="xtick_21">
     <g id="line2d_25">
      <g>
       <use xlink:href="#m7b36bd7565" x="621.589895" y="384.48" style="stroke: #000000; stroke-width: 0.6"/>
      </g>
     </g>
    </g>
    <g id="xtick_22">
     <g id="line2d_26">
      <g>
       <use xlink:href="#m7b36bd7565" x="660.893464" y="384.48" style="stroke: #000000; stroke-width: 0.6"/>
      </g>
     </g>
    </g>
    <g id="xtick_23">
     <g id="line2d_27">
      <g>
       <use xlink:href="#m7b36bd7565" x="688.77979" y="384.48" style="stroke: #000000; stroke-width: 0.6"/>
      </g>
     </g>
    </g>
    <g id="xtick_24">
     <g id="line2d_28">
      <g>
       <use xlink:href="#m7b36bd7565" x="710.410105" y="384.48" style="stroke: #000000; stroke-width: 0.6"/>
      </g>
     </g>
    </g>
    <g id="xtick_25">
     <g id="line2d_29">
      <g>
       <use xlink:href="#m7b36bd7565" x="728.083359" y="384.48" style="stroke: #000000; stroke-width: 0.6"/>
      </g>
     </g>
    </g>
    <g id="xtick_26">
     <g id="line2d_30">
      <g>
       <use xlink:href="#m7b36bd7565" x="743.025883" y="384.48" style="stroke: #000000; stroke-width: 0.6"/>
      </g>
     </g>
    </g>
    <g id="xtick_27">
     <g id="line2d_31">
      <g>
       <use xlink:href="#m7b36bd7565" x="755.969685" y="384.48" style="stroke: #000000; stroke-width: 0.6"/>
      </g>
     </g>
    </g>
    <g id="xtick_28">
     <g id="line2d_32">
      <g>
       <use xlink:href="#m7b36bd7565" x="767.386928" y="384.48" style="stroke: #000000; stroke-width: 0.6"/>
      </g>
     </g>
    </g>
    <g id="text_5">
     <!-- N -->
     <g transform="translate(439.059375 412.756563)scale(0.1 -0.1)">
      <defs>
       <path id="DejaVuSans-4e" d="M 628 4666 
L 1478 4666 
L 3547 763 
L 3547 4666 
L 4159 4666 
L 4159 0 
L 3309 0 
L 1241 3903 
L 1241 0 
L 628 0 
L 628 4666 
z
" transform="scale(0.015625)"/>
      </defs>
      <use xlink:href="#DejaVuSans-4e"/>
     </g>
    </g>
   </g>
   <g id="matplotlib.axis_2">
    <g id="ytick_1">
     <g id="line2d_33">
      <path d="M 108 376.782303 
L 777.6 376.782303 
" clip-path="url(#p5a6c7e1dfc)" style="fill: none; stroke: #b0b0b0; stroke-width: 0.8; stroke-linecap: square"/>
     </g>
     <g id="line2d_34">
      <defs>
       <path id="m1a608117af" d="M 0 0 
L -3.5 0 
" style="stroke: #000000; stroke-width: 0.8"/>
      </defs>
      <g>
       <use xlink:href="#m1a608117af" x="108" y="376.782303" style="stroke: #000000; stroke-width: 0.8"/>
      </g>
     </g>
     <g id="text_6">
      <!-- $\mathdefault{10^{-3}}$ -->
      <g transform="translate(77.5 380.581522)scale(0.1 -0.1)">
       <defs>
        <path id="DejaVuSans-2212" d="M 678 2272 
L 4684 2272 
L 4684 1741 
L 678 1741 
L 678 2272 
z
" transform="scale(0.015625)"/>
       </defs>
       <use xlink:href="#DejaVuSans-31" transform="translate(0 0.765625)"/>
       <use xlink:href="#DejaVuSans-30" transform="translate(63.623047 0.765625)"/>
       <use xlink:href="#DejaVuSans-2212" transform="translate(128.203125 39.046875)scale(0.7)"/>
       <use xlink:href="#DejaVuSans-33" transform="translate(186.855469 39.046875)scale(0.7)"/>
      </g>
     </g>
    </g>
    <g id="ytick_2">
     <g id="line2d_35">
      <path d="M 108 298.587041 
L 777.6 298.587041 
" clip-path="url(#p5a6c7e1dfc)" style="fill: none; stroke: #b0b0b0; stroke-width: 0.8; stroke-linecap: square"/>
     </g>
     <g id="line2d_36">
      <g>
       <use xlink:href="#m1a608117af" x="108" y="298.587041" style="stroke: #000000; stroke-width: 0.8"/>
      </g>
     </g>
     <g id="text_7">
      <!-- $\mathdefault{10^{-2}}$ -->
      <g transform="translate(77.5 302.38626)scale(0.1 -0.1)">
       <use xlink:href="#DejaVuSans-31" transform="translate(0 0.765625)"/>
       <use xlink:href="#DejaVuSans-30" transform="translate(63.623047 0.765625)"/>
       <use xlink:href="#DejaVuSans-2212" transform="translate(128.203125 39.046875)scale(0.7)"/>
       <use xlink:href="#DejaVuSans-32" transform="translate(186.855469 39.046875)scale(0.7)"/>
      </g>
     </g>
    </g>
    <g id="ytick_3">
     <g id="line2d_37">
      <path d="M 108 220.391779 
L 777.6 220.391779 
" clip-path="url(#p5a6c7e1dfc)" style="fill: none; stroke: #b0b0b0; stroke-width: 0.8; stroke-linecap: square"/>
     </g>
     <g id="line2d_38">
      <g>
       <use xlink:href="#m1a608117af" x="108" y="220.391779" style="stroke: #000000; stroke-width: 0.8"/>
      </g>
     </g>
     <g id="text_8">
      <!-- $\mathdefault{10^{-1}}$ -->
      <g transform="translate(77.5 224.190998)scale(0.1 -0.1)">
       <use xlink:href="#DejaVuSans-31" transform="translate(0 0.684375)"/>
       <use xlink:href="#DejaVuSans-30" transform="translate(63.623047 0.684375)"/>
       <use xlink:href="#DejaVuSans-2212" transform="translate(128.203125 38.965625)scale(0.7)"/>
       <use xlink:href="#DejaVuSans-31" transform="translate(186.855469 38.965625)scale(0.7)"/>
      </g>
     </g>
    </g>
    <g id="ytick_4">
     <g id="line2d_39">
      <path d="M 108 142.196517 
L 777.6 142.196517 
" clip-path="url(#p5a6c7e1dfc)" style="fill: none; stroke: #b0b0b0; stroke-width: 0.8; stroke-linecap: square"/>
     </g>
     <g id="line2d_40">
      <g>
       <use xlink:href="#m1a608117af" x="108" y="142.196517" style="stroke: #000000; stroke-width: 0.8"/>
      </g>
     </g>
     <g id="text_9">
      <!-- $\mathdefault{10^{0}}$ -->
      <g transform="translate(83.4 145.995735)scale(0.1 -0.1)">
       <use xlink:href="#DejaVuSans-31" transform="translate(0 0.765625)"/>
       <use xlink:href="#DejaVuSans-30" transform="translate(63.623047 0.765625)"/>
       <use xlink:href="#DejaVuSans-30" transform="translate(128.203125 39.046875)scale(0.7)"/>
      </g>
     </g>
    </g>
    <g id="ytick_5">
     <g id="line2d_41">
      <path d="M 108 64.001254 
L 777.6 64.001254 
" clip-path="url(#p5a6c7e1dfc)" style="fill: none; stroke: #b0b0b0; stroke-width: 0.8; stroke-linecap: square"/>
     </g>
     <g id="line2d_42">
      <g>
       <use xlink:href="#m1a608117af" x="108" y="64.001254" style="stroke: #000000; stroke-width: 0.8"/>
      </g>
     </g>
     <g id="text_10">
      <!-- $\mathdefault{10^{1}}$ -->
      <g transform="translate(83.4 67.800473)scale(0.1 -0.1)">
       <use xlink:href="#DejaVuSans-31" transform="translate(0 0.684375)"/>
       <use xlink:href="#DejaVuSans-30" transform="translate(63.623047 0.684375)"/>
       <use xlink:href="#DejaVuSans-31" transform="translate(128.203125 38.965625)scale(0.7)"/>
      </g>
     </g>
    </g>
    <g id="ytick_6">
     <g id="line2d_43">
      <defs>
       <path id="m3a5441342c" d="M 0 0 
L -2 0 
" style="stroke: #000000; stroke-width: 0.6"/>
      </defs>
      <g>
       <use xlink:href="#m3a5441342c" x="108" y="384.360207" style="stroke: #000000; stroke-width: 0.6"/>
      </g>
     </g>
    </g>
    <g id="ytick_7">
     <g id="line2d_44">
      <g>
       <use xlink:href="#m3a5441342c" x="108" y="380.360322" style="stroke: #000000; stroke-width: 0.6"/>
      </g>
     </g>
    </g>
    <g id="ytick_8">
     <g id="line2d_45">
      <g>
       <use xlink:href="#m3a5441342c" x="108" y="353.243184" style="stroke: #000000; stroke-width: 0.6"/>
      </g>
     </g>
    </g>
    <g id="ytick_9">
     <g id="line2d_46">
      <g>
       <use xlink:href="#m3a5441342c" x="108" y="339.473682" style="stroke: #000000; stroke-width: 0.6"/>
      </g>
     </g>
    </g>
    <g id="ytick_10">
     <g id="line2d_47">
      <g>
       <use xlink:href="#m3a5441342c" x="108" y="329.704064" style="stroke: #000000; stroke-width: 0.6"/>
      </g>
     </g>
    </g>
    <g id="ytick_11">
     <g id="line2d_48">
      <g>
       <use xlink:href="#m3a5441342c" x="108" y="322.12616" style="stroke: #000000; stroke-width: 0.6"/>
      </g>
     </g>
    </g>
    <g id="ytick_12">
     <g id="line2d_49">
      <g>
       <use xlink:href="#m3a5441342c" x="108" y="315.934562" style="stroke: #000000; stroke-width: 0.6"/>
      </g>
     </g>
    </g>
    <g id="ytick_13">
     <g id="line2d_50">
      <g>
       <use xlink:href="#m3a5441342c" x="108" y="310.69964" style="stroke: #000000; stroke-width: 0.6"/>
      </g>
     </g>
    </g>
    <g id="ytick_14">
     <g id="line2d_51">
      <g>
       <use xlink:href="#m3a5441342c" x="108" y="306.164945" style="stroke: #000000; stroke-width: 0.6"/>
      </g>
     </g>
    </g>
    <g id="ytick_15">
     <g id="line2d_52">
      <g>
       <use xlink:href="#m3a5441342c" x="108" y="302.16506" style="stroke: #000000; stroke-width: 0.6"/>
      </g>
     </g>
    </g>
    <g id="ytick_16">
     <g id="line2d_53">
      <g>
       <use xlink:href="#m3a5441342c" x="108" y="275.047922" style="stroke: #000000; stroke-width: 0.6"/>
      </g>
     </g>
    </g>
    <g id="ytick_17">
     <g id="line2d_54">
      <g>
       <use xlink:href="#m3a5441342c" x="108" y="261.278419" style="stroke: #000000; stroke-width: 0.6"/>
      </g>
     </g>
    </g>
    <g id="ytick_18">
     <g id="line2d_55">
      <g>
       <use xlink:href="#m3a5441342c" x="108" y="251.508802" style="stroke: #000000; stroke-width: 0.6"/>
      </g>
     </g>
    </g>
    <g id="ytick_19">
     <g id="line2d_56">
      <g>
       <use xlink:href="#m3a5441342c" x="108" y="243.930898" style="stroke: #000000; stroke-width: 0.6"/>
      </g>
     </g>
    </g>
    <g id="ytick_20">
     <g id="line2d_57">
      <g>
       <use xlink:href="#m3a5441342c" x="108" y="237.7393" style="stroke: #000000; stroke-width: 0.6"/>
      </g>
     </g>
    </g>
    <g id="ytick_21">
     <g id="line2d_58">
      <g>
       <use xlink:href="#m3a5441342c" x="108" y="232.504378" style="stroke: #000000; stroke-width: 0.6"/>
      </g>
     </g>
    </g>
    <g id="ytick_22">
     <g id="line2d_59">
      <g>
       <use xlink:href="#m3a5441342c" x="108" y="227.969683" style="stroke: #000000; stroke-width: 0.6"/>
      </g>
     </g>
    </g>
    <g id="ytick_23">
     <g id="line2d_60">
      <g>
       <use xlink:href="#m3a5441342c" x="108" y="223.969798" style="stroke: #000000; stroke-width: 0.6"/>
      </g>
     </g>
    </g>
    <g id="ytick_24">
     <g id="line2d_61">
      <g>
       <use xlink:href="#m3a5441342c" x="108" y="196.852659" style="stroke: #000000; stroke-width: 0.6"/>
      </g>
     </g>
    </g>
    <g id="ytick_25">
     <g id="line2d_62">
      <g>
       <use xlink:href="#m3a5441342c" x="108" y="183.083157" style="stroke: #000000; stroke-width: 0.6"/>
      </g>
     </g>
    </g>
    <g id="ytick_26">
     <g id="line2d_63">
      <g>
       <use xlink:href="#m3a5441342c" x="108" y="173.31354" style="stroke: #000000; stroke-width: 0.6"/>
      </g>
     </g>
    </g>
    <g id="ytick_27">
     <g id="line2d_64">
      <g>
       <use xlink:href="#m3a5441342c" x="108" y="165.735636" style="stroke: #000000; stroke-width: 0.6"/>
      </g>
     </g>
    </g>
    <g id="ytick_28">
     <g id="line2d_65">
      <g>
       <use xlink:href="#m3a5441342c" x="108" y="159.544038" style="stroke: #000000; stroke-width: 0.6"/>
      </g>
     </g>
    </g>
    <g id="ytick_29">
     <g id="line2d_66">
      <g>
       <use xlink:href="#m3a5441342c" x="108" y="154.309116" style="stroke: #000000; stroke-width: 0.6"/>
      </g>
     </g>
    </g>
    <g id="ytick_30">
     <g id="line2d_67">
      <g>
       <use xlink:href="#m3a5441342c" x="108" y="149.77442" style="stroke: #000000; stroke-width: 0.6"/>
      </g>
     </g>
    </g>
    <g id="ytick_31">
     <g id="line2d_68">
      <g>
       <use xlink:href="#m3a5441342c" x="108" y="145.774536" style="stroke: #000000; stroke-width: 0.6"/>
      </g>
     </g>
    </g>
    <g id="ytick_32">
     <g id="line2d_69">
      <g>
       <use xlink:href="#m3a5441342c" x="108" y="118.657397" style="stroke: #000000; stroke-width: 0.6"/>
      </g>
     </g>
    </g>
    <g id="ytick_33">
     <g id="line2d_70">
      <g>
       <use xlink:href="#m3a5441342c" x="108" y="104.887895" style="stroke: #000000; stroke-width: 0.6"/>
      </g>
     </g>
    </g>
    <g id="ytick_34">
     <g id="line2d_71">
      <g>
       <use xlink:href="#m3a5441342c" x="108" y="95.118278" style="stroke: #000000; stroke-width: 0.6"/>
      </g>
     </g>
    </g>
    <g id="ytick_35">
     <g id="line2d_72">
      <g>
       <use xlink:href="#m3a5441342c" x="108" y="87.540374" style="stroke: #000000; stroke-width: 0.6"/>
      </g>
     </g>
    </g>
    <g id="ytick_36">
     <g id="line2d_73">
      <g>
       <use xlink:href="#m3a5441342c" x="108" y="81.348775" style="stroke: #000000; stroke-width: 0.6"/>
      </g>
     </g>
    </g>
    <g id="ytick_37">
     <g id="line2d_74">
      <g>
       <use xlink:href="#m3a5441342c" x="108" y="76.113854" style="stroke: #000000; stroke-width: 0.6"/>
      </g>
     </g>
    </g>
    <g id="ytick_38">
     <g id="line2d_75">
      <g>
       <use xlink:href="#m3a5441342c" x="108" y="71.579158" style="stroke: #000000; stroke-width: 0.6"/>
      </g>
     </g>
    </g>
    <g id="ytick_39">
     <g id="line2d_76">
      <g>
       <use xlink:href="#m3a5441342c" x="108" y="67.579273" style="stroke: #000000; stroke-width: 0.6"/>
      </g>
     </g>
    </g>
    <g id="text_11">
     <!-- time[usec] -->
     <g transform="translate(71.420312 244.956875)rotate(-90)scale(0.1 -0.1)">
      <defs>
       <path id="DejaVuSans-74" d="M 1172 4494 
L 1172 3500 
L 2356 3500 
L 2356 3053 
L 1172 3053 
L 1172 1153 
Q 1172 725 1289 603 
Q 1406 481 1766 481 
L 2356 481 
L 2356 0 
L 1766 0 
Q 1100 0 847 248 
Q 594 497 594 1153 
L 594 3053 
L 172 3053 
L 172 3500 
L 594 3500 
L 594 4494 
L 1172 4494 
z
" transform="scale(0.015625)"/>
       <path id="DejaVuSans-69" d="M 603 3500 
L 1178 3500 
L 1178 0 
L 603 0 
L 603 3500 
z
M 603 4863 
L 1178 4863 
L 1178 4134 
L 603 4134 
L 603 4863 
z
" transform="scale(0.015625)"/>
       <path id="DejaVuSans-6d" d="M 3328 2828 
Q 3544 3216 3844 3400 
Q 4144 3584 4550 3584 
Q 5097 3584 5394 3201 
Q 5691 2819 5691 2113 
L 5691 0 
L 5113 0 
L 5113 2094 
Q 5113 2597 4934 2840 
Q 4756 3084 4391 3084 
Q 3944 3084 3684 2787 
Q 3425 2491 3425 1978 
L 3425 0 
L 2847 0 
L 2847 2094 
Q 2847 2600 2669 2842 
Q 2491 3084 2119 3084 
Q 1678 3084 1418 2786 
Q 1159 2488 1159 1978 
L 1159 0 
L 581 0 
L 581 3500 
L 1159 3500 
L 1159 2956 
Q 1356 3278 1631 3431 
Q 1906 3584 2284 3584 
Q 2666 3584 2933 3390 
Q 3200 3197 3328 2828 
z
" transform="scale(0.015625)"/>
       <path id="DejaVuSans-65" d="M 3597 1894 
L 3597 1613 
L 953 1613 
Q 991 1019 1311 708 
Q 1631 397 2203 397 
Q 2534 397 2845 478 
Q 3156 559 3463 722 
L 3463 178 
Q 3153 47 2828 -22 
Q 2503 -91 2169 -91 
Q 1331 -91 842 396 
Q 353 884 353 1716 
Q 353 2575 817 3079 
Q 1281 3584 2069 3584 
Q 2775 3584 3186 3129 
Q 3597 2675 3597 1894 
z
M 3022 2063 
Q 3016 2534 2758 2815 
Q 2500 3097 2075 3097 
Q 1594 3097 1305 2825 
Q 1016 2553 972 2059 
L 3022 2063 
z
" transform="scale(0.015625)"/>
       <path id="DejaVuSans-5b" d="M 550 4863 
L 1875 4863 
L 1875 4416 
L 1125 4416 
L 1125 -397 
L 1875 -397 
L 1875 -844 
L 550 -844 
L 550 4863 
z
" transform="scale(0.015625)"/>
       <path id="DejaVuSans-75" d="M 544 1381 
L 544 3500 
L 1119 3500 
L 1119 1403 
Q 1119 906 1312 657 
Q 1506 409 1894 409 
Q 2359 409 2629 706 
Q 2900 1003 2900 1516 
L 2900 3500 
L 3475 3500 
L 3475 0 
L 2900 0 
L 2900 538 
Q 2691 219 2414 64 
Q 2138 -91 1772 -91 
Q 1169 -91 856 284 
Q 544 659 544 1381 
z
M 1991 3584 
L 1991 3584 
z
" transform="scale(0.015625)"/>
       <path id="DejaVuSans-73" d="M 2834 3397 
L 2834 2853 
Q 2591 2978 2328 3040 
Q 2066 3103 1784 3103 
Q 1356 3103 1142 2972 
Q 928 2841 928 2578 
Q 928 2378 1081 2264 
Q 1234 2150 1697 2047 
L 1894 2003 
Q 2506 1872 2764 1633 
Q 3022 1394 3022 966 
Q 3022 478 2636 193 
Q 2250 -91 1575 -91 
Q 1294 -91 989 -36 
Q 684 19 347 128 
L 347 722 
Q 666 556 975 473 
Q 1284 391 1588 391 
Q 1994 391 2212 530 
Q 2431 669 2431 922 
Q 2431 1156 2273 1281 
Q 2116 1406 1581 1522 
L 1381 1569 
Q 847 1681 609 1914 
Q 372 2147 372 2553 
Q 372 3047 722 3315 
Q 1072 3584 1716 3584 
Q 2034 3584 2315 3537 
Q 2597 3491 2834 3397 
z
" transform="scale(0.015625)"/>
       <path id="DejaVuSans-63" d="M 3122 3366 
L 3122 2828 
Q 2878 2963 2633 3030 
Q 2388 3097 2138 3097 
Q 1578 3097 1268 2742 
Q 959 2388 959 1747 
Q 959 1106 1268 751 
Q 1578 397 2138 397 
Q 2388 397 2633 464 
Q 2878 531 3122 666 
L 3122 134 
Q 2881 22 2623 -34 
Q 2366 -91 2075 -91 
Q 1284 -91 818 406 
Q 353 903 353 1747 
Q 353 2603 823 3093 
Q 1294 3584 2113 3584 
Q 2378 3584 2631 3529 
Q 2884 3475 3122 3366 
z
" transform="scale(0.015625)"/>
       <path id="DejaVuSans-5d" d="M 1947 4863 
L 1947 -844 
L 622 -844 
L 622 -397 
L 1369 -397 
L 1369 4416 
L 622 4416 
L 622 4863 
L 1947 4863 
z
" transform="scale(0.015625)"/>
      </defs>
      <use xlink:href="#DejaVuSans-74"/>
      <use xlink:href="#DejaVuSans-69" x="39.208984"/>
      <use xlink:href="#DejaVuSans-6d" x="66.992188"/>
      <use xlink:href="#DejaVuSans-65" x="164.404297"/>
      <use xlink:href="#DejaVuSans-5b" x="225.927734"/>
      <use xlink:href="#DejaVuSans-75" x="264.941406"/>
      <use xlink:href="#DejaVuSans-73" x="328.320312"/>
      <use xlink:href="#DejaVuSans-65" x="380.419922"/>
      <use xlink:href="#DejaVuSans-63" x="441.943359"/>
      <use xlink:href="#DejaVuSans-5d" x="496.923828"/>
     </g>
    </g>
   </g>
   <g id="line2d_77">
    <path d="M 175.189895 368.555696 
L 214.493464 330.582429 
L 242.37979 343.879252 
L 264.010105 306.309277 
L 281.683359 285.340408 
L 296.625883 275.137736 
L 309.569685 297.278447 
L 320.986928 269.908789 
L 331.2 263.53812 
L 340.438847 254.963762 
L 348.873254 259.108757 
L 356.632156 236.180452 
L 363.815778 235.337454 
L 370.503569 230.783583 
L 376.75958 235.453721 
L 382.636199 211.129907 
L 388.176823 219.411963 
L 393.417804 206.078693 
L 398.389895 218.12586 
L 403.119347 206.852046 
L 407.628742 204.831485 
L 411.937653 198.349951 
L 416.063149 214.400689 
L 420.02021 201.03444 
L 423.822051 197.57992 
L 427.480392 197.037966 
L 431.005673 209.161823 
L 434.407233 196.761212 
L 437.693464 191.171916 
L 440.87193 191.712755 
L 443.949475 199.206732 
L 449.826094 191.409454 
L 455.366718 194.988324 
L 460.607699 188.560509 
L 465.57979 189.230152 
L 470.309242 185.720916 
L 474.818637 187.707185 
L 479.127548 181.255243 
L 483.253044 189.847166 
L 487.210105 180.795405 
L 491.011946 181.913541 
L 494.670287 177.278348 
L 498.195568 180.63677 
L 501.597128 174.994165 
L 504.883359 180.376473 
L 508.061825 170.573261 
L 511.13937 180.203497 
L 515.579896 168.422524 
L 519.825883 166.164963 
L 523.893662 168.94058 
L 527.797594 169.175037 
L 531.550367 162.060647 
L 535.163252 160.177039 
L 538.646304 165.286987 
L 542.008532 161.536948 
L 545.258039 155.743224 
L 548.402137 156.758339 
L 551.447451 159.58937 
L 559.129452 157.062162 
L 562.753594 155.747063 
L 566.247109 154.33184 
L 569.619084 151.265158 
L 572.877695 149.632512 
L 576.030315 149.773944 
L 579.083623 148.843905 
L 582.769791 140.911936 
L 586.320903 141.405277 
L 589.746508 149.579426 
L 593.055175 143.960506 
L 596.254625 135.661524 
L 599.351838 135.785376 
L 602.353147 140.266335 
L 605.836199 133.971385 
L 609.198427 140.577626 
L 612.447934 129.399898 
L 615.592032 138.532549 
L 618.637346 128.160099 
L 622.07336 129.885679 
L 625.391736 132.925395 
L 628.600264 124.588254 
L 631.705984 123.57367 
L 634.71528 126.739085 
L 641.26187 125.186422 
L 644.3765 123.457018 
L 647.394161 119.834607 
L 650.680392 115.144712 
L 653.858858 114.800763 
L 656.936403 119.051565 
L 660.24507 110.222768 
L 663.44452 119.172401 
L 666.541733 108.977268 
L 669.543042 115.808857 
L 672.740573 105.838928 
L 675.835987 105.600882 
L 678.835607 109.372169 
L 682.005411 108.315066 
L 685.074835 107.761732 
L 688.293902 100.377125 
L 691.409495 101.250221 
L 694.428059 106.504762 
L 697.577021 97.258314 
L 700.626899 101.661413 
L 703.791528 96.419125 
L 706.856099 95.372696 
L 710.021589 91.892759 
L 713.086968 90.627602 
L 716.241097 91.629038 
L 719.295821 97.576793 
L 722.428627 88.419905 
L 725.463347 92.660877 
L 728.566824 88.335115 
L 731.574014 86.63545 
L 734.641818 85.325551 
L 737.76182 83.256162 
L 740.784522 90.911806 
L 743.853209 80.504367 
L 746.960784 85.428708 
L 749.971822 83.427186 
L 753.017136 82.118504 
L 756.090778 81.080849 
L 759.18723 76.133589 
L 762.187824 79.38972 
L 765.208532 81.844828 
L 768.244761 80.689982 
L 771.292277 76.305553 
L 774.347189 68.683609 
L 777.405937 67.223354 
L 777.405937 67.223354 
" clip-path="url(#p5a6c7e1dfc)" style="fill: none; stroke: #1f77b4; stroke-width: 1.5; stroke-linecap: square"/>
   </g>
   <g id="line2d_78">
    <path d="M 175.189895 369.36 
L 214.493464 331.016927 
L 242.37979 343.999138 
L 264.010105 309.071627 
L 281.683359 285.367524 
L 296.625883 275.127098 
L 309.569685 297.914548 
L 320.986928 270.179618 
L 331.2 263.685353 
L 340.438847 254.969301 
L 348.873254 259.128105 
L 356.632156 236.140943 
L 363.815778 235.24726 
L 370.503569 230.899901 
L 376.75958 235.454477 
L 382.636199 211.131902 
L 388.176823 219.147863 
L 393.417804 206.250367 
L 398.389895 218.122456 
L 403.119347 206.847764 
L 407.628742 204.967176 
L 411.937653 198.471158 
L 416.063149 214.448915 
L 420.02021 201.113815 
L 423.822051 197.66742 
L 427.480392 197.040454 
L 431.005673 209.22165 
L 434.407233 196.760336 
L 437.693464 191.228523 
L 440.87193 191.969852 
L 443.949475 199.357857 
L 449.826094 191.419995 
L 455.366718 195.203404 
L 460.607699 188.860154 
L 465.57979 189.335938 
L 470.309242 185.765429 
L 474.818637 187.75614 
L 479.127548 181.104896 
L 483.253044 190.013945 
L 487.210105 180.765654 
L 491.011946 181.904902 
L 494.670287 177.670296 
L 498.195568 180.620437 
L 501.597128 175.040881 
L 504.883359 180.344007 
L 508.061825 170.725791 
L 511.13937 180.137597 
L 515.579896 168.503973 
L 519.825883 166.161954 
L 523.893662 168.965405 
L 527.797594 169.102678 
L 531.550367 162.394643 
L 535.163252 160.109556 
L 538.646304 165.311415 
L 542.008532 161.550646 
L 545.258039 155.769549 
L 548.402137 157.139049 
L 551.447451 159.621785 
L 555.364531 158.502501 
L 559.129452 157.061662 
L 566.247109 154.790543 
L 569.619084 151.227634 
L 572.877695 149.376753 
L 576.030315 149.776789 
L 579.083623 148.770707 
L 582.769791 140.774109 
L 586.320903 141.561691 
L 589.746508 149.848088 
L 593.055175 144.105508 
L 596.254625 135.846174 
L 599.351838 135.91582 
L 602.353147 140.509618 
L 605.836199 134.259132 
L 609.198427 140.602671 
L 612.447934 129.516362 
L 615.592032 138.511073 
L 618.637346 128.363908 
L 622.07336 129.928559 
L 625.391736 132.907159 
L 628.600264 124.773962 
L 631.705984 123.792673 
L 634.71528 126.744809 
L 641.26187 125.191412 
L 644.3765 123.420793 
L 647.394161 119.998529 
L 650.680392 115.139917 
L 653.858858 114.84459 
L 656.936403 119.202614 
L 660.24507 110.088384 
L 663.44452 119.157222 
L 666.541733 108.980533 
L 669.543042 115.8084 
L 672.740573 105.784311 
L 675.835987 105.544891 
L 678.835607 109.364262 
L 682.005411 108.293374 
L 685.074835 107.815179 
L 688.293902 100.4018 
L 691.409495 101.287195 
L 694.428059 106.549743 
L 697.577021 97.250885 
L 700.626899 101.753459 
L 703.791528 96.399632 
L 706.856099 95.039001 
L 710.021589 91.968735 
L 713.086968 90.711709 
L 716.241097 91.733124 
L 719.295821 97.740383 
L 722.428627 88.407916 
L 725.463347 92.586735 
L 728.566824 88.327999 
L 731.574014 86.470186 
L 734.641818 85.336863 
L 737.76182 83.317206 
L 740.784522 90.907214 
L 743.853209 80.50193 
L 746.960784 85.427044 
L 749.971822 83.466055 
L 753.017136 82.112888 
L 756.090778 81.018214 
L 759.18723 76.055429 
L 762.187824 79.334314 
L 765.208532 81.883243 
L 768.244761 80.687274 
L 771.292277 76.227113 
L 774.347189 68.585322 
L 777.405937 67.101885 
L 777.405937 67.101885 
" clip-path="url(#p5a6c7e1dfc)" style="fill: none; stroke: #ff7f0e; stroke-width: 1.5; stroke-linecap: square"/>
   </g>
   <g id="line2d_79">
    <path d="M 175.189895 368.933802 
L 214.493464 330.298907 
L 242.37979 343.038227 
L 264.010105 309.380628 
L 281.683359 285.075389 
L 296.625883 275.043168 
L 309.569685 296.085949 
L 320.986928 269.926386 
L 331.2 263.42273 
L 340.438847 254.894597 
L 348.873254 258.965698 
L 356.632156 236.431746 
L 363.815778 235.233457 
L 370.503569 230.833652 
L 376.75958 235.547587 
L 382.636199 211.112664 
L 388.176823 219.456534 
L 393.417804 206.268222 
L 398.389895 218.149126 
L 403.119347 206.928213 
L 407.628742 204.99811 
L 411.937653 198.329183 
L 416.063149 214.544346 
L 420.02021 201.367435 
L 423.822051 197.697311 
L 427.480392 197.071347 
L 431.005673 209.219206 
L 434.407233 196.772185 
L 437.693464 191.154606 
L 440.87193 191.806605 
L 443.949475 199.218693 
L 449.826094 191.291098 
L 455.366718 195.186251 
L 460.607699 188.641387 
L 465.57979 189.225307 
L 470.309242 185.793945 
L 474.818637 187.735733 
L 479.127548 181.23058 
L 483.253044 190.005021 
L 487.210105 180.813834 
L 491.011946 181.930294 
L 494.670287 177.456415 
L 498.195568 180.410507 
L 501.597128 175.055678 
L 504.883359 180.309329 
L 508.061825 170.477139 
L 511.13937 180.050522 
L 515.579896 168.350462 
L 519.825883 166.035381 
L 523.893662 168.789594 
L 527.797594 169.100133 
L 531.550367 162.202833 
L 535.163252 160.013204 
L 538.646304 165.451212 
L 542.008532 161.425829 
L 545.258039 155.77902 
L 548.402137 157.065651 
L 551.447451 159.412601 
L 555.364531 158.46193 
L 559.129452 156.980857 
L 562.753594 155.740656 
L 566.247109 154.819351 
L 569.619084 151.243843 
L 572.877695 149.569076 
L 576.030315 149.749792 
L 579.083623 148.947318 
L 582.769791 140.882974 
L 586.320903 141.555077 
L 589.746508 149.671286 
L 593.055175 143.967643 
L 596.254625 135.707049 
L 599.351838 135.736697 
L 602.353147 140.211883 
L 605.836199 134.12146 
L 609.198427 140.526344 
L 612.447934 129.427551 
L 615.592032 138.452301 
L 618.637346 128.188928 
L 622.07336 129.867883 
L 625.391736 132.376846 
L 628.600264 124.535881 
L 631.705984 123.555753 
L 634.71528 126.604077 
L 638.043831 125.667004 
L 641.26187 124.927115 
L 644.3765 123.221019 
L 647.394161 119.850984 
L 650.680392 115.143969 
L 653.858858 114.801515 
L 656.936403 119.289319 
L 660.24507 110.154811 
L 663.44452 118.92897 
L 666.541733 108.909494 
L 669.543042 115.72022 
L 672.740573 105.819197 
L 675.835987 105.361308 
L 678.835607 109.371758 
L 682.005411 108.272535 
L 685.074835 107.82536 
L 688.293902 100.385933 
L 691.409495 101.364266 
L 694.428059 106.358484 
L 697.577021 97.197541 
L 700.626899 101.735518 
L 703.791528 96.247688 
L 706.856099 95.233323 
L 710.021589 91.995929 
L 713.086968 90.530429 
L 716.241097 91.670128 
L 719.295821 97.61078 
L 722.428627 88.221614 
L 725.463347 92.738497 
L 728.566824 88.374463 
L 731.574014 86.363614 
L 734.641818 85.260318 
L 737.76182 83.28383 
L 740.784522 90.857717 
L 743.853209 80.439286 
L 746.960784 85.400846 
L 749.971822 83.414638 
L 753.017136 82.064343 
L 756.090778 81.119058 
L 759.18723 76.041468 
L 762.187824 79.32089 
L 765.208532 81.801029 
L 768.244761 80.637751 
L 771.292277 76.228743 
L 774.347189 68.421026 
L 777.405937 66.96 
L 777.405937 66.96 
" clip-path="url(#p5a6c7e1dfc)" style="fill: none; stroke: #2ca02c; stroke-width: 1.5; stroke-linecap: square"/>
   </g>
   <g id="line2d_80">
    <path d="M 175.189895 366.038327 
L 214.493464 330.342906 
L 242.37979 343.056193 
L 264.010105 308.74905 
L 281.683359 285.39342 
L 296.625883 274.901278 
L 309.569685 297.675202 
L 320.986928 269.932254 
L 331.2 263.721175 
L 340.438847 253.588755 
L 348.873254 258.187252 
L 356.632156 236.303662 
L 363.815778 235.330859 
L 370.503569 230.971248 
L 376.75958 235.67061 
L 382.636199 211.494854 
L 388.176823 221.279031 
L 393.417804 201.178894 
L 398.389895 218.547116 
L 403.119347 205.110501 
L 407.628742 196.562924 
L 411.937653 182.200538 
L 416.063149 216.211685 
L 420.02021 204.998102 
L 423.822051 207.736046 
L 427.480392 204.861943 
L 431.005673 213.621874 
L 434.407233 204.439721 
L 437.693464 207.215975 
L 440.87193 199.574247 
L 443.949475 199.260331 
L 449.826094 196.675494 
L 455.366718 195.183134 
L 460.607699 194.090679 
L 465.57979 189.371436 
L 470.309242 185.303681 
L 474.818637 187.828185 
L 479.127548 189.203384 
L 483.253044 189.936685 
L 487.210105 186.825532 
L 491.011946 181.943513 
L 494.670287 180.364761 
L 498.195568 180.495372 
L 501.597128 178.042147 
L 504.883359 180.405047 
L 508.061825 177.799292 
L 511.13937 180.16786 
L 515.579896 171.304485 
L 519.825883 169.319526 
L 527.797594 169.053354 
L 531.550367 168.46037 
L 535.163252 164.410264 
L 538.646304 166.512109 
L 542.008532 161.48842 
L 545.258039 158.774614 
L 548.402137 158.557545 
L 551.447451 159.698528 
L 555.364531 160.126852 
L 559.129452 158.976818 
L 562.753594 156.890349 
L 566.247109 155.481306 
L 569.619084 151.571953 
L 572.877695 149.972703 
L 576.030315 150.08473 
L 579.083623 149.164221 
L 582.769791 149.527976 
L 586.320903 147.187873 
L 589.746508 149.579975 
L 593.055175 145.587172 
L 596.254625 140.410788 
L 599.351838 138.377368 
L 602.353147 140.080338 
L 605.836199 136.142359 
L 609.198427 140.660733 
L 612.447934 136.619138 
L 615.592032 138.493711 
L 618.637346 135.930753 
L 622.07336 129.836953 
L 625.391736 132.696247 
L 628.600264 127.797768 
L 631.705984 126.130574 
L 634.71528 128.51746 
L 638.043831 127.490547 
L 641.26187 126.81647 
L 644.3765 124.926874 
L 647.394161 120.867266 
L 653.858858 117.103593 
L 656.936403 118.951803 
L 660.24507 119.214596 
L 663.44452 119.076243 
L 666.541733 114.915805 
L 669.543042 115.56091 
L 672.740573 110.00142 
L 675.835987 109.295786 
L 678.835607 109.78775 
L 682.005411 108.919043 
L 685.074835 109.564882 
L 688.293902 108.940756 
L 691.409495 107.52471 
L 694.428059 106.483187 
L 697.577021 99.040255 
L 700.626899 101.444183 
L 703.791528 99.501911 
L 706.856099 99.183048 
L 710.021589 100.819376 
L 713.086968 98.193976 
L 716.241097 97.553099 
L 719.295821 97.553532 
L 722.428627 91.036412 
L 725.463347 92.680677 
L 728.566824 90.432255 
L 731.574014 89.404809 
L 734.641818 88.140191 
L 737.76182 89.777926 
L 740.784522 90.906304 
L 743.853209 86.633735 
L 746.960784 86.90192 
L 749.971822 83.358451 
L 753.017136 82.073568 
L 756.090778 81.570269 
L 759.18723 79.299234 
L 762.187824 81.632442 
L 765.208532 81.446423 
L 768.244761 80.632807 
L 771.292277 77.797672 
L 774.347189 72.06981 
L 777.405937 72.046655 
L 777.405937 72.046655 
" clip-path="url(#p5a6c7e1dfc)" style="fill: none; stroke: #d62728; stroke-width: 1.5; stroke-linecap: square"/>
   </g>
   <g id="patch_3">
    <path d="M 108 384.48 
L 108 51.84 
" style="fill: none; stroke: #000000; stroke-width: 0.8; stroke-linejoin: miter; stroke-linecap: square"/>
   </g>
   <g id="patch_4">
    <path d="M 777.6 384.48 
L 777.6 51.84 
" style="fill: none; stroke: #000000; stroke-width: 0.8; stroke-linejoin: miter; stroke-linecap: square"/>
   </g>
   <g id="patch_5">
    <path d="M 108 384.48 
L 777.6 384.48 
" style="fill: none; stroke: #000000; stroke-width: 0.8; stroke-linejoin: miter; stroke-linecap: square"/>
   </g>
   <g id="patch_6">
    <path d="M 108 51.84 
L 777.6 51.84 
" style="fill: none; stroke: #000000; stroke-width: 0.8; stroke-linejoin: miter; stroke-linecap: square"/>
   </g>
   <g id="legend_1">
    <g id="patch_7">
     <path d="M 690.1125 379.48 
L 770.6 379.48 
Q 772.6 379.48 772.6 377.48 
L 772.6 319.7675 
Q 772.6 317.7675 770.6 317.7675 
L 690.1125 317.7675 
Q 688.1125 317.7675 688.1125 319.7675 
L 688.1125 377.48 
Q 688.1125 379.48 690.1125 379.48 
z
" style="fill: #ffffff; opacity: 0.8; stroke: #cccccc; stroke-linejoin: miter"/>
    </g>
    <g id="line2d_81">
     <path d="M 692.1125 325.865937 
L 702.1125 325.865937 
L 712.1125 325.865937 
" style="fill: none; stroke: #1f77b4; stroke-width: 1.5; stroke-linecap: square"/>
    </g>
    <g id="text_12">
     <!-- inbalance -->
     <g transform="translate(720.1125 329.365937)scale(0.1 -0.1)">
      <defs>
       <path id="DejaVuSans-6e" d="M 3513 2113 
L 3513 0 
L 2938 0 
L 2938 2094 
Q 2938 2591 2744 2837 
Q 2550 3084 2163 3084 
Q 1697 3084 1428 2787 
Q 1159 2491 1159 1978 
L 1159 0 
L 581 0 
L 581 3500 
L 1159 3500 
L 1159 2956 
Q 1366 3272 1645 3428 
Q 1925 3584 2291 3584 
Q 2894 3584 3203 3211 
Q 3513 2838 3513 2113 
z
" transform="scale(0.015625)"/>
       <path id="DejaVuSans-62" d="M 3116 1747 
Q 3116 2381 2855 2742 
Q 2594 3103 2138 3103 
Q 1681 3103 1420 2742 
Q 1159 2381 1159 1747 
Q 1159 1113 1420 752 
Q 1681 391 2138 391 
Q 2594 391 2855 752 
Q 3116 1113 3116 1747 
z
M 1159 2969 
Q 1341 3281 1617 3432 
Q 1894 3584 2278 3584 
Q 2916 3584 3314 3078 
Q 3713 2572 3713 1747 
Q 3713 922 3314 415 
Q 2916 -91 2278 -91 
Q 1894 -91 1617 61 
Q 1341 213 1159 525 
L 1159 0 
L 581 0 
L 581 4863 
L 1159 4863 
L 1159 2969 
z
" transform="scale(0.015625)"/>
       <path id="DejaVuSans-61" d="M 2194 1759 
Q 1497 1759 1228 1600 
Q 959 1441 959 1056 
Q 959 750 1161 570 
Q 1363 391 1709 391 
Q 2188 391 2477 730 
Q 2766 1069 2766 1631 
L 2766 1759 
L 2194 1759 
z
M 3341 1997 
L 3341 0 
L 2766 0 
L 2766 531 
Q 2569 213 2275 61 
Q 1981 -91 1556 -91 
Q 1019 -91 701 211 
Q 384 513 384 1019 
Q 384 1609 779 1909 
Q 1175 2209 1959 2209 
L 2766 2209 
L 2766 2266 
Q 2766 2663 2505 2880 
Q 2244 3097 1772 3097 
Q 1472 3097 1187 3025 
Q 903 2953 641 2809 
L 641 3341 
Q 956 3463 1253 3523 
Q 1550 3584 1831 3584 
Q 2591 3584 2966 3190 
Q 3341 2797 3341 1997 
z
" transform="scale(0.015625)"/>
       <path id="DejaVuSans-6c" d="M 603 4863 
L 1178 4863 
L 1178 0 
L 603 0 
L 603 4863 
z
" transform="scale(0.015625)"/>
      </defs>
      <use xlink:href="#DejaVuSans-69"/>
      <use xlink:href="#DejaVuSans-6e" x="27.783203"/>
      <use xlink:href="#DejaVuSans-62" x="91.162109"/>
      <use xlink:href="#DejaVuSans-61" x="154.638672"/>
      <use xlink:href="#DejaVuSans-6c" x="215.917969"/>
      <use xlink:href="#DejaVuSans-61" x="243.701172"/>
      <use xlink:href="#DejaVuSans-6e" x="304.980469"/>
      <use xlink:href="#DejaVuSans-63" x="368.359375"/>
      <use xlink:href="#DejaVuSans-65" x="423.339844"/>
     </g>
    </g>
    <g id="line2d_82">
     <path d="M 692.1125 340.544062 
L 702.1125 340.544062 
L 712.1125 340.544062 
" style="fill: none; stroke: #ff7f0e; stroke-width: 1.5; stroke-linecap: square"/>
    </g>
    <g id="text_13">
     <!-- ndist -->
     <g transform="translate(720.1125 344.044062)scale(0.1 -0.1)">
      <defs>
       <path id="DejaVuSans-64" d="M 2906 2969 
L 2906 4863 
L 3481 4863 
L 3481 0 
L 2906 0 
L 2906 525 
Q 2725 213 2448 61 
Q 2172 -91 1784 -91 
Q 1150 -91 751 415 
Q 353 922 353 1747 
Q 353 2572 751 3078 
Q 1150 3584 1784 3584 
Q 2172 3584 2448 3432 
Q 2725 3281 2906 2969 
z
M 947 1747 
Q 947 1113 1208 752 
Q 1469 391 1925 391 
Q 2381 391 2643 752 
Q 2906 1113 2906 1747 
Q 2906 2381 2643 2742 
Q 2381 3103 1925 3103 
Q 1469 3103 1208 2742 
Q 947 2381 947 1747 
z
" transform="scale(0.015625)"/>
      </defs>
      <use xlink:href="#DejaVuSans-6e"/>
      <use xlink:href="#DejaVuSans-64" x="63.378906"/>
      <use xlink:href="#DejaVuSans-69" x="126.855469"/>
      <use xlink:href="#DejaVuSans-73" x="154.638672"/>
      <use xlink:href="#DejaVuSans-74" x="206.738281"/>
     </g>
    </g>
    <g id="line2d_83">
     <path d="M 692.1125 355.222188 
L 702.1125 355.222188 
L 712.1125 355.222188 
" style="fill: none; stroke: #2ca02c; stroke-width: 1.5; stroke-linecap: square"/>
    </g>
    <g id="text_14">
     <!-- random -->
     <g transform="translate(720.1125 358.722188)scale(0.1 -0.1)">
      <defs>
       <path id="DejaVuSans-72" d="M 2631 2963 
Q 2534 3019 2420 3045 
Q 2306 3072 2169 3072 
Q 1681 3072 1420 2755 
Q 1159 2438 1159 1844 
L 1159 0 
L 581 0 
L 581 3500 
L 1159 3500 
L 1159 2956 
Q 1341 3275 1631 3429 
Q 1922 3584 2338 3584 
Q 2397 3584 2469 3576 
Q 2541 3569 2628 3553 
L 2631 2963 
z
" transform="scale(0.015625)"/>
       <path id="DejaVuSans-6f" d="M 1959 3097 
Q 1497 3097 1228 2736 
Q 959 2375 959 1747 
Q 959 1119 1226 758 
Q 1494 397 1959 397 
Q 2419 397 2687 759 
Q 2956 1122 2956 1747 
Q 2956 2369 2687 2733 
Q 2419 3097 1959 3097 
z
M 1959 3584 
Q 2709 3584 3137 3096 
Q 3566 2609 3566 1747 
Q 3566 888 3137 398 
Q 2709 -91 1959 -91 
Q 1206 -91 779 398 
Q 353 888 353 1747 
Q 353 2609 779 3096 
Q 1206 3584 1959 3584 
z
" transform="scale(0.015625)"/>
      </defs>
      <use xlink:href="#DejaVuSans-72"/>
      <use xlink:href="#DejaVuSans-61" x="41.113281"/>
      <use xlink:href="#DejaVuSans-6e" x="102.392578"/>
      <use xlink:href="#DejaVuSans-64" x="165.771484"/>
      <use xlink:href="#DejaVuSans-6f" x="229.248047"/>
      <use xlink:href="#DejaVuSans-6d" x="290.429688"/>
     </g>
    </g>
    <g id="line2d_84">
     <path d="M 692.1125 369.900312 
L 702.1125 369.900312 
L 712.1125 369.900312 
" style="fill: none; stroke: #d62728; stroke-width: 1.5; stroke-linecap: square"/>
    </g>
    <g id="text_15">
     <!-- reverse -->
     <g transform="translate(720.1125 373.400312)scale(0.1 -0.1)">
      <defs>
       <path id="DejaVuSans-76" d="M 191 3500 
L 800 3500 
L 1894 563 
L 2988 3500 
L 3597 3500 
L 2284 0 
L 1503 0 
L 191 3500 
z
" transform="scale(0.015625)"/>
      </defs>
      <use xlink:href="#DejaVuSans-72"/>
      <use xlink:href="#DejaVuSans-65" x="38.863281"/>
      <use xlink:href="#DejaVuSans-76" x="100.386719"/>
      <use xlink:href="#DejaVuSans-65" x="159.566406"/>
      <use xlink:href="#DejaVuSans-72" x="221.089844"/>
      <use xlink:href="#DejaVuSans-73" x="262.203125"/>
      <use xlink:href="#DejaVuSans-65" x="314.302734"/>
     </g>
    </g>
   </g>
  </g>
 </g>
 <defs>
  <clipPath id="p5a6c7e1dfc">
   <rect x="108" y="51.84" width="669.6" height="332.64"/>
  </clipPath>
 </defs>
</svg>
