<?xml version="1.0" encoding="utf-8" standalone="no"?>
<!DOCTYPE svg PUBLIC "-//W3C//DTD SVG 1.1//EN"
  "http://www.w3.org/Graphics/SVG/1.1/DTD/svg11.dtd">
<svg xmlns:xlink="http://www.w3.org/1999/xlink" width="864pt" height="432pt" viewBox="0 0 864 432" xmlns="http://www.w3.org/2000/svg" version="1.1">
 <metadata>
  <rdf:RDF xmlns:dc="http://purl.org/dc/elements/1.1/" xmlns:cc="http://creativecommons.org/ns#" xmlns:rdf="http://www.w3.org/1999/02/22-rdf-syntax-ns#">
   <cc:Work>
    <dc:type rdf:resource="http://purl.org/dc/dcmitype/StillImage"/>
    <dc:date>2022-05-09T17:08:47.816904</dc:date>
    <dc:format>image/svg+xml</dc:format>
    <dc:creator>
     <cc:Agent>
      <dc:title>Matplotlib v3.5.1, https://matplotlib.org/</dc:title>
     </cc:Agent>
    </dc:creator>
   </cc:Work>
  </rdf:RDF>
 </metadata>
 <defs>
  <style type="text/css">*{stroke-linejoin: round; stroke-linecap: butt}</style>
 </defs>
 <g id="figure_1">
  <g id="patch_1">
   <path d="M 0 432 
L 864 432 
L 864 0 
L 0 0 
z
" style="fill: #ffffff"/>
  </g>
  <g id="axes_1">
   <g id="patch_2">
    <path d="M 108 384.48 
L 777.6 384.48 
L 777.6 51.84 
L 108 51.84 
z
" style="fill: #ffffff"/>
   </g>
   <g id="matplotlib.axis_1">
    <g id="xtick_1">
     <g id="line2d_1">
      <path d="M 108 384.48 
L 108 51.84 
" clip-path="url(#p6aa216f8df)" style="fill: none; stroke: #b0b0b0; stroke-width: 0.8; stroke-linecap: square"/>
     </g>
     <g id="line2d_2">
      <defs>
       <path id="mbe3c1efa4b" d="M 0 0 
L 0 3.5 
" style="stroke: #000000; stroke-width: 0.8"/>
      </defs>
      <g>
       <use xlink:href="#mbe3c1efa4b" x="108" y="384.48" style="stroke: #000000; stroke-width: 0.8"/>
      </g>
     </g>
     <g id="text_1">
      <!-- $\mathdefault{10^{0}}$ -->
      <g transform="translate(99.2 399.078438)scale(0.1 -0.1)">
       <defs>
        <path id="DejaVuSans-31" d="M 794 531 
L 1825 531 
L 1825 4091 
L 703 3866 
L 703 4441 
L 1819 4666 
L 2450 4666 
L 2450 531 
L 3481 531 
L 3481 0 
L 794 0 
L 794 531 
z
" transform="scale(0.015625)"/>
        <path id="DejaVuSans-30" d="M 2034 4250 
Q 1547 4250 1301 3770 
Q 1056 3291 1056 2328 
Q 1056 1369 1301 889 
Q 1547 409 2034 409 
Q 2525 409 2770 889 
Q 3016 1369 3016 2328 
Q 3016 3291 2770 3770 
Q 2525 4250 2034 4250 
z
M 2034 4750 
Q 2819 4750 3233 4129 
Q 3647 3509 3647 2328 
Q 3647 1150 3233 529 
Q 2819 -91 2034 -91 
Q 1250 -91 836 529 
Q 422 1150 422 2328 
Q 422 3509 836 4129 
Q 1250 4750 2034 4750 
z
" transform="scale(0.015625)"/>
       </defs>
       <use xlink:href="#DejaVuSans-31" transform="translate(0 0.765625)"/>
       <use xlink:href="#DejaVuSans-30" transform="translate(63.623047 0.765625)"/>
       <use xlink:href="#DejaVuSans-30" transform="translate(128.203125 39.046875)scale(0.7)"/>
      </g>
     </g>
    </g>
    <g id="xtick_2">
     <g id="line2d_3">
      <path d="M 331.2 384.48 
L 331.2 51.84 
" clip-path="url(#p6aa216f8df)" style="fill: none; stroke: #b0b0b0; stroke-width: 0.8; stroke-linecap: square"/>
     </g>
     <g id="line2d_4">
      <g>
       <use xlink:href="#mbe3c1efa4b" x="331.2" y="384.48" style="stroke: #000000; stroke-width: 0.8"/>
      </g>
     </g>
     <g id="text_2">
      <!-- $\mathdefault{10^{1}}$ -->
      <g transform="translate(322.4 399.078438)scale(0.1 -0.1)">
       <use xlink:href="#DejaVuSans-31" transform="translate(0 0.684375)"/>
       <use xlink:href="#DejaVuSans-30" transform="translate(63.623047 0.684375)"/>
       <use xlink:href="#DejaVuSans-31" transform="translate(128.203125 38.965625)scale(0.7)"/>
      </g>
     </g>
    </g>
    <g id="xtick_3">
     <g id="line2d_5">
      <path d="M 554.4 384.48 
L 554.4 51.84 
" clip-path="url(#p6aa216f8df)" style="fill: none; stroke: #b0b0b0; stroke-width: 0.8; stroke-linecap: square"/>
     </g>
     <g id="line2d_6">
      <g>
       <use xlink:href="#mbe3c1efa4b" x="554.4" y="384.48" style="stroke: #000000; stroke-width: 0.8"/>
      </g>
     </g>
     <g id="text_3">
      <!-- $\mathdefault{10^{2}}$ -->
      <g transform="translate(545.6 399.078438)scale(0.1 -0.1)">
       <defs>
        <path id="DejaVuSans-32" d="M 1228 531 
L 3431 531 
L 3431 0 
L 469 0 
L 469 531 
Q 828 903 1448 1529 
Q 2069 2156 2228 2338 
Q 2531 2678 2651 2914 
Q 2772 3150 2772 3378 
Q 2772 3750 2511 3984 
Q 2250 4219 1831 4219 
Q 1534 4219 1204 4116 
Q 875 4013 500 3803 
L 500 4441 
Q 881 4594 1212 4672 
Q 1544 4750 1819 4750 
Q 2544 4750 2975 4387 
Q 3406 4025 3406 3419 
Q 3406 3131 3298 2873 
Q 3191 2616 2906 2266 
Q 2828 2175 2409 1742 
Q 1991 1309 1228 531 
z
" transform="scale(0.015625)"/>
       </defs>
       <use xlink:href="#DejaVuSans-31" transform="translate(0 0.765625)"/>
       <use xlink:href="#DejaVuSans-30" transform="translate(63.623047 0.765625)"/>
       <use xlink:href="#DejaVuSans-32" transform="translate(128.203125 39.046875)scale(0.7)"/>
      </g>
     </g>
    </g>
    <g id="xtick_4">
     <g id="line2d_7">
      <path d="M 777.6 384.48 
L 777.6 51.84 
" clip-path="url(#p6aa216f8df)" style="fill: none; stroke: #b0b0b0; stroke-width: 0.8; stroke-linecap: square"/>
     </g>
     <g id="line2d_8">
      <g>
       <use xlink:href="#mbe3c1efa4b" x="777.6" y="384.48" style="stroke: #000000; stroke-width: 0.8"/>
      </g>
     </g>
     <g id="text_4">
      <!-- $\mathdefault{10^{3}}$ -->
      <g transform="translate(768.8 399.078438)scale(0.1 -0.1)">
       <defs>
        <path id="DejaVuSans-33" d="M 2597 2516 
Q 3050 2419 3304 2112 
Q 3559 1806 3559 1356 
Q 3559 666 3084 287 
Q 2609 -91 1734 -91 
Q 1441 -91 1130 -33 
Q 819 25 488 141 
L 488 750 
Q 750 597 1062 519 
Q 1375 441 1716 441 
Q 2309 441 2620 675 
Q 2931 909 2931 1356 
Q 2931 1769 2642 2001 
Q 2353 2234 1838 2234 
L 1294 2234 
L 1294 2753 
L 1863 2753 
Q 2328 2753 2575 2939 
Q 2822 3125 2822 3475 
Q 2822 3834 2567 4026 
Q 2313 4219 1838 4219 
Q 1578 4219 1281 4162 
Q 984 4106 628 3988 
L 628 4550 
Q 988 4650 1302 4700 
Q 1616 4750 1894 4750 
Q 2613 4750 3031 4423 
Q 3450 4097 3450 3541 
Q 3450 3153 3228 2886 
Q 3006 2619 2597 2516 
z
" transform="scale(0.015625)"/>
       </defs>
       <use xlink:href="#DejaVuSans-31" transform="translate(0 0.765625)"/>
       <use xlink:href="#DejaVuSans-30" transform="translate(63.623047 0.765625)"/>
       <use xlink:href="#DejaVuSans-33" transform="translate(128.203125 39.046875)scale(0.7)"/>
      </g>
     </g>
    </g>
    <g id="xtick_5">
     <g id="line2d_9">
      <defs>
       <path id="mb6808e911a" d="M 0 0 
L 0 2 
" style="stroke: #000000; stroke-width: 0.6"/>
      </defs>
      <g>
       <use xlink:href="#mb6808e911a" x="175.189895" y="384.48" style="stroke: #000000; stroke-width: 0.6"/>
      </g>
     </g>
    </g>
    <g id="xtick_6">
     <g id="line2d_10">
      <g>
       <use xlink:href="#mb6808e911a" x="214.493464" y="384.48" style="stroke: #000000; stroke-width: 0.6"/>
      </g>
     </g>
    </g>
    <g id="xtick_7">
     <g id="line2d_11">
      <g>
       <use xlink:href="#mb6808e911a" x="242.37979" y="384.48" style="stroke: #000000; stroke-width: 0.6"/>
      </g>
     </g>
    </g>
    <g id="xtick_8">
     <g id="line2d_12">
      <g>
       <use xlink:href="#mb6808e911a" x="264.010105" y="384.48" style="stroke: #000000; stroke-width: 0.6"/>
      </g>
     </g>
    </g>
    <g id="xtick_9">
     <g id="line2d_13">
      <g>
       <use xlink:href="#mb6808e911a" x="281.683359" y="384.48" style="stroke: #000000; stroke-width: 0.6"/>
      </g>
     </g>
    </g>
    <g id="xtick_10">
     <g id="line2d_14">
      <g>
       <use xlink:href="#mb6808e911a" x="296.625883" y="384.48" style="stroke: #000000; stroke-width: 0.6"/>
      </g>
     </g>
    </g>
    <g id="xtick_11">
     <g id="line2d_15">
      <g>
       <use xlink:href="#mb6808e911a" x="309.569685" y="384.48" style="stroke: #000000; stroke-width: 0.6"/>
      </g>
     </g>
    </g>
    <g id="xtick_12">
     <g id="line2d_16">
      <g>
       <use xlink:href="#mb6808e911a" x="320.986928" y="384.48" style="stroke: #000000; stroke-width: 0.6"/>
      </g>
     </g>
    </g>
    <g id="xtick_13">
     <g id="line2d_17">
      <g>
       <use xlink:href="#mb6808e911a" x="398.389895" y="384.48" style="stroke: #000000; stroke-width: 0.6"/>
      </g>
     </g>
    </g>
    <g id="xtick_14">
     <g id="line2d_18">
      <g>
       <use xlink:href="#mb6808e911a" x="437.693464" y="384.48" style="stroke: #000000; stroke-width: 0.6"/>
      </g>
     </g>
    </g>
    <g id="xtick_15">
     <g id="line2d_19">
      <g>
       <use xlink:href="#mb6808e911a" x="465.57979" y="384.48" style="stroke: #000000; stroke-width: 0.6"/>
      </g>
     </g>
    </g>
    <g id="xtick_16">
     <g id="line2d_20">
      <g>
       <use xlink:href="#mb6808e911a" x="487.210105" y="384.48" style="stroke: #000000; stroke-width: 0.6"/>
      </g>
     </g>
    </g>
    <g id="xtick_17">
     <g id="line2d_21">
      <g>
       <use xlink:href="#mb6808e911a" x="504.883359" y="384.48" style="stroke: #000000; stroke-width: 0.6"/>
      </g>
     </g>
    </g>
    <g id="xtick_18">
     <g id="line2d_22">
      <g>
       <use xlink:href="#mb6808e911a" x="519.825883" y="384.48" style="stroke: #000000; stroke-width: 0.6"/>
      </g>
     </g>
    </g>
    <g id="xtick_19">
     <g id="line2d_23">
      <g>
       <use xlink:href="#mb6808e911a" x="532.769685" y="384.48" style="stroke: #000000; stroke-width: 0.6"/>
      </g>
     </g>
    </g>
    <g id="xtick_20">
     <g id="line2d_24">
      <g>
       <use xlink:href="#mb6808e911a" x="544.186928" y="384.48" style="stroke: #000000; stroke-width: 0.6"/>
      </g>
     </g>
    </g>
    <g id="xtick_21">
     <g id="line2d_25">
      <g>
       <use xlink:href="#mb6808e911a" x="621.589895" y="384.48" style="stroke: #000000; stroke-width: 0.6"/>
      </g>
     </g>
    </g>
    <g id="xtick_22">
     <g id="line2d_26">
      <g>
       <use xlink:href="#mb6808e911a" x="660.893464" y="384.48" style="stroke: #000000; stroke-width: 0.6"/>
      </g>
     </g>
    </g>
    <g id="xtick_23">
     <g id="line2d_27">
      <g>
       <use xlink:href="#mb6808e911a" x="688.77979" y="384.48" style="stroke: #000000; stroke-width: 0.6"/>
      </g>
     </g>
    </g>
    <g id="xtick_24">
     <g id="line2d_28">
      <g>
       <use xlink:href="#mb6808e911a" x="710.410105" y="384.48" style="stroke: #000000; stroke-width: 0.6"/>
      </g>
     </g>
    </g>
    <g id="xtick_25">
     <g id="line2d_29">
      <g>
       <use xlink:href="#mb6808e911a" x="728.083359" y="384.48" style="stroke: #000000; stroke-width: 0.6"/>
      </g>
     </g>
    </g>
    <g id="xtick_26">
     <g id="line2d_30">
      <g>
       <use xlink:href="#mb6808e911a" x="743.025883" y="384.48" style="stroke: #000000; stroke-width: 0.6"/>
      </g>
     </g>
    </g>
    <g id="xtick_27">
     <g id="line2d_31">
      <g>
       <use xlink:href="#mb6808e911a" x="755.969685" y="384.48" style="stroke: #000000; stroke-width: 0.6"/>
      </g>
     </g>
    </g>
    <g id="xtick_28">
     <g id="line2d_32">
      <g>
       <use xlink:href="#mb6808e911a" x="767.386928" y="384.48" style="stroke: #000000; stroke-width: 0.6"/>
      </g>
     </g>
    </g>
    <g id="text_5">
     <!-- N -->
     <g transform="translate(439.059375 412.756563)scale(0.1 -0.1)">
      <defs>
       <path id="DejaVuSans-4e" d="M 628 4666 
L 1478 4666 
L 3547 763 
L 3547 4666 
L 4159 4666 
L 4159 0 
L 3309 0 
L 1241 3903 
L 1241 0 
L 628 0 
L 628 4666 
z
" transform="scale(0.015625)"/>
      </defs>
      <use xlink:href="#DejaVuSans-4e"/>
     </g>
    </g>
   </g>
   <g id="matplotlib.axis_2">
    <g id="ytick_1">
     <g id="line2d_33">
      <path d="M 108 376.369462 
L 777.6 376.369462 
" clip-path="url(#p6aa216f8df)" style="fill: none; stroke: #b0b0b0; stroke-width: 0.8; stroke-linecap: square"/>
     </g>
     <g id="line2d_34">
      <defs>
       <path id="ma4c92e7bf5" d="M 0 0 
L -3.5 0 
" style="stroke: #000000; stroke-width: 0.8"/>
      </defs>
      <g>
       <use xlink:href="#ma4c92e7bf5" x="108" y="376.369462" style="stroke: #000000; stroke-width: 0.8"/>
      </g>
     </g>
     <g id="text_6">
      <!-- $\mathdefault{10^{-3}}$ -->
      <g transform="translate(77.5 380.168681)scale(0.1 -0.1)">
       <defs>
        <path id="DejaVuSans-2212" d="M 678 2272 
L 4684 2272 
L 4684 1741 
L 678 1741 
L 678 2272 
z
" transform="scale(0.015625)"/>
       </defs>
       <use xlink:href="#DejaVuSans-31" transform="translate(0 0.765625)"/>
       <use xlink:href="#DejaVuSans-30" transform="translate(63.623047 0.765625)"/>
       <use xlink:href="#DejaVuSans-2212" transform="translate(128.203125 39.046875)scale(0.7)"/>
       <use xlink:href="#DejaVuSans-33" transform="translate(186.855469 39.046875)scale(0.7)"/>
      </g>
     </g>
    </g>
    <g id="ytick_2">
     <g id="line2d_35">
      <path d="M 108 298.239935 
L 777.6 298.239935 
" clip-path="url(#p6aa216f8df)" style="fill: none; stroke: #b0b0b0; stroke-width: 0.8; stroke-linecap: square"/>
     </g>
     <g id="line2d_36">
      <g>
       <use xlink:href="#ma4c92e7bf5" x="108" y="298.239935" style="stroke: #000000; stroke-width: 0.8"/>
      </g>
     </g>
     <g id="text_7">
      <!-- $\mathdefault{10^{-2}}$ -->
      <g transform="translate(77.5 302.039154)scale(0.1 -0.1)">
       <use xlink:href="#DejaVuSans-31" transform="translate(0 0.765625)"/>
       <use xlink:href="#DejaVuSans-30" transform="translate(63.623047 0.765625)"/>
       <use xlink:href="#DejaVuSans-2212" transform="translate(128.203125 39.046875)scale(0.7)"/>
       <use xlink:href="#DejaVuSans-32" transform="translate(186.855469 39.046875)scale(0.7)"/>
      </g>
     </g>
    </g>
    <g id="ytick_3">
     <g id="line2d_37">
      <path d="M 108 220.110408 
L 777.6 220.110408 
" clip-path="url(#p6aa216f8df)" style="fill: none; stroke: #b0b0b0; stroke-width: 0.8; stroke-linecap: square"/>
     </g>
     <g id="line2d_38">
      <g>
       <use xlink:href="#ma4c92e7bf5" x="108" y="220.110408" style="stroke: #000000; stroke-width: 0.8"/>
      </g>
     </g>
     <g id="text_8">
      <!-- $\mathdefault{10^{-1}}$ -->
      <g transform="translate(77.5 223.909626)scale(0.1 -0.1)">
       <use xlink:href="#DejaVuSans-31" transform="translate(0 0.684375)"/>
       <use xlink:href="#DejaVuSans-30" transform="translate(63.623047 0.684375)"/>
       <use xlink:href="#DejaVuSans-2212" transform="translate(128.203125 38.965625)scale(0.7)"/>
       <use xlink:href="#DejaVuSans-31" transform="translate(186.855469 38.965625)scale(0.7)"/>
      </g>
     </g>
    </g>
    <g id="ytick_4">
     <g id="line2d_39">
      <path d="M 108 141.98088 
L 777.6 141.98088 
" clip-path="url(#p6aa216f8df)" style="fill: none; stroke: #b0b0b0; stroke-width: 0.8; stroke-linecap: square"/>
     </g>
     <g id="line2d_40">
      <g>
       <use xlink:href="#ma4c92e7bf5" x="108" y="141.98088" style="stroke: #000000; stroke-width: 0.8"/>
      </g>
     </g>
     <g id="text_9">
      <!-- $\mathdefault{10^{0}}$ -->
      <g transform="translate(83.4 145.780099)scale(0.1 -0.1)">
       <use xlink:href="#DejaVuSans-31" transform="translate(0 0.765625)"/>
       <use xlink:href="#DejaVuSans-30" transform="translate(63.623047 0.765625)"/>
       <use xlink:href="#DejaVuSans-30" transform="translate(128.203125 39.046875)scale(0.7)"/>
      </g>
     </g>
    </g>
    <g id="ytick_5">
     <g id="line2d_41">
      <path d="M 108 63.851353 
L 777.6 63.851353 
" clip-path="url(#p6aa216f8df)" style="fill: none; stroke: #b0b0b0; stroke-width: 0.8; stroke-linecap: square"/>
     </g>
     <g id="line2d_42">
      <g>
       <use xlink:href="#ma4c92e7bf5" x="108" y="63.851353" style="stroke: #000000; stroke-width: 0.8"/>
      </g>
     </g>
     <g id="text_10">
      <!-- $\mathdefault{10^{1}}$ -->
      <g transform="translate(83.4 67.650572)scale(0.1 -0.1)">
       <use xlink:href="#DejaVuSans-31" transform="translate(0 0.684375)"/>
       <use xlink:href="#DejaVuSans-30" transform="translate(63.623047 0.684375)"/>
       <use xlink:href="#DejaVuSans-31" transform="translate(128.203125 38.965625)scale(0.7)"/>
      </g>
     </g>
    </g>
    <g id="ytick_6">
     <g id="line2d_43">
      <defs>
       <path id="m74c2bb5207" d="M 0 0 
L -2 0 
" style="stroke: #000000; stroke-width: 0.6"/>
      </defs>
      <g>
       <use xlink:href="#m74c2bb5207" x="108" y="383.940996" style="stroke: #000000; stroke-width: 0.6"/>
      </g>
     </g>
    </g>
    <g id="ytick_7">
     <g id="line2d_44">
      <g>
       <use xlink:href="#m74c2bb5207" x="108" y="379.944473" style="stroke: #000000; stroke-width: 0.6"/>
      </g>
     </g>
    </g>
    <g id="ytick_8">
     <g id="line2d_45">
      <g>
       <use xlink:href="#m74c2bb5207" x="108" y="352.850131" style="stroke: #000000; stroke-width: 0.6"/>
      </g>
     </g>
    </g>
    <g id="ytick_9">
     <g id="line2d_46">
      <g>
       <use xlink:href="#m74c2bb5207" x="108" y="339.092204" style="stroke: #000000; stroke-width: 0.6"/>
      </g>
     </g>
    </g>
    <g id="ytick_10">
     <g id="line2d_47">
      <g>
       <use xlink:href="#m74c2bb5207" x="108" y="329.3308" style="stroke: #000000; stroke-width: 0.6"/>
      </g>
     </g>
    </g>
    <g id="ytick_11">
     <g id="line2d_48">
      <g>
       <use xlink:href="#m74c2bb5207" x="108" y="321.759266" style="stroke: #000000; stroke-width: 0.6"/>
      </g>
     </g>
    </g>
    <g id="ytick_12">
     <g id="line2d_49">
      <g>
       <use xlink:href="#m74c2bb5207" x="108" y="315.572873" style="stroke: #000000; stroke-width: 0.6"/>
      </g>
     </g>
    </g>
    <g id="ytick_13">
     <g id="line2d_50">
      <g>
       <use xlink:href="#m74c2bb5207" x="108" y="310.342352" style="stroke: #000000; stroke-width: 0.6"/>
      </g>
     </g>
    </g>
    <g id="ytick_14">
     <g id="line2d_51">
      <g>
       <use xlink:href="#m74c2bb5207" x="108" y="305.811468" style="stroke: #000000; stroke-width: 0.6"/>
      </g>
     </g>
    </g>
    <g id="ytick_15">
     <g id="line2d_52">
      <g>
       <use xlink:href="#m74c2bb5207" x="108" y="301.814946" style="stroke: #000000; stroke-width: 0.6"/>
      </g>
     </g>
    </g>
    <g id="ytick_16">
     <g id="line2d_53">
      <g>
       <use xlink:href="#m74c2bb5207" x="108" y="274.720604" style="stroke: #000000; stroke-width: 0.6"/>
      </g>
     </g>
    </g>
    <g id="ytick_17">
     <g id="line2d_54">
      <g>
       <use xlink:href="#m74c2bb5207" x="108" y="260.962677" style="stroke: #000000; stroke-width: 0.6"/>
      </g>
     </g>
    </g>
    <g id="ytick_18">
     <g id="line2d_55">
      <g>
       <use xlink:href="#m74c2bb5207" x="108" y="251.201272" style="stroke: #000000; stroke-width: 0.6"/>
      </g>
     </g>
    </g>
    <g id="ytick_19">
     <g id="line2d_56">
      <g>
       <use xlink:href="#m74c2bb5207" x="108" y="243.629739" style="stroke: #000000; stroke-width: 0.6"/>
      </g>
     </g>
    </g>
    <g id="ytick_20">
     <g id="line2d_57">
      <g>
       <use xlink:href="#m74c2bb5207" x="108" y="237.443346" style="stroke: #000000; stroke-width: 0.6"/>
      </g>
     </g>
    </g>
    <g id="ytick_21">
     <g id="line2d_58">
      <g>
       <use xlink:href="#m74c2bb5207" x="108" y="232.212825" style="stroke: #000000; stroke-width: 0.6"/>
      </g>
     </g>
    </g>
    <g id="ytick_22">
     <g id="line2d_59">
      <g>
       <use xlink:href="#m74c2bb5207" x="108" y="227.681941" style="stroke: #000000; stroke-width: 0.6"/>
      </g>
     </g>
    </g>
    <g id="ytick_23">
     <g id="line2d_60">
      <g>
       <use xlink:href="#m74c2bb5207" x="108" y="223.685419" style="stroke: #000000; stroke-width: 0.6"/>
      </g>
     </g>
    </g>
    <g id="ytick_24">
     <g id="line2d_61">
      <g>
       <use xlink:href="#m74c2bb5207" x="108" y="196.591076" style="stroke: #000000; stroke-width: 0.6"/>
      </g>
     </g>
    </g>
    <g id="ytick_25">
     <g id="line2d_62">
      <g>
       <use xlink:href="#m74c2bb5207" x="108" y="182.83315" style="stroke: #000000; stroke-width: 0.6"/>
      </g>
     </g>
    </g>
    <g id="ytick_26">
     <g id="line2d_63">
      <g>
       <use xlink:href="#m74c2bb5207" x="108" y="173.071745" style="stroke: #000000; stroke-width: 0.6"/>
      </g>
     </g>
    </g>
    <g id="ytick_27">
     <g id="line2d_64">
      <g>
       <use xlink:href="#m74c2bb5207" x="108" y="165.500212" style="stroke: #000000; stroke-width: 0.6"/>
      </g>
     </g>
    </g>
    <g id="ytick_28">
     <g id="line2d_65">
      <g>
       <use xlink:href="#m74c2bb5207" x="108" y="159.313818" style="stroke: #000000; stroke-width: 0.6"/>
      </g>
     </g>
    </g>
    <g id="ytick_29">
     <g id="line2d_66">
      <g>
       <use xlink:href="#m74c2bb5207" x="108" y="154.083297" style="stroke: #000000; stroke-width: 0.6"/>
      </g>
     </g>
    </g>
    <g id="ytick_30">
     <g id="line2d_67">
      <g>
       <use xlink:href="#m74c2bb5207" x="108" y="149.552414" style="stroke: #000000; stroke-width: 0.6"/>
      </g>
     </g>
    </g>
    <g id="ytick_31">
     <g id="line2d_68">
      <g>
       <use xlink:href="#m74c2bb5207" x="108" y="145.555891" style="stroke: #000000; stroke-width: 0.6"/>
      </g>
     </g>
    </g>
    <g id="ytick_32">
     <g id="line2d_69">
      <g>
       <use xlink:href="#m74c2bb5207" x="108" y="118.461549" style="stroke: #000000; stroke-width: 0.6"/>
      </g>
     </g>
    </g>
    <g id="ytick_33">
     <g id="line2d_70">
      <g>
       <use xlink:href="#m74c2bb5207" x="108" y="104.703622" style="stroke: #000000; stroke-width: 0.6"/>
      </g>
     </g>
    </g>
    <g id="ytick_34">
     <g id="line2d_71">
      <g>
       <use xlink:href="#m74c2bb5207" x="108" y="94.942218" style="stroke: #000000; stroke-width: 0.6"/>
      </g>
     </g>
    </g>
    <g id="ytick_35">
     <g id="line2d_72">
      <g>
       <use xlink:href="#m74c2bb5207" x="108" y="87.370684" style="stroke: #000000; stroke-width: 0.6"/>
      </g>
     </g>
    </g>
    <g id="ytick_36">
     <g id="line2d_73">
      <g>
       <use xlink:href="#m74c2bb5207" x="108" y="81.184291" style="stroke: #000000; stroke-width: 0.6"/>
      </g>
     </g>
    </g>
    <g id="ytick_37">
     <g id="line2d_74">
      <g>
       <use xlink:href="#m74c2bb5207" x="108" y="75.95377" style="stroke: #000000; stroke-width: 0.6"/>
      </g>
     </g>
    </g>
    <g id="ytick_38">
     <g id="line2d_75">
      <g>
       <use xlink:href="#m74c2bb5207" x="108" y="71.422887" style="stroke: #000000; stroke-width: 0.6"/>
      </g>
     </g>
    </g>
    <g id="ytick_39">
     <g id="line2d_76">
      <g>
       <use xlink:href="#m74c2bb5207" x="108" y="67.426364" style="stroke: #000000; stroke-width: 0.6"/>
      </g>
     </g>
    </g>
    <g id="text_11">
     <!-- time[usec] -->
     <g transform="translate(71.420312 244.956875)rotate(-90)scale(0.1 -0.1)">
      <defs>
       <path id="DejaVuSans-74" d="M 1172 4494 
L 1172 3500 
L 2356 3500 
L 2356 3053 
L 1172 3053 
L 1172 1153 
Q 1172 725 1289 603 
Q 1406 481 1766 481 
L 2356 481 
L 2356 0 
L 1766 0 
Q 1100 0 847 248 
Q 594 497 594 1153 
L 594 3053 
L 172 3053 
L 172 3500 
L 594 3500 
L 594 4494 
L 1172 4494 
z
" transform="scale(0.015625)"/>
       <path id="DejaVuSans-69" d="M 603 3500 
L 1178 3500 
L 1178 0 
L 603 0 
L 603 3500 
z
M 603 4863 
L 1178 4863 
L 1178 4134 
L 603 4134 
L 603 4863 
z
" transform="scale(0.015625)"/>
       <path id="DejaVuSans-6d" d="M 3328 2828 
Q 3544 3216 3844 3400 
Q 4144 3584 4550 3584 
Q 5097 3584 5394 3201 
Q 5691 2819 5691 2113 
L 5691 0 
L 5113 0 
L 5113 2094 
Q 5113 2597 4934 2840 
Q 4756 3084 4391 3084 
Q 3944 3084 3684 2787 
Q 3425 2491 3425 1978 
L 3425 0 
L 2847 0 
L 2847 2094 
Q 2847 2600 2669 2842 
Q 2491 3084 2119 3084 
Q 1678 3084 1418 2786 
Q 1159 2488 1159 1978 
L 1159 0 
L 581 0 
L 581 3500 
L 1159 3500 
L 1159 2956 
Q 1356 3278 1631 3431 
Q 1906 3584 2284 3584 
Q 2666 3584 2933 3390 
Q 3200 3197 3328 2828 
z
" transform="scale(0.015625)"/>
       <path id="DejaVuSans-65" d="M 3597 1894 
L 3597 1613 
L 953 1613 
Q 991 1019 1311 708 
Q 1631 397 2203 397 
Q 2534 397 2845 478 
Q 3156 559 3463 722 
L 3463 178 
Q 3153 47 2828 -22 
Q 2503 -91 2169 -91 
Q 1331 -91 842 396 
Q 353 884 353 1716 
Q 353 2575 817 3079 
Q 1281 3584 2069 3584 
Q 2775 3584 3186 3129 
Q 3597 2675 3597 1894 
z
M 3022 2063 
Q 3016 2534 2758 2815 
Q 2500 3097 2075 3097 
Q 1594 3097 1305 2825 
Q 1016 2553 972 2059 
L 3022 2063 
z
" transform="scale(0.015625)"/>
       <path id="DejaVuSans-5b" d="M 550 4863 
L 1875 4863 
L 1875 4416 
L 1125 4416 
L 1125 -397 
L 1875 -397 
L 1875 -844 
L 550 -844 
L 550 4863 
z
" transform="scale(0.015625)"/>
       <path id="DejaVuSans-75" d="M 544 1381 
L 544 3500 
L 1119 3500 
L 1119 1403 
Q 1119 906 1312 657 
Q 1506 409 1894 409 
Q 2359 409 2629 706 
Q 2900 1003 2900 1516 
L 2900 3500 
L 3475 3500 
L 3475 0 
L 2900 0 
L 2900 538 
Q 2691 219 2414 64 
Q 2138 -91 1772 -91 
Q 1169 -91 856 284 
Q 544 659 544 1381 
z
M 1991 3584 
L 1991 3584 
z
" transform="scale(0.015625)"/>
       <path id="DejaVuSans-73" d="M 2834 3397 
L 2834 2853 
Q 2591 2978 2328 3040 
Q 2066 3103 1784 3103 
Q 1356 3103 1142 2972 
Q 928 2841 928 2578 
Q 928 2378 1081 2264 
Q 1234 2150 1697 2047 
L 1894 2003 
Q 2506 1872 2764 1633 
Q 3022 1394 3022 966 
Q 3022 478 2636 193 
Q 2250 -91 1575 -91 
Q 1294 -91 989 -36 
Q 684 19 347 128 
L 347 722 
Q 666 556 975 473 
Q 1284 391 1588 391 
Q 1994 391 2212 530 
Q 2431 669 2431 922 
Q 2431 1156 2273 1281 
Q 2116 1406 1581 1522 
L 1381 1569 
Q 847 1681 609 1914 
Q 372 2147 372 2553 
Q 372 3047 722 3315 
Q 1072 3584 1716 3584 
Q 2034 3584 2315 3537 
Q 2597 3491 2834 3397 
z
" transform="scale(0.015625)"/>
       <path id="DejaVuSans-63" d="M 3122 3366 
L 3122 2828 
Q 2878 2963 2633 3030 
Q 2388 3097 2138 3097 
Q 1578 3097 1268 2742 
Q 959 2388 959 1747 
Q 959 1106 1268 751 
Q 1578 397 2138 397 
Q 2388 397 2633 464 
Q 2878 531 3122 666 
L 3122 134 
Q 2881 22 2623 -34 
Q 2366 -91 2075 -91 
Q 1284 -91 818 406 
Q 353 903 353 1747 
Q 353 2603 823 3093 
Q 1294 3584 2113 3584 
Q 2378 3584 2631 3529 
Q 2884 3475 3122 3366 
z
" transform="scale(0.015625)"/>
       <path id="DejaVuSans-5d" d="M 1947 4863 
L 1947 -844 
L 622 -844 
L 622 -397 
L 1369 -397 
L 1369 4416 
L 622 4416 
L 622 4863 
L 1947 4863 
z
" transform="scale(0.015625)"/>
      </defs>
      <use xlink:href="#DejaVuSans-74"/>
      <use xlink:href="#DejaVuSans-69" x="39.208984"/>
      <use xlink:href="#DejaVuSans-6d" x="66.992188"/>
      <use xlink:href="#DejaVuSans-65" x="164.404297"/>
      <use xlink:href="#DejaVuSans-5b" x="225.927734"/>
      <use xlink:href="#DejaVuSans-75" x="264.941406"/>
      <use xlink:href="#DejaVuSans-73" x="328.320312"/>
      <use xlink:href="#DejaVuSans-65" x="380.419922"/>
      <use xlink:href="#DejaVuSans-63" x="441.943359"/>
      <use xlink:href="#DejaVuSans-5d" x="496.923828"/>
     </g>
    </g>
   </g>
   <g id="line2d_77">
    <path d="M 175.189895 368.590132 
L 214.493464 330.343935 
L 242.37979 344.916982 
L 264.010105 309.053602 
L 281.683359 285.132674 
L 296.625883 274.953106 
L 309.569685 297.732358 
L 320.986928 269.011759 
L 331.2 263.395783 
L 340.438847 255.010305 
L 348.873254 258.83465 
L 356.632156 236.05488 
L 363.815778 235.22646 
L 370.503569 230.726927 
L 376.75958 235.547859 
L 382.636199 231.915309 
L 388.176823 226.973168 
L 393.417804 222.008962 
L 398.389895 243.069674 
L 403.119347 224.319356 
L 407.628742 218.006553 
L 411.937653 213.049691 
L 416.063149 223.624334 
L 420.02021 211.25356 
L 423.822051 206.034593 
L 427.480392 201.905348 
L 431.005673 219.120621 
L 434.407233 205.918652 
L 437.693464 200.258838 
L 440.87193 196.105145 
L 443.949475 199.165213 
L 449.826094 191.214367 
L 455.366718 194.97647 
L 460.607699 188.452761 
L 465.57979 188.868643 
L 470.309242 185.511816 
L 474.818637 187.621225 
L 479.127548 181.055227 
L 483.253044 189.640608 
L 487.210105 180.445514 
L 491.011946 181.828273 
L 494.670287 177.204211 
L 498.195568 180.336749 
L 501.597128 174.713127 
L 504.883359 180.16291 
L 508.061825 170.407051 
L 511.13937 179.965411 
L 515.579896 168.416316 
L 519.825883 165.935616 
L 523.893662 168.830555 
L 527.797594 168.930092 
L 531.550367 162.028665 
L 535.163252 159.985116 
L 538.646304 165.195087 
L 542.008532 161.332891 
L 545.258039 155.692931 
L 548.402137 156.876375 
L 551.447451 159.225953 
L 555.364531 158.195102 
L 562.753594 155.553522 
L 566.247109 154.695066 
L 569.619084 151.062273 
L 572.877695 149.19724 
L 576.030315 149.849092 
L 579.083623 148.6089 
L 582.769791 140.745885 
L 586.320903 141.320581 
L 589.746508 149.556666 
L 593.055175 143.782405 
L 596.254625 135.313056 
L 599.351838 135.635444 
L 602.353147 140.158101 
L 605.836199 133.954053 
L 609.198427 140.250193 
L 612.447934 129.353214 
L 615.592032 138.215304 
L 618.637346 127.397361 
L 622.07336 129.593185 
L 625.391736 132.889686 
L 628.600264 124.507509 
L 631.705984 123.329781 
L 634.71528 126.39671 
L 638.043831 125.870324 
L 641.26187 124.835116 
L 644.3765 123.174236 
L 647.394161 119.808122 
L 650.680392 115.043798 
L 653.858858 114.734843 
L 656.936403 118.870402 
L 660.24507 109.919043 
L 663.44452 118.939169 
L 666.541733 108.788838 
L 669.543042 115.638244 
L 672.740573 105.723338 
L 675.835987 105.459368 
L 678.835607 109.295808 
L 682.005411 108.14875 
L 685.074835 107.607247 
L 688.293902 100.346547 
L 691.409495 101.123134 
L 694.428059 106.321358 
L 697.577021 97.152273 
L 700.626899 101.676558 
L 703.791528 96.12927 
L 706.856099 95.171024 
L 710.021589 91.835573 
L 713.086968 90.196336 
L 716.241097 91.199853 
L 719.295821 96.368544 
L 722.428627 87.84986 
L 725.463347 92.655406 
L 728.566824 88.056783 
L 731.574014 86.382209 
L 734.641818 85.229223 
L 737.76182 83.331846 
L 740.784522 90.619869 
L 743.853209 80.436802 
L 746.960784 85.179851 
L 749.971822 83.372331 
L 753.017136 82.036522 
L 756.090778 80.837976 
L 759.18723 76.052117 
L 762.187824 79.348904 
L 765.208532 81.743182 
L 768.244761 80.436126 
L 771.292277 76.23042 
L 774.347189 68.300516 
L 777.405937 66.96 
L 777.405937 66.96 
" clip-path="url(#p6aa216f8df)" style="fill: none; stroke: #1f77b4; stroke-width: 1.5; stroke-linecap: square"/>
   </g>
   <g id="line2d_78">
    <path d="M 175.189895 368.135507 
L 214.493464 330.555286 
L 242.37979 344.601918 
L 264.010105 309.319222 
L 281.683359 285.080823 
L 296.625883 274.864608 
L 309.569685 297.691792 
L 320.986928 269.703179 
L 331.2 263.293953 
L 340.438847 254.733667 
L 348.873254 258.85856 
L 356.632156 236.171015 
L 363.815778 235.103508 
L 370.503569 230.83398 
L 376.75958 235.393122 
L 382.636199 232.10253 
L 393.417804 222.091855 
L 398.389895 242.905577 
L 403.119347 224.425398 
L 407.628742 218.093739 
L 411.937653 213.038926 
L 416.063149 223.496345 
L 420.02021 211.184203 
L 423.822051 206.075195 
L 427.480392 202.128982 
L 431.005673 219.156892 
L 434.407233 205.716278 
L 437.693464 200.463525 
L 440.87193 196.185314 
L 443.949475 199.167305 
L 449.826094 191.218324 
L 455.366718 194.986351 
L 460.607699 188.366373 
L 465.57979 188.964812 
L 470.309242 185.631379 
L 474.818637 187.864664 
L 479.127548 181.077717 
L 483.253044 189.889745 
L 487.210105 180.621511 
L 491.011946 181.859892 
L 494.670287 177.279595 
L 498.195568 180.335695 
L 501.597128 174.687771 
L 504.883359 180.091268 
L 508.061825 170.36887 
L 511.13937 179.920896 
L 515.579896 168.150581 
L 519.825883 166.022523 
L 523.893662 168.721426 
L 527.797594 168.72186 
L 531.550367 162.0771 
L 535.163252 159.908343 
L 538.646304 165.147648 
L 542.008532 161.492684 
L 545.258039 155.475132 
L 548.402137 156.817228 
L 551.447451 159.266533 
L 555.364531 158.147268 
L 562.753594 155.599874 
L 566.247109 154.650764 
L 569.619084 151.182034 
L 572.877695 149.492884 
L 576.030315 149.708511 
L 579.083623 148.668353 
L 582.769791 140.915415 
L 586.320903 141.496151 
L 589.746508 149.549033 
L 593.055175 143.844354 
L 596.254625 135.75336 
L 599.351838 135.727892 
L 602.353147 140.2954 
L 605.836199 134.142488 
L 609.198427 140.601181 
L 612.447934 129.267792 
L 615.592032 138.062738 
L 618.637346 128.019734 
L 622.07336 129.874621 
L 625.391736 132.799183 
L 628.600264 124.602614 
L 631.705984 123.52762 
L 634.71528 126.669236 
L 638.043831 126.027524 
L 641.26187 124.802012 
L 644.3765 123.216535 
L 647.394161 119.720993 
L 650.680392 114.850507 
L 653.858858 114.580984 
L 656.936403 119.111618 
L 660.24507 110.154325 
L 663.44452 119.002195 
L 666.541733 108.881026 
L 669.543042 115.439878 
L 672.740573 105.640478 
L 675.835987 105.556804 
L 678.835607 109.339666 
L 682.005411 108.236864 
L 685.074835 107.698077 
L 688.293902 100.274866 
L 691.409495 101.066394 
L 694.428059 106.546312 
L 697.577021 97.111917 
L 700.626899 101.770718 
L 703.791528 96.124872 
L 706.856099 95.019408 
L 710.021589 92.033077 
L 713.086968 90.558166 
L 716.241097 91.915739 
L 719.295821 97.617385 
L 722.428627 88.153783 
L 725.463347 92.70512 
L 728.566824 88.309131 
L 731.574014 86.455153 
L 734.641818 85.299434 
L 737.76182 83.356832 
L 740.784522 91.021865 
L 743.853209 80.420048 
L 746.960784 85.376528 
L 749.971822 83.330566 
L 756.090778 80.972867 
L 759.18723 75.509027 
L 762.187824 79.475887 
L 765.208532 81.84237 
L 768.244761 80.29185 
L 771.292277 76.16371 
L 774.347189 68.535835 
L 777.405937 66.98624 
L 777.405937 66.98624 
" clip-path="url(#p6aa216f8df)" style="fill: none; stroke: #ff7f0e; stroke-width: 1.5; stroke-linecap: square"/>
   </g>
   <g id="line2d_79">
    <path d="M 175.189895 366.173084 
L 214.493464 328.229359 
L 242.37979 334.543653 
L 264.010105 303.215167 
L 281.683359 284.318507 
L 296.625883 273.518015 
L 309.569685 297.305276 
L 320.986928 269.790308 
L 331.2 262.987066 
L 340.438847 254.716102 
L 348.873254 258.74826 
L 356.632156 236.0511 
L 363.815778 235.077128 
L 370.503569 230.809054 
L 376.75958 235.474595 
L 382.636199 231.865748 
L 388.176823 226.883832 
L 393.417804 221.984622 
L 398.389895 242.774159 
L 403.119347 224.448529 
L 407.628742 218.265631 
L 411.937653 213.042871 
L 416.063149 223.617074 
L 420.02021 211.080153 
L 423.822051 205.991961 
L 427.480392 201.900544 
L 431.005673 219.158541 
L 434.407233 205.912272 
L 437.693464 200.426863 
L 440.87193 196.327608 
L 443.949475 198.944729 
L 449.826094 191.237672 
L 455.366718 194.97595 
L 460.607699 188.31627 
L 465.57979 189.039423 
L 470.309242 185.498495 
L 474.818637 187.55681 
L 479.127548 181.023503 
L 483.253044 189.708211 
L 487.210105 180.668377 
L 491.011946 181.820121 
L 494.670287 177.358402 
L 498.195568 180.379338 
L 501.597128 174.864715 
L 504.883359 179.740403 
L 508.061825 170.382746 
L 511.13937 179.99096 
L 515.579896 168.302367 
L 519.825883 165.934757 
L 523.893662 168.786173 
L 527.797594 169.072546 
L 531.550367 162.092677 
L 535.163252 159.951771 
L 538.646304 165.022974 
L 542.008532 161.295181 
L 545.258039 155.595182 
L 548.402137 156.863127 
L 551.447451 159.274846 
L 555.364531 158.198558 
L 559.129452 156.78083 
L 562.753594 155.564369 
L 566.247109 154.62739 
L 569.619084 151.063204 
L 572.877695 149.344968 
L 576.030315 149.710889 
L 579.083623 148.616501 
L 582.769791 140.721227 
L 586.320903 141.388794 
L 589.746508 149.449364 
L 593.055175 143.740057 
L 596.254625 135.597562 
L 599.351838 135.644612 
L 602.353147 140.398147 
L 605.836199 133.844448 
L 609.198427 140.412272 
L 612.447934 129.336104 
L 615.592032 138.195419 
L 618.637346 127.999494 
L 622.07336 129.740627 
L 625.391736 132.566317 
L 628.600264 124.460439 
L 631.705984 123.259167 
L 634.71528 126.570791 
L 638.043831 125.409693 
L 641.26187 124.952246 
L 644.3765 123.115285 
L 647.394161 119.677921 
L 650.680392 115.001289 
L 653.858858 114.887843 
L 656.936403 119.073834 
L 660.24507 109.9036 
L 663.44452 118.803567 
L 666.541733 108.769629 
L 669.543042 115.537329 
L 672.740573 105.750182 
L 675.835987 105.275786 
L 678.835607 109.262433 
L 682.005411 108.16294 
L 685.074835 107.769138 
L 688.293902 100.230096 
L 691.409495 101.025028 
L 694.428059 106.419902 
L 697.577021 97.238441 
L 700.626899 101.713781 
L 703.791528 96.156768 
L 706.856099 95.188313 
L 710.021589 91.919336 
L 713.086968 90.478184 
L 716.241097 91.658006 
L 719.295821 97.513233 
L 722.428627 88.181201 
L 725.463347 92.283554 
L 728.566824 88.461299 
L 731.574014 86.331726 
L 734.641818 85.184341 
L 737.76182 83.325788 
L 740.784522 90.832908 
L 743.853209 80.248129 
L 746.960784 85.251236 
L 749.971822 83.405216 
L 753.017136 82.026466 
L 756.090778 80.95316 
L 759.18723 76.145706 
L 762.187824 79.325206 
L 765.208532 81.702498 
L 768.244761 80.528747 
L 771.292277 76.23083 
L 774.347189 68.461132 
L 777.405937 66.982917 
L 777.405937 66.982917 
" clip-path="url(#p6aa216f8df)" style="fill: none; stroke: #2ca02c; stroke-width: 1.5; stroke-linecap: square"/>
   </g>
   <g id="line2d_80">
    <path d="M 175.189895 369.36 
L 214.493464 330.236418 
L 242.37979 343.82218 
L 264.010105 308.207978 
L 281.683359 285.069733 
L 296.625883 274.586755 
L 309.569685 297.239322 
L 320.986928 269.813895 
L 331.2 263.378429 
L 340.438847 254.794742 
L 348.873254 259.072218 
L 356.632156 236.252674 
L 363.815778 235.144441 
L 370.503569 230.609075 
L 376.75958 235.396925 
L 382.636199 231.34465 
L 388.176823 248.358102 
L 393.417804 230.931381 
L 398.389895 247.54033 
L 403.119347 218.462308 
L 407.628742 224.7263 
L 411.937653 224.885824 
L 416.063149 239.306391 
L 420.02021 209.584773 
L 423.822051 209.263917 
L 427.480392 219.957921 
L 431.005673 230.745416 
L 434.407233 202.247287 
L 437.693464 198.6528 
L 440.87193 215.533197 
L 443.949475 198.969156 
L 449.826094 196.444302 
L 455.366718 195.189289 
L 460.607699 193.846308 
L 465.57979 189.068536 
L 470.309242 185.136586 
L 474.818637 186.459756 
L 479.127548 188.988868 
L 483.253044 189.830715 
L 487.210105 186.500295 
L 491.011946 181.739159 
L 494.670287 180.072771 
L 498.195568 180.359338 
L 501.597128 178.055875 
L 504.883359 180.218398 
L 508.061825 177.839525 
L 511.13937 180.01177 
L 515.579896 171.33908 
L 519.825883 168.912748 
L 523.893662 169.027279 
L 527.797594 168.88987 
L 531.550367 168.096326 
L 535.163252 163.85162 
L 538.646304 166.210744 
L 542.008532 161.294708 
L 545.258039 158.952241 
L 548.402137 158.431595 
L 551.447451 159.616626 
L 555.364531 160.121029 
L 559.129452 158.60917 
L 562.753594 156.956881 
L 566.247109 155.696376 
L 569.619084 151.671449 
L 572.877695 149.79528 
L 576.030315 149.978264 
L 579.083623 149.049443 
L 582.769791 149.402533 
L 586.320903 147.944094 
L 589.746508 149.45426 
L 593.055175 145.526706 
L 596.254625 140.544669 
L 599.351838 138.17872 
L 602.353147 140.112458 
L 605.836199 136.150199 
L 609.198427 140.565944 
L 612.447934 136.508092 
L 615.592032 138.422441 
L 618.637346 135.69205 
L 622.07336 130.289303 
L 625.391736 132.533865 
L 628.600264 127.84073 
L 631.705984 126.398731 
L 634.71528 128.630735 
L 638.043831 127.529481 
L 641.26187 126.63266 
L 644.3765 124.670044 
L 647.394161 120.759169 
L 650.680392 117.486831 
L 653.858858 117.13925 
L 656.936403 119.011622 
L 660.24507 118.912436 
L 663.44452 118.997911 
L 666.541733 114.830782 
L 669.543042 115.521373 
L 672.740573 109.910979 
L 675.835987 109.204198 
L 678.835607 109.607357 
L 682.005411 108.874243 
L 685.074835 109.470609 
L 688.293902 108.803845 
L 691.409495 107.362471 
L 694.428059 106.514668 
L 697.577021 99.032275 
L 700.626899 101.541403 
L 703.791528 99.476747 
L 706.856099 99.148469 
L 710.021589 100.530268 
L 713.086968 98.132774 
L 716.241097 97.619664 
L 719.295821 97.678607 
L 722.428627 91.014044 
L 725.463347 92.638015 
L 728.566824 90.472572 
L 731.574014 89.402812 
L 734.641818 88.072697 
L 737.76182 89.759099 
L 740.784522 91.060715 
L 743.853209 86.650852 
L 746.960784 86.851028 
L 749.971822 83.293315 
L 753.017136 82.013609 
L 756.090778 81.571406 
L 759.18723 79.359232 
L 762.187824 81.495143 
L 765.208532 81.656002 
L 768.244761 80.560731 
L 771.292277 78.136918 
L 774.347189 71.924288 
L 777.405937 72.023482 
L 777.405937 72.023482 
" clip-path="url(#p6aa216f8df)" style="fill: none; stroke: #d62728; stroke-width: 1.5; stroke-linecap: square"/>
   </g>
   <g id="patch_3">
    <path d="M 108 384.48 
L 108 51.84 
" style="fill: none; stroke: #000000; stroke-width: 0.8; stroke-linejoin: miter; stroke-linecap: square"/>
   </g>
   <g id="patch_4">
    <path d="M 777.6 384.48 
L 777.6 51.84 
" style="fill: none; stroke: #000000; stroke-width: 0.8; stroke-linejoin: miter; stroke-linecap: square"/>
   </g>
   <g id="patch_5">
    <path d="M 108 384.48 
L 777.6 384.48 
" style="fill: none; stroke: #000000; stroke-width: 0.8; stroke-linejoin: miter; stroke-linecap: square"/>
   </g>
   <g id="patch_6">
    <path d="M 108 51.84 
L 777.6 51.84 
" style="fill: none; stroke: #000000; stroke-width: 0.8; stroke-linejoin: miter; stroke-linecap: square"/>
   </g>
   <g id="legend_1">
    <g id="patch_7">
     <path d="M 690.1125 379.48 
L 770.6 379.48 
Q 772.6 379.48 772.6 377.48 
L 772.6 319.7675 
Q 772.6 317.7675 770.6 317.7675 
L 690.1125 317.7675 
Q 688.1125 317.7675 688.1125 319.7675 
L 688.1125 377.48 
Q 688.1125 379.48 690.1125 379.48 
z
" style="fill: #ffffff; opacity: 0.8; stroke: #cccccc; stroke-linejoin: miter"/>
    </g>
    <g id="line2d_81">
     <path d="M 692.1125 325.865937 
L 702.1125 325.865937 
L 712.1125 325.865937 
" style="fill: none; stroke: #1f77b4; stroke-width: 1.5; stroke-linecap: square"/>
    </g>
    <g id="text_12">
     <!-- inbalance -->
     <g transform="translate(720.1125 329.365937)scale(0.1 -0.1)">
      <defs>
       <path id="DejaVuSans-6e" d="M 3513 2113 
L 3513 0 
L 2938 0 
L 2938 2094 
Q 2938 2591 2744 2837 
Q 2550 3084 2163 3084 
Q 1697 3084 1428 2787 
Q 1159 2491 1159 1978 
L 1159 0 
L 581 0 
L 581 3500 
L 1159 3500 
L 1159 2956 
Q 1366 3272 1645 3428 
Q 1925 3584 2291 3584 
Q 2894 3584 3203 3211 
Q 3513 2838 3513 2113 
z
" transform="scale(0.015625)"/>
       <path id="DejaVuSans-62" d="M 3116 1747 
Q 3116 2381 2855 2742 
Q 2594 3103 2138 3103 
Q 1681 3103 1420 2742 
Q 1159 2381 1159 1747 
Q 1159 1113 1420 752 
Q 1681 391 2138 391 
Q 2594 391 2855 752 
Q 3116 1113 3116 1747 
z
M 1159 2969 
Q 1341 3281 1617 3432 
Q 1894 3584 2278 3584 
Q 2916 3584 3314 3078 
Q 3713 2572 3713 1747 
Q 3713 922 3314 415 
Q 2916 -91 2278 -91 
Q 1894 -91 1617 61 
Q 1341 213 1159 525 
L 1159 0 
L 581 0 
L 581 4863 
L 1159 4863 
L 1159 2969 
z
" transform="scale(0.015625)"/>
       <path id="DejaVuSans-61" d="M 2194 1759 
Q 1497 1759 1228 1600 
Q 959 1441 959 1056 
Q 959 750 1161 570 
Q 1363 391 1709 391 
Q 2188 391 2477 730 
Q 2766 1069 2766 1631 
L 2766 1759 
L 2194 1759 
z
M 3341 1997 
L 3341 0 
L 2766 0 
L 2766 531 
Q 2569 213 2275 61 
Q 1981 -91 1556 -91 
Q 1019 -91 701 211 
Q 384 513 384 1019 
Q 384 1609 779 1909 
Q 1175 2209 1959 2209 
L 2766 2209 
L 2766 2266 
Q 2766 2663 2505 2880 
Q 2244 3097 1772 3097 
Q 1472 3097 1187 3025 
Q 903 2953 641 2809 
L 641 3341 
Q 956 3463 1253 3523 
Q 1550 3584 1831 3584 
Q 2591 3584 2966 3190 
Q 3341 2797 3341 1997 
z
" transform="scale(0.015625)"/>
       <path id="DejaVuSans-6c" d="M 603 4863 
L 1178 4863 
L 1178 0 
L 603 0 
L 603 4863 
z
" transform="scale(0.015625)"/>
      </defs>
      <use xlink:href="#DejaVuSans-69"/>
      <use xlink:href="#DejaVuSans-6e" x="27.783203"/>
      <use xlink:href="#DejaVuSans-62" x="91.162109"/>
      <use xlink:href="#DejaVuSans-61" x="154.638672"/>
      <use xlink:href="#DejaVuSans-6c" x="215.917969"/>
      <use xlink:href="#DejaVuSans-61" x="243.701172"/>
      <use xlink:href="#DejaVuSans-6e" x="304.980469"/>
      <use xlink:href="#DejaVuSans-63" x="368.359375"/>
      <use xlink:href="#DejaVuSans-65" x="423.339844"/>
     </g>
    </g>
    <g id="line2d_82">
     <path d="M 692.1125 340.544062 
L 702.1125 340.544062 
L 712.1125 340.544062 
" style="fill: none; stroke: #ff7f0e; stroke-width: 1.5; stroke-linecap: square"/>
    </g>
    <g id="text_13">
     <!-- ndist -->
     <g transform="translate(720.1125 344.044062)scale(0.1 -0.1)">
      <defs>
       <path id="DejaVuSans-64" d="M 2906 2969 
L 2906 4863 
L 3481 4863 
L 3481 0 
L 2906 0 
L 2906 525 
Q 2725 213 2448 61 
Q 2172 -91 1784 -91 
Q 1150 -91 751 415 
Q 353 922 353 1747 
Q 353 2572 751 3078 
Q 1150 3584 1784 3584 
Q 2172 3584 2448 3432 
Q 2725 3281 2906 2969 
z
M 947 1747 
Q 947 1113 1208 752 
Q 1469 391 1925 391 
Q 2381 391 2643 752 
Q 2906 1113 2906 1747 
Q 2906 2381 2643 2742 
Q 2381 3103 1925 3103 
Q 1469 3103 1208 2742 
Q 947 2381 947 1747 
z
" transform="scale(0.015625)"/>
      </defs>
      <use xlink:href="#DejaVuSans-6e"/>
      <use xlink:href="#DejaVuSans-64" x="63.378906"/>
      <use xlink:href="#DejaVuSans-69" x="126.855469"/>
      <use xlink:href="#DejaVuSans-73" x="154.638672"/>
      <use xlink:href="#DejaVuSans-74" x="206.738281"/>
     </g>
    </g>
    <g id="line2d_83">
     <path d="M 692.1125 355.222188 
L 702.1125 355.222188 
L 712.1125 355.222188 
" style="fill: none; stroke: #2ca02c; stroke-width: 1.5; stroke-linecap: square"/>
    </g>
    <g id="text_14">
     <!-- random -->
     <g transform="translate(720.1125 358.722188)scale(0.1 -0.1)">
      <defs>
       <path id="DejaVuSans-72" d="M 2631 2963 
Q 2534 3019 2420 3045 
Q 2306 3072 2169 3072 
Q 1681 3072 1420 2755 
Q 1159 2438 1159 1844 
L 1159 0 
L 581 0 
L 581 3500 
L 1159 3500 
L 1159 2956 
Q 1341 3275 1631 3429 
Q 1922 3584 2338 3584 
Q 2397 3584 2469 3576 
Q 2541 3569 2628 3553 
L 2631 2963 
z
" transform="scale(0.015625)"/>
       <path id="DejaVuSans-6f" d="M 1959 3097 
Q 1497 3097 1228 2736 
Q 959 2375 959 1747 
Q 959 1119 1226 758 
Q 1494 397 1959 397 
Q 2419 397 2687 759 
Q 2956 1122 2956 1747 
Q 2956 2369 2687 2733 
Q 2419 3097 1959 3097 
z
M 1959 3584 
Q 2709 3584 3137 3096 
Q 3566 2609 3566 1747 
Q 3566 888 3137 398 
Q 2709 -91 1959 -91 
Q 1206 -91 779 398 
Q 353 888 353 1747 
Q 353 2609 779 3096 
Q 1206 3584 1959 3584 
z
" transform="scale(0.015625)"/>
      </defs>
      <use xlink:href="#DejaVuSans-72"/>
      <use xlink:href="#DejaVuSans-61" x="41.113281"/>
      <use xlink:href="#DejaVuSans-6e" x="102.392578"/>
      <use xlink:href="#DejaVuSans-64" x="165.771484"/>
      <use xlink:href="#DejaVuSans-6f" x="229.248047"/>
      <use xlink:href="#DejaVuSans-6d" x="290.429688"/>
     </g>
    </g>
    <g id="line2d_84">
     <path d="M 692.1125 369.900312 
L 702.1125 369.900312 
L 712.1125 369.900312 
" style="fill: none; stroke: #d62728; stroke-width: 1.5; stroke-linecap: square"/>
    </g>
    <g id="text_15">
     <!-- reverse -->
     <g transform="translate(720.1125 373.400312)scale(0.1 -0.1)">
      <defs>
       <path id="DejaVuSans-76" d="M 191 3500 
L 800 3500 
L 1894 563 
L 2988 3500 
L 3597 3500 
L 2284 0 
L 1503 0 
L 191 3500 
z
" transform="scale(0.015625)"/>
      </defs>
      <use xlink:href="#DejaVuSans-72"/>
      <use xlink:href="#DejaVuSans-65" x="38.863281"/>
      <use xlink:href="#DejaVuSans-76" x="100.386719"/>
      <use xlink:href="#DejaVuSans-65" x="159.566406"/>
      <use xlink:href="#DejaVuSans-72" x="221.089844"/>
      <use xlink:href="#DejaVuSans-73" x="262.203125"/>
      <use xlink:href="#DejaVuSans-65" x="314.302734"/>
     </g>
    </g>
   </g>
  </g>
 </g>
 <defs>
  <clipPath id="p6aa216f8df">
   <rect x="108" y="51.84" width="669.6" height="332.64"/>
  </clipPath>
 </defs>
</svg>
