<?xml version="1.0" encoding="utf-8" standalone="no"?>
<!DOCTYPE svg PUBLIC "-//W3C//DTD SVG 1.1//EN"
  "http://www.w3.org/Graphics/SVG/1.1/DTD/svg11.dtd">
<svg xmlns:xlink="http://www.w3.org/1999/xlink" width="864pt" height="432pt" viewBox="0 0 864 432" xmlns="http://www.w3.org/2000/svg" version="1.1">
 <metadata>
  <rdf:RDF xmlns:dc="http://purl.org/dc/elements/1.1/" xmlns:cc="http://creativecommons.org/ns#" xmlns:rdf="http://www.w3.org/1999/02/22-rdf-syntax-ns#">
   <cc:Work>
    <dc:type rdf:resource="http://purl.org/dc/dcmitype/StillImage"/>
    <dc:date>2022-05-09T15:29:43.903539</dc:date>
    <dc:format>image/svg+xml</dc:format>
    <dc:creator>
     <cc:Agent>
      <dc:title>Matplotlib v3.5.1, https://matplotlib.org/</dc:title>
     </cc:Agent>
    </dc:creator>
   </cc:Work>
  </rdf:RDF>
 </metadata>
 <defs>
  <style type="text/css">*{stroke-linejoin: round; stroke-linecap: butt}</style>
 </defs>
 <g id="figure_1">
  <g id="patch_1">
   <path d="M 0 432 
L 864 432 
L 864 0 
L 0 0 
z
" style="fill: #ffffff"/>
  </g>
  <g id="axes_1">
   <g id="patch_2">
    <path d="M 108 384.48 
L 777.6 384.48 
L 777.6 51.84 
L 108 51.84 
z
" style="fill: #ffffff"/>
   </g>
   <g id="matplotlib.axis_1">
    <g id="xtick_1">
     <g id="line2d_1">
      <path d="M 108 384.48 
L 108 51.84 
" clip-path="url(#p021146b2ca)" style="fill: none; stroke: #b0b0b0; stroke-width: 0.8; stroke-linecap: square"/>
     </g>
     <g id="line2d_2">
      <defs>
       <path id="me305490278" d="M 0 0 
L 0 3.5 
" style="stroke: #000000; stroke-width: 0.8"/>
      </defs>
      <g>
       <use xlink:href="#me305490278" x="108" y="384.48" style="stroke: #000000; stroke-width: 0.8"/>
      </g>
     </g>
     <g id="text_1">
      <!-- $\mathdefault{10^{0}}$ -->
      <g transform="translate(99.2 399.078438)scale(0.1 -0.1)">
       <defs>
        <path id="DejaVuSans-31" d="M 794 531 
L 1825 531 
L 1825 4091 
L 703 3866 
L 703 4441 
L 1819 4666 
L 2450 4666 
L 2450 531 
L 3481 531 
L 3481 0 
L 794 0 
L 794 531 
z
" transform="scale(0.015625)"/>
        <path id="DejaVuSans-30" d="M 2034 4250 
Q 1547 4250 1301 3770 
Q 1056 3291 1056 2328 
Q 1056 1369 1301 889 
Q 1547 409 2034 409 
Q 2525 409 2770 889 
Q 3016 1369 3016 2328 
Q 3016 3291 2770 3770 
Q 2525 4250 2034 4250 
z
M 2034 4750 
Q 2819 4750 3233 4129 
Q 3647 3509 3647 2328 
Q 3647 1150 3233 529 
Q 2819 -91 2034 -91 
Q 1250 -91 836 529 
Q 422 1150 422 2328 
Q 422 3509 836 4129 
Q 1250 4750 2034 4750 
z
" transform="scale(0.015625)"/>
       </defs>
       <use xlink:href="#DejaVuSans-31" transform="translate(0 0.765625)"/>
       <use xlink:href="#DejaVuSans-30" transform="translate(63.623047 0.765625)"/>
       <use xlink:href="#DejaVuSans-30" transform="translate(128.203125 39.046875)scale(0.7)"/>
      </g>
     </g>
    </g>
    <g id="xtick_2">
     <g id="line2d_3">
      <path d="M 331.2 384.48 
L 331.2 51.84 
" clip-path="url(#p021146b2ca)" style="fill: none; stroke: #b0b0b0; stroke-width: 0.8; stroke-linecap: square"/>
     </g>
     <g id="line2d_4">
      <g>
       <use xlink:href="#me305490278" x="331.2" y="384.48" style="stroke: #000000; stroke-width: 0.8"/>
      </g>
     </g>
     <g id="text_2">
      <!-- $\mathdefault{10^{1}}$ -->
      <g transform="translate(322.4 399.078438)scale(0.1 -0.1)">
       <use xlink:href="#DejaVuSans-31" transform="translate(0 0.684375)"/>
       <use xlink:href="#DejaVuSans-30" transform="translate(63.623047 0.684375)"/>
       <use xlink:href="#DejaVuSans-31" transform="translate(128.203125 38.965625)scale(0.7)"/>
      </g>
     </g>
    </g>
    <g id="xtick_3">
     <g id="line2d_5">
      <path d="M 554.4 384.48 
L 554.4 51.84 
" clip-path="url(#p021146b2ca)" style="fill: none; stroke: #b0b0b0; stroke-width: 0.8; stroke-linecap: square"/>
     </g>
     <g id="line2d_6">
      <g>
       <use xlink:href="#me305490278" x="554.4" y="384.48" style="stroke: #000000; stroke-width: 0.8"/>
      </g>
     </g>
     <g id="text_3">
      <!-- $\mathdefault{10^{2}}$ -->
      <g transform="translate(545.6 399.078438)scale(0.1 -0.1)">
       <defs>
        <path id="DejaVuSans-32" d="M 1228 531 
L 3431 531 
L 3431 0 
L 469 0 
L 469 531 
Q 828 903 1448 1529 
Q 2069 2156 2228 2338 
Q 2531 2678 2651 2914 
Q 2772 3150 2772 3378 
Q 2772 3750 2511 3984 
Q 2250 4219 1831 4219 
Q 1534 4219 1204 4116 
Q 875 4013 500 3803 
L 500 4441 
Q 881 4594 1212 4672 
Q 1544 4750 1819 4750 
Q 2544 4750 2975 4387 
Q 3406 4025 3406 3419 
Q 3406 3131 3298 2873 
Q 3191 2616 2906 2266 
Q 2828 2175 2409 1742 
Q 1991 1309 1228 531 
z
" transform="scale(0.015625)"/>
       </defs>
       <use xlink:href="#DejaVuSans-31" transform="translate(0 0.765625)"/>
       <use xlink:href="#DejaVuSans-30" transform="translate(63.623047 0.765625)"/>
       <use xlink:href="#DejaVuSans-32" transform="translate(128.203125 39.046875)scale(0.7)"/>
      </g>
     </g>
    </g>
    <g id="xtick_4">
     <g id="line2d_7">
      <path d="M 777.6 384.48 
L 777.6 51.84 
" clip-path="url(#p021146b2ca)" style="fill: none; stroke: #b0b0b0; stroke-width: 0.8; stroke-linecap: square"/>
     </g>
     <g id="line2d_8">
      <g>
       <use xlink:href="#me305490278" x="777.6" y="384.48" style="stroke: #000000; stroke-width: 0.8"/>
      </g>
     </g>
     <g id="text_4">
      <!-- $\mathdefault{10^{3}}$ -->
      <g transform="translate(768.8 399.078438)scale(0.1 -0.1)">
       <defs>
        <path id="DejaVuSans-33" d="M 2597 2516 
Q 3050 2419 3304 2112 
Q 3559 1806 3559 1356 
Q 3559 666 3084 287 
Q 2609 -91 1734 -91 
Q 1441 -91 1130 -33 
Q 819 25 488 141 
L 488 750 
Q 750 597 1062 519 
Q 1375 441 1716 441 
Q 2309 441 2620 675 
Q 2931 909 2931 1356 
Q 2931 1769 2642 2001 
Q 2353 2234 1838 2234 
L 1294 2234 
L 1294 2753 
L 1863 2753 
Q 2328 2753 2575 2939 
Q 2822 3125 2822 3475 
Q 2822 3834 2567 4026 
Q 2313 4219 1838 4219 
Q 1578 4219 1281 4162 
Q 984 4106 628 3988 
L 628 4550 
Q 988 4650 1302 4700 
Q 1616 4750 1894 4750 
Q 2613 4750 3031 4423 
Q 3450 4097 3450 3541 
Q 3450 3153 3228 2886 
Q 3006 2619 2597 2516 
z
" transform="scale(0.015625)"/>
       </defs>
       <use xlink:href="#DejaVuSans-31" transform="translate(0 0.765625)"/>
       <use xlink:href="#DejaVuSans-30" transform="translate(63.623047 0.765625)"/>
       <use xlink:href="#DejaVuSans-33" transform="translate(128.203125 39.046875)scale(0.7)"/>
      </g>
     </g>
    </g>
    <g id="xtick_5">
     <g id="line2d_9">
      <defs>
       <path id="m99688b09da" d="M 0 0 
L 0 2 
" style="stroke: #000000; stroke-width: 0.6"/>
      </defs>
      <g>
       <use xlink:href="#m99688b09da" x="175.189895" y="384.48" style="stroke: #000000; stroke-width: 0.6"/>
      </g>
     </g>
    </g>
    <g id="xtick_6">
     <g id="line2d_10">
      <g>
       <use xlink:href="#m99688b09da" x="214.493464" y="384.48" style="stroke: #000000; stroke-width: 0.6"/>
      </g>
     </g>
    </g>
    <g id="xtick_7">
     <g id="line2d_11">
      <g>
       <use xlink:href="#m99688b09da" x="242.37979" y="384.48" style="stroke: #000000; stroke-width: 0.6"/>
      </g>
     </g>
    </g>
    <g id="xtick_8">
     <g id="line2d_12">
      <g>
       <use xlink:href="#m99688b09da" x="264.010105" y="384.48" style="stroke: #000000; stroke-width: 0.6"/>
      </g>
     </g>
    </g>
    <g id="xtick_9">
     <g id="line2d_13">
      <g>
       <use xlink:href="#m99688b09da" x="281.683359" y="384.48" style="stroke: #000000; stroke-width: 0.6"/>
      </g>
     </g>
    </g>
    <g id="xtick_10">
     <g id="line2d_14">
      <g>
       <use xlink:href="#m99688b09da" x="296.625883" y="384.48" style="stroke: #000000; stroke-width: 0.6"/>
      </g>
     </g>
    </g>
    <g id="xtick_11">
     <g id="line2d_15">
      <g>
       <use xlink:href="#m99688b09da" x="309.569685" y="384.48" style="stroke: #000000; stroke-width: 0.6"/>
      </g>
     </g>
    </g>
    <g id="xtick_12">
     <g id="line2d_16">
      <g>
       <use xlink:href="#m99688b09da" x="320.986928" y="384.48" style="stroke: #000000; stroke-width: 0.6"/>
      </g>
     </g>
    </g>
    <g id="xtick_13">
     <g id="line2d_17">
      <g>
       <use xlink:href="#m99688b09da" x="398.389895" y="384.48" style="stroke: #000000; stroke-width: 0.6"/>
      </g>
     </g>
    </g>
    <g id="xtick_14">
     <g id="line2d_18">
      <g>
       <use xlink:href="#m99688b09da" x="437.693464" y="384.48" style="stroke: #000000; stroke-width: 0.6"/>
      </g>
     </g>
    </g>
    <g id="xtick_15">
     <g id="line2d_19">
      <g>
       <use xlink:href="#m99688b09da" x="465.57979" y="384.48" style="stroke: #000000; stroke-width: 0.6"/>
      </g>
     </g>
    </g>
    <g id="xtick_16">
     <g id="line2d_20">
      <g>
       <use xlink:href="#m99688b09da" x="487.210105" y="384.48" style="stroke: #000000; stroke-width: 0.6"/>
      </g>
     </g>
    </g>
    <g id="xtick_17">
     <g id="line2d_21">
      <g>
       <use xlink:href="#m99688b09da" x="504.883359" y="384.48" style="stroke: #000000; stroke-width: 0.6"/>
      </g>
     </g>
    </g>
    <g id="xtick_18">
     <g id="line2d_22">
      <g>
       <use xlink:href="#m99688b09da" x="519.825883" y="384.48" style="stroke: #000000; stroke-width: 0.6"/>
      </g>
     </g>
    </g>
    <g id="xtick_19">
     <g id="line2d_23">
      <g>
       <use xlink:href="#m99688b09da" x="532.769685" y="384.48" style="stroke: #000000; stroke-width: 0.6"/>
      </g>
     </g>
    </g>
    <g id="xtick_20">
     <g id="line2d_24">
      <g>
       <use xlink:href="#m99688b09da" x="544.186928" y="384.48" style="stroke: #000000; stroke-width: 0.6"/>
      </g>
     </g>
    </g>
    <g id="xtick_21">
     <g id="line2d_25">
      <g>
       <use xlink:href="#m99688b09da" x="621.589895" y="384.48" style="stroke: #000000; stroke-width: 0.6"/>
      </g>
     </g>
    </g>
    <g id="xtick_22">
     <g id="line2d_26">
      <g>
       <use xlink:href="#m99688b09da" x="660.893464" y="384.48" style="stroke: #000000; stroke-width: 0.6"/>
      </g>
     </g>
    </g>
    <g id="xtick_23">
     <g id="line2d_27">
      <g>
       <use xlink:href="#m99688b09da" x="688.77979" y="384.48" style="stroke: #000000; stroke-width: 0.6"/>
      </g>
     </g>
    </g>
    <g id="xtick_24">
     <g id="line2d_28">
      <g>
       <use xlink:href="#m99688b09da" x="710.410105" y="384.48" style="stroke: #000000; stroke-width: 0.6"/>
      </g>
     </g>
    </g>
    <g id="xtick_25">
     <g id="line2d_29">
      <g>
       <use xlink:href="#m99688b09da" x="728.083359" y="384.48" style="stroke: #000000; stroke-width: 0.6"/>
      </g>
     </g>
    </g>
    <g id="xtick_26">
     <g id="line2d_30">
      <g>
       <use xlink:href="#m99688b09da" x="743.025883" y="384.48" style="stroke: #000000; stroke-width: 0.6"/>
      </g>
     </g>
    </g>
    <g id="xtick_27">
     <g id="line2d_31">
      <g>
       <use xlink:href="#m99688b09da" x="755.969685" y="384.48" style="stroke: #000000; stroke-width: 0.6"/>
      </g>
     </g>
    </g>
    <g id="xtick_28">
     <g id="line2d_32">
      <g>
       <use xlink:href="#m99688b09da" x="767.386928" y="384.48" style="stroke: #000000; stroke-width: 0.6"/>
      </g>
     </g>
    </g>
    <g id="text_5">
     <!-- N -->
     <g transform="translate(439.059375 412.756563)scale(0.1 -0.1)">
      <defs>
       <path id="DejaVuSans-4e" d="M 628 4666 
L 1478 4666 
L 3547 763 
L 3547 4666 
L 4159 4666 
L 4159 0 
L 3309 0 
L 1241 3903 
L 1241 0 
L 628 0 
L 628 4666 
z
" transform="scale(0.015625)"/>
      </defs>
      <use xlink:href="#DejaVuSans-4e"/>
     </g>
    </g>
   </g>
   <g id="matplotlib.axis_2">
    <g id="ytick_1">
     <g id="line2d_33">
      <path d="M 108 352.872266 
L 777.6 352.872266 
" clip-path="url(#p021146b2ca)" style="fill: none; stroke: #b0b0b0; stroke-width: 0.8; stroke-linecap: square"/>
     </g>
     <g id="line2d_34">
      <defs>
       <path id="m115c528263" d="M 0 0 
L -3.5 0 
" style="stroke: #000000; stroke-width: 0.8"/>
      </defs>
      <g>
       <use xlink:href="#m115c528263" x="108" y="352.872266" style="stroke: #000000; stroke-width: 0.8"/>
      </g>
     </g>
     <g id="text_6">
      <!-- $\mathdefault{10^{-3}}$ -->
      <g transform="translate(77.5 356.671484)scale(0.1 -0.1)">
       <defs>
        <path id="DejaVuSans-2212" d="M 678 2272 
L 4684 2272 
L 4684 1741 
L 678 1741 
L 678 2272 
z
" transform="scale(0.015625)"/>
       </defs>
       <use xlink:href="#DejaVuSans-31" transform="translate(0 0.765625)"/>
       <use xlink:href="#DejaVuSans-30" transform="translate(63.623047 0.765625)"/>
       <use xlink:href="#DejaVuSans-2212" transform="translate(128.203125 39.046875)scale(0.7)"/>
       <use xlink:href="#DejaVuSans-33" transform="translate(186.855469 39.046875)scale(0.7)"/>
      </g>
     </g>
    </g>
    <g id="ytick_2">
     <g id="line2d_35">
      <path d="M 108 280.630151 
L 777.6 280.630151 
" clip-path="url(#p021146b2ca)" style="fill: none; stroke: #b0b0b0; stroke-width: 0.8; stroke-linecap: square"/>
     </g>
     <g id="line2d_36">
      <g>
       <use xlink:href="#m115c528263" x="108" y="280.630151" style="stroke: #000000; stroke-width: 0.8"/>
      </g>
     </g>
     <g id="text_7">
      <!-- $\mathdefault{10^{-2}}$ -->
      <g transform="translate(77.5 284.42937)scale(0.1 -0.1)">
       <use xlink:href="#DejaVuSans-31" transform="translate(0 0.765625)"/>
       <use xlink:href="#DejaVuSans-30" transform="translate(63.623047 0.765625)"/>
       <use xlink:href="#DejaVuSans-2212" transform="translate(128.203125 39.046875)scale(0.7)"/>
       <use xlink:href="#DejaVuSans-32" transform="translate(186.855469 39.046875)scale(0.7)"/>
      </g>
     </g>
    </g>
    <g id="ytick_3">
     <g id="line2d_37">
      <path d="M 108 208.388037 
L 777.6 208.388037 
" clip-path="url(#p021146b2ca)" style="fill: none; stroke: #b0b0b0; stroke-width: 0.8; stroke-linecap: square"/>
     </g>
     <g id="line2d_38">
      <g>
       <use xlink:href="#m115c528263" x="108" y="208.388037" style="stroke: #000000; stroke-width: 0.8"/>
      </g>
     </g>
     <g id="text_8">
      <!-- $\mathdefault{10^{-1}}$ -->
      <g transform="translate(77.5 212.187256)scale(0.1 -0.1)">
       <use xlink:href="#DejaVuSans-31" transform="translate(0 0.684375)"/>
       <use xlink:href="#DejaVuSans-30" transform="translate(63.623047 0.684375)"/>
       <use xlink:href="#DejaVuSans-2212" transform="translate(128.203125 38.965625)scale(0.7)"/>
       <use xlink:href="#DejaVuSans-31" transform="translate(186.855469 38.965625)scale(0.7)"/>
      </g>
     </g>
    </g>
    <g id="ytick_4">
     <g id="line2d_39">
      <path d="M 108 136.145923 
L 777.6 136.145923 
" clip-path="url(#p021146b2ca)" style="fill: none; stroke: #b0b0b0; stroke-width: 0.8; stroke-linecap: square"/>
     </g>
     <g id="line2d_40">
      <g>
       <use xlink:href="#m115c528263" x="108" y="136.145923" style="stroke: #000000; stroke-width: 0.8"/>
      </g>
     </g>
     <g id="text_9">
      <!-- $\mathdefault{10^{0}}$ -->
      <g transform="translate(83.4 139.945142)scale(0.1 -0.1)">
       <use xlink:href="#DejaVuSans-31" transform="translate(0 0.765625)"/>
       <use xlink:href="#DejaVuSans-30" transform="translate(63.623047 0.765625)"/>
       <use xlink:href="#DejaVuSans-30" transform="translate(128.203125 39.046875)scale(0.7)"/>
      </g>
     </g>
    </g>
    <g id="ytick_5">
     <g id="line2d_41">
      <path d="M 108 63.903809 
L 777.6 63.903809 
" clip-path="url(#p021146b2ca)" style="fill: none; stroke: #b0b0b0; stroke-width: 0.8; stroke-linecap: square"/>
     </g>
     <g id="line2d_42">
      <g>
       <use xlink:href="#m115c528263" x="108" y="63.903809" style="stroke: #000000; stroke-width: 0.8"/>
      </g>
     </g>
     <g id="text_10">
      <!-- $\mathdefault{10^{1}}$ -->
      <g transform="translate(83.4 67.703028)scale(0.1 -0.1)">
       <use xlink:href="#DejaVuSans-31" transform="translate(0 0.684375)"/>
       <use xlink:href="#DejaVuSans-30" transform="translate(63.623047 0.684375)"/>
       <use xlink:href="#DejaVuSans-31" transform="translate(128.203125 38.965625)scale(0.7)"/>
      </g>
     </g>
    </g>
    <g id="ytick_6">
     <g id="line2d_43">
      <defs>
       <path id="m068e4a3c12" d="M 0 0 
L -2 0 
" style="stroke: #000000; stroke-width: 0.6"/>
      </defs>
      <g>
       <use xlink:href="#m068e4a3c12" x="108" y="381.620293" style="stroke: #000000; stroke-width: 0.6"/>
      </g>
     </g>
    </g>
    <g id="ytick_7">
     <g id="line2d_44">
      <g>
       <use xlink:href="#m068e4a3c12" x="108" y="374.619309" style="stroke: #000000; stroke-width: 0.6"/>
      </g>
     </g>
    </g>
    <g id="ytick_8">
     <g id="line2d_45">
      <g>
       <use xlink:href="#m068e4a3c12" x="108" y="368.899088" style="stroke: #000000; stroke-width: 0.6"/>
      </g>
     </g>
    </g>
    <g id="ytick_9">
     <g id="line2d_46">
      <g>
       <use xlink:href="#m068e4a3c12" x="108" y="364.062711" style="stroke: #000000; stroke-width: 0.6"/>
      </g>
     </g>
    </g>
    <g id="ytick_10">
     <g id="line2d_47">
      <g>
       <use xlink:href="#m068e4a3c12" x="108" y="359.87325" style="stroke: #000000; stroke-width: 0.6"/>
      </g>
     </g>
    </g>
    <g id="ytick_11">
     <g id="line2d_48">
      <g>
       <use xlink:href="#m068e4a3c12" x="108" y="356.177883" style="stroke: #000000; stroke-width: 0.6"/>
      </g>
     </g>
    </g>
    <g id="ytick_12">
     <g id="line2d_49">
      <g>
       <use xlink:href="#m068e4a3c12" x="108" y="331.125222" style="stroke: #000000; stroke-width: 0.6"/>
      </g>
     </g>
    </g>
    <g id="ytick_13">
     <g id="line2d_50">
      <g>
       <use xlink:href="#m068e4a3c12" x="108" y="318.404017" style="stroke: #000000; stroke-width: 0.6"/>
      </g>
     </g>
    </g>
    <g id="ytick_14">
     <g id="line2d_51">
      <g>
       <use xlink:href="#m068e4a3c12" x="108" y="309.378179" style="stroke: #000000; stroke-width: 0.6"/>
      </g>
     </g>
    </g>
    <g id="ytick_15">
     <g id="line2d_52">
      <g>
       <use xlink:href="#m068e4a3c12" x="108" y="302.377195" style="stroke: #000000; stroke-width: 0.6"/>
      </g>
     </g>
    </g>
    <g id="ytick_16">
     <g id="line2d_53">
      <g>
       <use xlink:href="#m068e4a3c12" x="108" y="296.656974" style="stroke: #000000; stroke-width: 0.6"/>
      </g>
     </g>
    </g>
    <g id="ytick_17">
     <g id="line2d_54">
      <g>
       <use xlink:href="#m068e4a3c12" x="108" y="291.820597" style="stroke: #000000; stroke-width: 0.6"/>
      </g>
     </g>
    </g>
    <g id="ytick_18">
     <g id="line2d_55">
      <g>
       <use xlink:href="#m068e4a3c12" x="108" y="287.631136" style="stroke: #000000; stroke-width: 0.6"/>
      </g>
     </g>
    </g>
    <g id="ytick_19">
     <g id="line2d_56">
      <g>
       <use xlink:href="#m068e4a3c12" x="108" y="283.935769" style="stroke: #000000; stroke-width: 0.6"/>
      </g>
     </g>
    </g>
    <g id="ytick_20">
     <g id="line2d_57">
      <g>
       <use xlink:href="#m068e4a3c12" x="108" y="258.883108" style="stroke: #000000; stroke-width: 0.6"/>
      </g>
     </g>
    </g>
    <g id="ytick_21">
     <g id="line2d_58">
      <g>
       <use xlink:href="#m068e4a3c12" x="108" y="246.161903" style="stroke: #000000; stroke-width: 0.6"/>
      </g>
     </g>
    </g>
    <g id="ytick_22">
     <g id="line2d_59">
      <g>
       <use xlink:href="#m068e4a3c12" x="108" y="237.136065" style="stroke: #000000; stroke-width: 0.6"/>
      </g>
     </g>
    </g>
    <g id="ytick_23">
     <g id="line2d_60">
      <g>
       <use xlink:href="#m068e4a3c12" x="108" y="230.135081" style="stroke: #000000; stroke-width: 0.6"/>
      </g>
     </g>
    </g>
    <g id="ytick_24">
     <g id="line2d_61">
      <g>
       <use xlink:href="#m068e4a3c12" x="108" y="224.41486" style="stroke: #000000; stroke-width: 0.6"/>
      </g>
     </g>
    </g>
    <g id="ytick_25">
     <g id="line2d_62">
      <g>
       <use xlink:href="#m068e4a3c12" x="108" y="219.578482" style="stroke: #000000; stroke-width: 0.6"/>
      </g>
     </g>
    </g>
    <g id="ytick_26">
     <g id="line2d_63">
      <g>
       <use xlink:href="#m068e4a3c12" x="108" y="215.389021" style="stroke: #000000; stroke-width: 0.6"/>
      </g>
     </g>
    </g>
    <g id="ytick_27">
     <g id="line2d_64">
      <g>
       <use xlink:href="#m068e4a3c12" x="108" y="211.693655" style="stroke: #000000; stroke-width: 0.6"/>
      </g>
     </g>
    </g>
    <g id="ytick_28">
     <g id="line2d_65">
      <g>
       <use xlink:href="#m068e4a3c12" x="108" y="186.640994" style="stroke: #000000; stroke-width: 0.6"/>
      </g>
     </g>
    </g>
    <g id="ytick_29">
     <g id="line2d_66">
      <g>
       <use xlink:href="#m068e4a3c12" x="108" y="173.919789" style="stroke: #000000; stroke-width: 0.6"/>
      </g>
     </g>
    </g>
    <g id="ytick_30">
     <g id="line2d_67">
      <g>
       <use xlink:href="#m068e4a3c12" x="108" y="164.893951" style="stroke: #000000; stroke-width: 0.6"/>
      </g>
     </g>
    </g>
    <g id="ytick_31">
     <g id="line2d_68">
      <g>
       <use xlink:href="#m068e4a3c12" x="108" y="157.892966" style="stroke: #000000; stroke-width: 0.6"/>
      </g>
     </g>
    </g>
    <g id="ytick_32">
     <g id="line2d_69">
      <g>
       <use xlink:href="#m068e4a3c12" x="108" y="152.172746" style="stroke: #000000; stroke-width: 0.6"/>
      </g>
     </g>
    </g>
    <g id="ytick_33">
     <g id="line2d_70">
      <g>
       <use xlink:href="#m068e4a3c12" x="108" y="147.336368" style="stroke: #000000; stroke-width: 0.6"/>
      </g>
     </g>
    </g>
    <g id="ytick_34">
     <g id="line2d_71">
      <g>
       <use xlink:href="#m068e4a3c12" x="108" y="143.146907" style="stroke: #000000; stroke-width: 0.6"/>
      </g>
     </g>
    </g>
    <g id="ytick_35">
     <g id="line2d_72">
      <g>
       <use xlink:href="#m068e4a3c12" x="108" y="139.451541" style="stroke: #000000; stroke-width: 0.6"/>
      </g>
     </g>
    </g>
    <g id="ytick_36">
     <g id="line2d_73">
      <g>
       <use xlink:href="#m068e4a3c12" x="108" y="114.39888" style="stroke: #000000; stroke-width: 0.6"/>
      </g>
     </g>
    </g>
    <g id="ytick_37">
     <g id="line2d_74">
      <g>
       <use xlink:href="#m068e4a3c12" x="108" y="101.677675" style="stroke: #000000; stroke-width: 0.6"/>
      </g>
     </g>
    </g>
    <g id="ytick_38">
     <g id="line2d_75">
      <g>
       <use xlink:href="#m068e4a3c12" x="108" y="92.651836" style="stroke: #000000; stroke-width: 0.6"/>
      </g>
     </g>
    </g>
    <g id="ytick_39">
     <g id="line2d_76">
      <g>
       <use xlink:href="#m068e4a3c12" x="108" y="85.650852" style="stroke: #000000; stroke-width: 0.6"/>
      </g>
     </g>
    </g>
    <g id="ytick_40">
     <g id="line2d_77">
      <g>
       <use xlink:href="#m068e4a3c12" x="108" y="79.930632" style="stroke: #000000; stroke-width: 0.6"/>
      </g>
     </g>
    </g>
    <g id="ytick_41">
     <g id="line2d_78">
      <g>
       <use xlink:href="#m068e4a3c12" x="108" y="75.094254" style="stroke: #000000; stroke-width: 0.6"/>
      </g>
     </g>
    </g>
    <g id="ytick_42">
     <g id="line2d_79">
      <g>
       <use xlink:href="#m068e4a3c12" x="108" y="70.904793" style="stroke: #000000; stroke-width: 0.6"/>
      </g>
     </g>
    </g>
    <g id="ytick_43">
     <g id="line2d_80">
      <g>
       <use xlink:href="#m068e4a3c12" x="108" y="67.209427" style="stroke: #000000; stroke-width: 0.6"/>
      </g>
     </g>
    </g>
    <g id="text_11">
     <!-- time[usec] -->
     <g transform="translate(71.420312 244.956875)rotate(-90)scale(0.1 -0.1)">
      <defs>
       <path id="DejaVuSans-74" d="M 1172 4494 
L 1172 3500 
L 2356 3500 
L 2356 3053 
L 1172 3053 
L 1172 1153 
Q 1172 725 1289 603 
Q 1406 481 1766 481 
L 2356 481 
L 2356 0 
L 1766 0 
Q 1100 0 847 248 
Q 594 497 594 1153 
L 594 3053 
L 172 3053 
L 172 3500 
L 594 3500 
L 594 4494 
L 1172 4494 
z
" transform="scale(0.015625)"/>
       <path id="DejaVuSans-69" d="M 603 3500 
L 1178 3500 
L 1178 0 
L 603 0 
L 603 3500 
z
M 603 4863 
L 1178 4863 
L 1178 4134 
L 603 4134 
L 603 4863 
z
" transform="scale(0.015625)"/>
       <path id="DejaVuSans-6d" d="M 3328 2828 
Q 3544 3216 3844 3400 
Q 4144 3584 4550 3584 
Q 5097 3584 5394 3201 
Q 5691 2819 5691 2113 
L 5691 0 
L 5113 0 
L 5113 2094 
Q 5113 2597 4934 2840 
Q 4756 3084 4391 3084 
Q 3944 3084 3684 2787 
Q 3425 2491 3425 1978 
L 3425 0 
L 2847 0 
L 2847 2094 
Q 2847 2600 2669 2842 
Q 2491 3084 2119 3084 
Q 1678 3084 1418 2786 
Q 1159 2488 1159 1978 
L 1159 0 
L 581 0 
L 581 3500 
L 1159 3500 
L 1159 2956 
Q 1356 3278 1631 3431 
Q 1906 3584 2284 3584 
Q 2666 3584 2933 3390 
Q 3200 3197 3328 2828 
z
" transform="scale(0.015625)"/>
       <path id="DejaVuSans-65" d="M 3597 1894 
L 3597 1613 
L 953 1613 
Q 991 1019 1311 708 
Q 1631 397 2203 397 
Q 2534 397 2845 478 
Q 3156 559 3463 722 
L 3463 178 
Q 3153 47 2828 -22 
Q 2503 -91 2169 -91 
Q 1331 -91 842 396 
Q 353 884 353 1716 
Q 353 2575 817 3079 
Q 1281 3584 2069 3584 
Q 2775 3584 3186 3129 
Q 3597 2675 3597 1894 
z
M 3022 2063 
Q 3016 2534 2758 2815 
Q 2500 3097 2075 3097 
Q 1594 3097 1305 2825 
Q 1016 2553 972 2059 
L 3022 2063 
z
" transform="scale(0.015625)"/>
       <path id="DejaVuSans-5b" d="M 550 4863 
L 1875 4863 
L 1875 4416 
L 1125 4416 
L 1125 -397 
L 1875 -397 
L 1875 -844 
L 550 -844 
L 550 4863 
z
" transform="scale(0.015625)"/>
       <path id="DejaVuSans-75" d="M 544 1381 
L 544 3500 
L 1119 3500 
L 1119 1403 
Q 1119 906 1312 657 
Q 1506 409 1894 409 
Q 2359 409 2629 706 
Q 2900 1003 2900 1516 
L 2900 3500 
L 3475 3500 
L 3475 0 
L 2900 0 
L 2900 538 
Q 2691 219 2414 64 
Q 2138 -91 1772 -91 
Q 1169 -91 856 284 
Q 544 659 544 1381 
z
M 1991 3584 
L 1991 3584 
z
" transform="scale(0.015625)"/>
       <path id="DejaVuSans-73" d="M 2834 3397 
L 2834 2853 
Q 2591 2978 2328 3040 
Q 2066 3103 1784 3103 
Q 1356 3103 1142 2972 
Q 928 2841 928 2578 
Q 928 2378 1081 2264 
Q 1234 2150 1697 2047 
L 1894 2003 
Q 2506 1872 2764 1633 
Q 3022 1394 3022 966 
Q 3022 478 2636 193 
Q 2250 -91 1575 -91 
Q 1294 -91 989 -36 
Q 684 19 347 128 
L 347 722 
Q 666 556 975 473 
Q 1284 391 1588 391 
Q 1994 391 2212 530 
Q 2431 669 2431 922 
Q 2431 1156 2273 1281 
Q 2116 1406 1581 1522 
L 1381 1569 
Q 847 1681 609 1914 
Q 372 2147 372 2553 
Q 372 3047 722 3315 
Q 1072 3584 1716 3584 
Q 2034 3584 2315 3537 
Q 2597 3491 2834 3397 
z
" transform="scale(0.015625)"/>
       <path id="DejaVuSans-63" d="M 3122 3366 
L 3122 2828 
Q 2878 2963 2633 3030 
Q 2388 3097 2138 3097 
Q 1578 3097 1268 2742 
Q 959 2388 959 1747 
Q 959 1106 1268 751 
Q 1578 397 2138 397 
Q 2388 397 2633 464 
Q 2878 531 3122 666 
L 3122 134 
Q 2881 22 2623 -34 
Q 2366 -91 2075 -91 
Q 1284 -91 818 406 
Q 353 903 353 1747 
Q 353 2603 823 3093 
Q 1294 3584 2113 3584 
Q 2378 3584 2631 3529 
Q 2884 3475 3122 3366 
z
" transform="scale(0.015625)"/>
       <path id="DejaVuSans-5d" d="M 1947 4863 
L 1947 -844 
L 622 -844 
L 622 -397 
L 1369 -397 
L 1369 4416 
L 622 4416 
L 622 4863 
L 1947 4863 
z
" transform="scale(0.015625)"/>
      </defs>
      <use xlink:href="#DejaVuSans-74"/>
      <use xlink:href="#DejaVuSans-69" x="39.208984"/>
      <use xlink:href="#DejaVuSans-6d" x="66.992188"/>
      <use xlink:href="#DejaVuSans-65" x="164.404297"/>
      <use xlink:href="#DejaVuSans-5b" x="225.927734"/>
      <use xlink:href="#DejaVuSans-75" x="264.941406"/>
      <use xlink:href="#DejaVuSans-73" x="328.320312"/>
      <use xlink:href="#DejaVuSans-65" x="380.419922"/>
      <use xlink:href="#DejaVuSans-63" x="441.943359"/>
      <use xlink:href="#DejaVuSans-5d" x="496.923828"/>
     </g>
    </g>
   </g>
   <g id="line2d_81">
    <path d="M 175.189895 368.52779 
L 214.493464 331.233218 
L 242.37979 344.06005 
L 264.010105 296.198134 
L 281.683359 295.964047 
L 296.625883 285.689405 
L 309.569685 305.336131 
L 320.986928 275.007164 
L 340.438847 265.028457 
L 348.873254 269.203494 
L 356.632156 246.040726 
L 363.815778 244.731652 
L 370.503569 239.946427 
L 376.75958 257.296905 
L 382.636199 238.45823 
L 388.176823 237.972336 
L 393.417804 236.598128 
L 398.389895 234.336069 
L 403.119347 231.697998 
L 407.628742 229.431078 
L 411.937653 215.94138 
L 416.063149 236.715212 
L 420.02021 220.331795 
L 423.822051 216.982175 
L 431.005673 208.881366 
L 434.407233 204.680363 
L 437.693464 200.101766 
L 440.87193 194.299266 
L 443.949475 204.564646 
L 449.826094 188.935762 
L 455.366718 195.09328 
L 460.607699 185.046414 
L 465.57979 192.424251 
L 470.309242 184.117734 
L 474.818637 183.158408 
L 479.127548 180.321622 
L 483.253044 187.298495 
L 487.210105 177.47122 
L 491.011946 174.509319 
L 494.670287 172.404788 
L 498.195568 178.517551 
L 501.597128 169.635499 
L 504.883359 166.502463 
L 508.061825 164.679402 
L 511.13937 181.68141 
L 515.579896 168.877094 
L 519.825883 166.585379 
L 523.893662 172.721748 
L 527.797594 162.66036 
L 531.550367 165.953828 
L 535.163252 167.351766 
L 538.646304 153.850972 
L 542.008532 169.993892 
L 545.258039 159.956665 
L 548.402137 155.366196 
L 551.447451 164.879413 
L 555.364531 151.483353 
L 559.129452 162.56777 
L 562.753594 148.602093 
L 566.247109 158.711562 
L 569.619084 149.023232 
L 572.877695 157.980563 
L 576.030315 145.343577 
L 579.083623 157.138716 
L 582.769791 143.96068 
L 586.320903 143.622635 
L 589.746508 155.548855 
L 593.055175 132.673989 
L 596.254625 148.9899 
L 599.351838 142.541845 
L 602.353147 135.134696 
L 605.836199 145.704106 
L 609.198427 148.396235 
L 612.447934 132.518409 
L 615.592032 121.389193 
L 618.637346 136.141568 
L 622.07336 142.605424 
L 625.391736 144.456651 
L 628.600264 133.040823 
L 631.705984 126.979161 
L 634.71528 122.719907 
L 638.043831 121.05334 
L 641.26187 113.95405 
L 644.3765 114.089607 
L 647.394161 120.816808 
L 650.680392 119.124232 
L 653.858858 124.282389 
L 656.936403 134.362637 
L 660.24507 124.754457 
L 663.44452 110.428854 
L 666.541733 108.35181 
L 669.543042 128.297555 
L 672.740573 115.852385 
L 675.835987 110.010861 
L 678.835607 123.221096 
L 682.005411 107.250233 
L 685.074835 119.582876 
L 688.293902 105.209153 
L 691.409495 99.761622 
L 694.428059 119.093498 
L 697.577021 104.877922 
L 700.626899 100.798604 
L 703.791528 103.802756 
L 706.856099 109.46958 
L 710.021589 107.10732 
L 713.086968 105.899526 
L 716.241097 97.799638 
L 719.295821 84.281828 
L 722.428627 95.078789 
L 725.463347 109.513392 
L 728.566824 93.74293 
L 731.574014 91.523958 
L 734.641818 100.208992 
L 737.76182 93.189256 
L 740.784522 83.75638 
L 743.853209 91.942283 
L 746.960784 95.254507 
L 749.971822 100.699205 
L 753.017136 99.22 
L 756.090778 96.539926 
L 759.18723 84.512275 
L 762.187824 77.794348 
L 765.208532 95.162859 
L 768.244761 66.978817 
L 771.292277 87.246849 
L 774.347189 82.686225 
L 777.405937 76.922091 
L 777.405937 76.922091 
" clip-path="url(#p021146b2ca)" style="fill: none; stroke: #1f77b4; stroke-width: 1.5; stroke-linecap: square"/>
   </g>
   <g id="line2d_82">
    <path d="M 175.189895 368.86176 
L 214.493464 331.094395 
L 242.37979 343.390348 
L 264.010105 296.081027 
L 281.683359 296.156444 
L 296.625883 285.758603 
L 309.569685 305.807562 
L 320.986928 274.862084 
L 340.438847 265.165563 
L 348.873254 269.140509 
L 356.632156 246.321305 
L 363.815778 244.570943 
L 370.503569 240.185166 
L 376.75958 257.588005 
L 382.636199 238.673798 
L 388.176823 238.090369 
L 393.417804 236.598131 
L 398.389895 234.470869 
L 403.119347 231.830591 
L 407.628742 229.472082 
L 411.937653 216.165962 
L 416.063149 236.41483 
L 420.02021 220.584906 
L 423.822051 217.184947 
L 427.480392 212.712897 
L 431.005673 209.102867 
L 434.407233 204.422316 
L 437.693464 200.260918 
L 440.87193 194.191913 
L 443.949475 204.711003 
L 449.826094 188.970621 
L 455.366718 195.226269 
L 460.607699 184.679276 
L 465.57979 192.40674 
L 470.309242 184.135104 
L 474.818637 183.247326 
L 479.127548 180.187572 
L 483.253044 187.168322 
L 487.210105 177.47488 
L 491.011946 174.533077 
L 494.670287 172.580645 
L 498.195568 178.577555 
L 501.597128 169.497832 
L 504.883359 166.446342 
L 508.061825 164.813813 
L 511.13937 181.723532 
L 515.579896 168.829191 
L 519.825883 166.663601 
L 523.893662 172.780871 
L 527.797594 162.754679 
L 531.550367 166.140936 
L 535.163252 167.508664 
L 538.646304 153.750632 
L 542.008532 170.215845 
L 545.258039 159.993725 
L 548.402137 155.147326 
L 551.447451 165.138551 
L 555.364531 151.260399 
L 559.129452 162.384608 
L 562.753594 148.585295 
L 566.247109 158.762298 
L 569.619084 149.180283 
L 572.877695 158.14828 
L 576.030315 145.429601 
L 579.083623 157.261046 
L 582.769791 143.93998 
L 586.320903 143.648349 
L 589.746508 155.734393 
L 593.055175 132.625815 
L 596.254625 148.976264 
L 599.351838 142.599255 
L 602.353147 135.144928 
L 605.836199 145.634414 
L 609.198427 148.253002 
L 612.447934 132.510684 
L 615.592032 121.431997 
L 618.637346 136.160588 
L 622.07336 142.657358 
L 625.391736 144.364142 
L 628.600264 132.992864 
L 631.705984 126.95271 
L 634.71528 122.670577 
L 638.043831 121.220034 
L 641.26187 114.109785 
L 644.3765 113.947467 
L 647.394161 120.890918 
L 650.680392 119.174417 
L 653.858858 124.143404 
L 656.936403 134.554661 
L 660.24507 124.759695 
L 663.44452 110.14189 
L 666.541733 108.20658 
L 669.543042 128.362748 
L 672.740573 115.704433 
L 675.835987 110.130113 
L 678.835607 123.268676 
L 682.005411 107.07842 
L 685.074835 119.759738 
L 688.293902 105.247017 
L 691.409495 99.781126 
L 694.428059 119.06936 
L 697.577021 104.819533 
L 700.626899 100.954699 
L 703.791528 103.90472 
L 706.856099 109.578336 
L 710.021589 106.986994 
L 713.086968 105.761422 
L 716.241097 97.758469 
L 719.295821 84.258292 
L 722.428627 95.02311 
L 725.463347 109.372109 
L 728.566824 93.692674 
L 731.574014 91.803852 
L 734.641818 100.015642 
L 737.76182 93.328518 
L 740.784522 83.644593 
L 743.853209 91.920513 
L 746.960784 95.344049 
L 749.971822 101.307775 
L 753.017136 99.240114 
L 756.090778 96.480886 
L 759.18723 84.165638 
L 762.187824 77.83724 
L 765.208532 95.174235 
L 768.244761 66.96 
L 771.292277 87.197076 
L 774.347189 82.615207 
L 777.405937 77.010872 
L 777.405937 77.010872 
" clip-path="url(#p021146b2ca)" style="fill: none; stroke: #ff7f0e; stroke-width: 1.5; stroke-linecap: square"/>
   </g>
   <g id="line2d_83">
    <path d="M 175.189895 363.413181 
L 214.493464 329.141428 
L 242.37979 335.798616 
L 264.010105 295.101768 
L 281.683359 295.171293 
L 296.625883 282.573035 
L 309.569685 304.615522 
L 320.986928 274.853694 
L 340.438847 264.957323 
L 348.873254 269.028816 
L 356.632156 246.121848 
L 363.815778 244.407343 
L 370.503569 240.077684 
L 376.75958 257.392926 
L 382.636199 238.544031 
L 388.176823 238.055301 
L 393.417804 236.39085 
L 398.389895 234.409174 
L 403.119347 231.701706 
L 407.628742 229.503475 
L 411.937653 215.942201 
L 416.063149 236.109139 
L 420.02021 220.43958 
L 423.822051 217.085803 
L 431.005673 208.887738 
L 434.407233 204.679666 
L 437.693464 200.095959 
L 440.87193 194.137311 
L 443.949475 204.633762 
L 449.826094 189.053825 
L 455.366718 195.109788 
L 460.607699 184.712303 
L 465.57979 192.392605 
L 470.309242 184.104172 
L 474.818637 183.118723 
L 479.127548 180.045215 
L 483.253044 187.125278 
L 487.210105 177.445089 
L 491.011946 174.511793 
L 494.670287 172.360617 
L 498.195568 178.602435 
L 501.597128 169.584968 
L 504.883359 166.502908 
L 508.061825 164.692347 
L 511.13937 181.827163 
L 515.579896 168.819085 
L 519.825883 166.477433 
L 523.893662 172.884904 
L 527.797594 162.92667 
L 531.550367 165.9939 
L 535.163252 167.30336 
L 538.646304 153.731021 
L 542.008532 170.209267 
L 545.258039 159.931626 
L 548.402137 155.397314 
L 551.447451 164.968511 
L 555.364531 151.572523 
L 559.129452 162.486619 
L 562.753594 148.515907 
L 566.247109 158.780533 
L 569.619084 148.918636 
L 572.877695 157.958125 
L 576.030315 145.280264 
L 579.083623 157.194519 
L 582.769791 143.83428 
L 586.320903 143.710248 
L 589.746508 155.521161 
L 593.055175 132.549407 
L 596.254625 148.89065 
L 599.351838 142.525459 
L 602.353147 135.011716 
L 605.836199 145.593182 
L 609.198427 148.31182 
L 612.447934 132.63449 
L 615.592032 121.448841 
L 618.637346 136.152426 
L 622.07336 142.71284 
L 625.391736 144.408845 
L 628.600264 133.139181 
L 631.705984 127.008448 
L 634.71528 122.706937 
L 638.043831 121.20808 
L 641.26187 113.827053 
L 644.3765 113.953415 
L 647.394161 120.744211 
L 650.680392 118.958848 
L 653.858858 124.06615 
L 656.936403 134.396923 
L 660.24507 124.836442 
L 663.44452 110.44674 
L 666.541733 108.217915 
L 669.543042 128.319768 
L 672.740573 115.674695 
L 675.835987 110.086447 
L 678.835607 123.183587 
L 682.005411 107.153413 
L 685.074835 119.484349 
L 688.293902 105.259529 
L 691.409495 99.672544 
L 694.428059 119.286577 
L 697.577021 104.731934 
L 700.626899 100.783394 
L 703.791528 103.519218 
L 706.856099 109.661325 
L 710.021589 106.996361 
L 713.086968 105.81122 
L 716.241097 97.786052 
L 719.295821 84.13942 
L 722.428627 94.971373 
L 725.463347 109.38327 
L 728.566824 93.742938 
L 731.574014 91.713231 
L 734.641818 100.054337 
L 737.76182 93.175558 
L 740.784522 83.520647 
L 743.853209 91.776274 
L 746.960784 95.246732 
L 749.971822 101.133083 
L 753.017136 99.273691 
L 756.090778 96.518967 
L 759.18723 84.449699 
L 762.187824 77.867117 
L 765.208532 94.855558 
L 768.244761 67.006635 
L 771.292277 87.18382 
L 774.347189 82.786102 
L 777.405937 76.931 
L 777.405937 76.931 
" clip-path="url(#p021146b2ca)" style="fill: none; stroke: #2ca02c; stroke-width: 1.5; stroke-linecap: square"/>
   </g>
   <g id="line2d_84">
    <path d="M 175.189895 369.36 
L 214.493464 331.436267 
L 242.37979 344.187226 
L 264.010105 296.055826 
L 281.683359 295.942136 
L 296.625883 285.723984 
L 309.569685 305.558558 
L 320.986928 274.790841 
L 340.438847 265.080975 
L 348.873254 269.138178 
L 356.632156 246.144891 
L 363.815778 244.501433 
L 370.503569 240.126179 
L 376.75958 257.549322 
L 382.636199 238.162838 
L 388.176823 238.634353 
L 393.417804 238.419732 
L 398.389895 238.636445 
L 403.119347 238.278218 
L 407.628742 236.564604 
L 411.937653 237.320099 
L 416.063149 236.378715 
L 420.02021 217.718825 
L 423.822051 209.649991 
L 427.480392 202.60295 
L 431.005673 196.855235 
L 434.407233 192.305856 
L 437.693464 188.128213 
L 440.87193 184.38776 
L 443.949475 205.351326 
L 449.826094 190.901056 
L 455.366718 199.751988 
L 460.607699 190.270676 
L 465.57979 195.578064 
L 470.309242 188.94173 
L 474.818637 192.33679 
L 479.127548 188.925161 
L 483.253044 194.927644 
L 487.210105 187.385085 
L 491.011946 189.80831 
L 494.670287 186.467665 
L 498.195568 192.331423 
L 501.597128 185.300706 
L 504.883359 187.155009 
L 508.061825 184.060853 
L 511.13937 182.556814 
L 515.579896 174.560688 
L 519.825883 170.119016 
L 523.893662 173.807915 
L 527.797594 171.193241 
L 531.550367 171.631484 
L 535.163252 170.225887 
L 538.646304 168.549749 
L 542.008532 170.114483 
L 545.258039 161.968858 
L 548.402137 161.962739 
L 551.447451 165.130331 
L 555.364531 157.260471 
L 559.129452 164.685623 
L 562.753594 158.664033 
L 566.247109 164.085057 
L 569.619084 157.476129 
L 572.877695 160.08543 
L 576.030315 153.026389 
L 579.083623 159.000265 
L 582.769791 150.941552 
L 586.320903 154.844516 
L 589.746508 157.211253 
L 593.055175 150.926064 
L 596.254625 153.123729 
L 599.351838 145.628924 
L 602.353147 143.519278 
L 605.836199 150.519928 
L 609.198427 148.423222 
L 612.447934 144.816767 
L 615.592032 145.722332 
L 618.637346 147.79688 
L 622.07336 144.433507 
L 625.391736 144.508332 
L 628.600264 142.916572 
L 631.705984 139.576358 
L 634.71528 138.550594 
L 638.043831 136.280382 
L 641.26187 134.968193 
L 644.3765 133.977991 
L 650.680392 127.457622 
L 653.858858 130.63675 
L 656.936403 134.516309 
L 660.24507 130.884937 
L 663.44452 124.378901 
L 666.541733 126.614713 
L 669.543042 129.806312 
L 672.740573 125.893469 
L 675.835987 119.821066 
L 678.835607 125.789058 
L 682.005411 118.479226 
L 685.074835 122.368941 
L 688.293902 116.530637 
L 691.409495 120.737819 
L 694.428059 120.586447 
L 697.577021 113.956509 
L 700.626899 107.258781 
L 703.791528 115.085716 
L 706.856099 114.957999 
L 710.021589 113.369387 
L 713.086968 112.068028 
L 716.241097 111.31997 
L 719.295821 107.534676 
L 722.428627 104.844635 
L 725.463347 109.594825 
L 728.566824 103.936101 
L 731.574014 102.461702 
L 734.641818 105.442124 
L 737.76182 101.699992 
L 740.784522 99.320852 
L 743.853209 102.760574 
L 746.960784 102.130768 
L 749.971822 101.240408 
L 753.017136 99.722938 
L 756.090778 99.268817 
L 759.18723 94.107179 
L 762.187824 91.231746 
L 765.208532 95.328401 
L 768.244761 89.58928 
L 771.292277 93.824238 
L 774.347189 88.909481 
L 777.405937 86.946209 
L 777.405937 86.946209 
" clip-path="url(#p021146b2ca)" style="fill: none; stroke: #d62728; stroke-width: 1.5; stroke-linecap: square"/>
   </g>
   <g id="patch_3">
    <path d="M 108 384.48 
L 108 51.84 
" style="fill: none; stroke: #000000; stroke-width: 0.8; stroke-linejoin: miter; stroke-linecap: square"/>
   </g>
   <g id="patch_4">
    <path d="M 777.6 384.48 
L 777.6 51.84 
" style="fill: none; stroke: #000000; stroke-width: 0.8; stroke-linejoin: miter; stroke-linecap: square"/>
   </g>
   <g id="patch_5">
    <path d="M 108 384.48 
L 777.6 384.48 
" style="fill: none; stroke: #000000; stroke-width: 0.8; stroke-linejoin: miter; stroke-linecap: square"/>
   </g>
   <g id="patch_6">
    <path d="M 108 51.84 
L 777.6 51.84 
" style="fill: none; stroke: #000000; stroke-width: 0.8; stroke-linejoin: miter; stroke-linecap: square"/>
   </g>
   <g id="legend_1">
    <g id="patch_7">
     <path d="M 690.1125 379.48 
L 770.6 379.48 
Q 772.6 379.48 772.6 377.48 
L 772.6 319.7675 
Q 772.6 317.7675 770.6 317.7675 
L 690.1125 317.7675 
Q 688.1125 317.7675 688.1125 319.7675 
L 688.1125 377.48 
Q 688.1125 379.48 690.1125 379.48 
z
" style="fill: #ffffff; opacity: 0.8; stroke: #cccccc; stroke-linejoin: miter"/>
    </g>
    <g id="line2d_85">
     <path d="M 692.1125 325.865937 
L 702.1125 325.865937 
L 712.1125 325.865937 
" style="fill: none; stroke: #1f77b4; stroke-width: 1.5; stroke-linecap: square"/>
    </g>
    <g id="text_12">
     <!-- inbalance -->
     <g transform="translate(720.1125 329.365937)scale(0.1 -0.1)">
      <defs>
       <path id="DejaVuSans-6e" d="M 3513 2113 
L 3513 0 
L 2938 0 
L 2938 2094 
Q 2938 2591 2744 2837 
Q 2550 3084 2163 3084 
Q 1697 3084 1428 2787 
Q 1159 2491 1159 1978 
L 1159 0 
L 581 0 
L 581 3500 
L 1159 3500 
L 1159 2956 
Q 1366 3272 1645 3428 
Q 1925 3584 2291 3584 
Q 2894 3584 3203 3211 
Q 3513 2838 3513 2113 
z
" transform="scale(0.015625)"/>
       <path id="DejaVuSans-62" d="M 3116 1747 
Q 3116 2381 2855 2742 
Q 2594 3103 2138 3103 
Q 1681 3103 1420 2742 
Q 1159 2381 1159 1747 
Q 1159 1113 1420 752 
Q 1681 391 2138 391 
Q 2594 391 2855 752 
Q 3116 1113 3116 1747 
z
M 1159 2969 
Q 1341 3281 1617 3432 
Q 1894 3584 2278 3584 
Q 2916 3584 3314 3078 
Q 3713 2572 3713 1747 
Q 3713 922 3314 415 
Q 2916 -91 2278 -91 
Q 1894 -91 1617 61 
Q 1341 213 1159 525 
L 1159 0 
L 581 0 
L 581 4863 
L 1159 4863 
L 1159 2969 
z
" transform="scale(0.015625)"/>
       <path id="DejaVuSans-61" d="M 2194 1759 
Q 1497 1759 1228 1600 
Q 959 1441 959 1056 
Q 959 750 1161 570 
Q 1363 391 1709 391 
Q 2188 391 2477 730 
Q 2766 1069 2766 1631 
L 2766 1759 
L 2194 1759 
z
M 3341 1997 
L 3341 0 
L 2766 0 
L 2766 531 
Q 2569 213 2275 61 
Q 1981 -91 1556 -91 
Q 1019 -91 701 211 
Q 384 513 384 1019 
Q 384 1609 779 1909 
Q 1175 2209 1959 2209 
L 2766 2209 
L 2766 2266 
Q 2766 2663 2505 2880 
Q 2244 3097 1772 3097 
Q 1472 3097 1187 3025 
Q 903 2953 641 2809 
L 641 3341 
Q 956 3463 1253 3523 
Q 1550 3584 1831 3584 
Q 2591 3584 2966 3190 
Q 3341 2797 3341 1997 
z
" transform="scale(0.015625)"/>
       <path id="DejaVuSans-6c" d="M 603 4863 
L 1178 4863 
L 1178 0 
L 603 0 
L 603 4863 
z
" transform="scale(0.015625)"/>
      </defs>
      <use xlink:href="#DejaVuSans-69"/>
      <use xlink:href="#DejaVuSans-6e" x="27.783203"/>
      <use xlink:href="#DejaVuSans-62" x="91.162109"/>
      <use xlink:href="#DejaVuSans-61" x="154.638672"/>
      <use xlink:href="#DejaVuSans-6c" x="215.917969"/>
      <use xlink:href="#DejaVuSans-61" x="243.701172"/>
      <use xlink:href="#DejaVuSans-6e" x="304.980469"/>
      <use xlink:href="#DejaVuSans-63" x="368.359375"/>
      <use xlink:href="#DejaVuSans-65" x="423.339844"/>
     </g>
    </g>
    <g id="line2d_86">
     <path d="M 692.1125 340.544062 
L 702.1125 340.544062 
L 712.1125 340.544062 
" style="fill: none; stroke: #ff7f0e; stroke-width: 1.5; stroke-linecap: square"/>
    </g>
    <g id="text_13">
     <!-- ndist -->
     <g transform="translate(720.1125 344.044062)scale(0.1 -0.1)">
      <defs>
       <path id="DejaVuSans-64" d="M 2906 2969 
L 2906 4863 
L 3481 4863 
L 3481 0 
L 2906 0 
L 2906 525 
Q 2725 213 2448 61 
Q 2172 -91 1784 -91 
Q 1150 -91 751 415 
Q 353 922 353 1747 
Q 353 2572 751 3078 
Q 1150 3584 1784 3584 
Q 2172 3584 2448 3432 
Q 2725 3281 2906 2969 
z
M 947 1747 
Q 947 1113 1208 752 
Q 1469 391 1925 391 
Q 2381 391 2643 752 
Q 2906 1113 2906 1747 
Q 2906 2381 2643 2742 
Q 2381 3103 1925 3103 
Q 1469 3103 1208 2742 
Q 947 2381 947 1747 
z
" transform="scale(0.015625)"/>
      </defs>
      <use xlink:href="#DejaVuSans-6e"/>
      <use xlink:href="#DejaVuSans-64" x="63.378906"/>
      <use xlink:href="#DejaVuSans-69" x="126.855469"/>
      <use xlink:href="#DejaVuSans-73" x="154.638672"/>
      <use xlink:href="#DejaVuSans-74" x="206.738281"/>
     </g>
    </g>
    <g id="line2d_87">
     <path d="M 692.1125 355.222188 
L 702.1125 355.222188 
L 712.1125 355.222188 
" style="fill: none; stroke: #2ca02c; stroke-width: 1.5; stroke-linecap: square"/>
    </g>
    <g id="text_14">
     <!-- random -->
     <g transform="translate(720.1125 358.722188)scale(0.1 -0.1)">
      <defs>
       <path id="DejaVuSans-72" d="M 2631 2963 
Q 2534 3019 2420 3045 
Q 2306 3072 2169 3072 
Q 1681 3072 1420 2755 
Q 1159 2438 1159 1844 
L 1159 0 
L 581 0 
L 581 3500 
L 1159 3500 
L 1159 2956 
Q 1341 3275 1631 3429 
Q 1922 3584 2338 3584 
Q 2397 3584 2469 3576 
Q 2541 3569 2628 3553 
L 2631 2963 
z
" transform="scale(0.015625)"/>
       <path id="DejaVuSans-6f" d="M 1959 3097 
Q 1497 3097 1228 2736 
Q 959 2375 959 1747 
Q 959 1119 1226 758 
Q 1494 397 1959 397 
Q 2419 397 2687 759 
Q 2956 1122 2956 1747 
Q 2956 2369 2687 2733 
Q 2419 3097 1959 3097 
z
M 1959 3584 
Q 2709 3584 3137 3096 
Q 3566 2609 3566 1747 
Q 3566 888 3137 398 
Q 2709 -91 1959 -91 
Q 1206 -91 779 398 
Q 353 888 353 1747 
Q 353 2609 779 3096 
Q 1206 3584 1959 3584 
z
" transform="scale(0.015625)"/>
      </defs>
      <use xlink:href="#DejaVuSans-72"/>
      <use xlink:href="#DejaVuSans-61" x="41.113281"/>
      <use xlink:href="#DejaVuSans-6e" x="102.392578"/>
      <use xlink:href="#DejaVuSans-64" x="165.771484"/>
      <use xlink:href="#DejaVuSans-6f" x="229.248047"/>
      <use xlink:href="#DejaVuSans-6d" x="290.429688"/>
     </g>
    </g>
    <g id="line2d_88">
     <path d="M 692.1125 369.900312 
L 702.1125 369.900312 
L 712.1125 369.900312 
" style="fill: none; stroke: #d62728; stroke-width: 1.5; stroke-linecap: square"/>
    </g>
    <g id="text_15">
     <!-- reverse -->
     <g transform="translate(720.1125 373.400312)scale(0.1 -0.1)">
      <defs>
       <path id="DejaVuSans-76" d="M 191 3500 
L 800 3500 
L 1894 563 
L 2988 3500 
L 3597 3500 
L 2284 0 
L 1503 0 
L 191 3500 
z
" transform="scale(0.015625)"/>
      </defs>
      <use xlink:href="#DejaVuSans-72"/>
      <use xlink:href="#DejaVuSans-65" x="38.863281"/>
      <use xlink:href="#DejaVuSans-76" x="100.386719"/>
      <use xlink:href="#DejaVuSans-65" x="159.566406"/>
      <use xlink:href="#DejaVuSans-72" x="221.089844"/>
      <use xlink:href="#DejaVuSans-73" x="262.203125"/>
      <use xlink:href="#DejaVuSans-65" x="314.302734"/>
     </g>
    </g>
   </g>
  </g>
 </g>
 <defs>
  <clipPath id="p021146b2ca">
   <rect x="108" y="51.84" width="669.6" height="332.64"/>
  </clipPath>
 </defs>
</svg>
